<?xml version="1.0" encoding="utf-8"?>
<!-- Generator: Adobe Illustrator 24.3.0, SVG Export Plug-In . SVG Version: 6.00 Build 0)  -->
<svg version="1.1" id="Layer_1" xmlns="http://www.w3.org/2000/svg" xmlns:xlink="http://www.w3.org/1999/xlink" x="0px" y="0px"
	 viewBox="0 0 1800 1080" style="enable-background:new 0 0 1800 1080;" xml:space="preserve" >
	 
<style type="text/css">
	.st0{fill:url(#SVGID_1_);}
	.st1{fill:url(#SVGID_2_);}
	.st2{fill:url(#SVGID_3_);}
	
</style>
<g>
	
		<linearGradient id="SVGID_1_" gradientUnits="userSpaceOnUse" x1="1246.1227" y1="-2752.8247" x2="2780.0129" y2="-2752.8247" gradientTransform="matrix(-0.7071 0.7071 -0.7071 -0.7071 377.086 -2830.0195)">
		<stop  offset="0" style="stop-color:#DE8040"/>
		<stop  offset="0.1975" style="stop-color:#DF8444"/>
		<stop  offset="0.4114" style="stop-color:#E39051"/>
		<stop  offset="0.6331" style="stop-color:#E9A567"/>
		<stop  offset="0.8588" style="stop-color:#F2C185"/>
		<stop  offset="1" style="stop-color:#F9D69C"/>
	</linearGradient>
	<path class="st0" d="M200.7,829.7c47.4-12.1,82.3-42.4,112.4-79.2c27.7-33.9,56.9-66,100.7-79.3c5.3-1.6,12.7-1.8,17.2,0.8
		c41.9,24,84.8,45.2,133.7,50.6c1,0.1,1.8,1.7,2.3,2.2c-15.5,15.5-32,29.8-45.9,46.3c-23.9,28.5-45.7,59.8-49.9,97.4
		c-4.8,43.1,4.8,84.5,21.1,125.5c22.2,55.8,90.7,90.1,144.7,77.1c14.3-3.4,28.6-7.1,42.5-11.8c51.5-17.5,82-71.9,69.6-124.7
		c-5.6-24-21.1-39.4-45-46.1c-23.1-6.4-36.2,9-53.6,24c7.3-2.5,11.2-4,15.1-5.1c19.8-5.2,42.5,2.3,53.6,17.6
		c11.8,16.3,11.9,35.2-2.5,53.8c-8,10.2-18.3,19.6-29.6,26c-67.8,38.3-151.4-5.3-158.2-81.3c-3.5-39.4,5.3-75.5,26.9-108.1
		c9.9-14.9,19.6-31.2,38.3-39.3c2.6,4.7,4.8,8.2,6.5,11.9c9.7,20.2,25,27.8,47.8,27.7c36.6-0.2,71.2-8,106-18.1
		c31.7-9.2,56.8-25.6,73.8-54.1c1.5-2.5,3.9-4.4,5.8-6.5c1.7,1.3,2.6,1.7,3.1,2.4c2.1,3,4.5,5.9,6.2,9.2
		c18.2,37.4,53.7,51.7,89.7,58.2c51.9,9.5,104.9,2.4,157.1-4.6c19.9-2.7,34.3-15.3,41.5-34.9c2.1-5.8,4.7-11.5,8.6-21.3
		c23.1,46.2,58.8,76.1,98,101.6c39.8,25.9,86.2,34.2,131.6,45.3c-6-8.4-12.6-15.5-19.7-22c-16.3-15.2-27.7-33.5-33.7-54.9
		c-14.1-50.1-17.2-101-8-152.3c17-94.4-8.4-174.5-78.9-239.8c-7-6.5-14.8-12.1-22.2-18.2c0.4-1.2,0.9-2.3,1.3-3.5
		c3.5-0.1,7-0.7,10.4-0.3c42.7,5.8,82.1,19.9,117.3,45.5c28.4,20.6,54.2,42.8,68.9,75.9c22.3,50.3,33.1,103.8,45.6,156.9
		c0.9,3.9-1.7,9.9-4.6,13.3c-50.6,57.5-62.3,137-27,205.3c24.7,47.9,52.9,94.1,79.7,141c5.2,9.2,11.4,5.3,15-0.5
		c9.7-15.6,21-31,26.8-48.1c15.5-45.8,7-90.3-13.8-132.8c-16.1-32.8-32.8-65.2-49.2-97.8c-2.9-5.7-4.9-11.9-7.3-17.8
		c1.1-0.6,2.1-1.1,3.2-1.7c3.9,4.9,8.4,9.5,11.7,14.8c14.3,22.8,33.5,40.5,56.7,53.9c43.7,25.2,88.1,32.3,133.7,4.3
		c24.4-15,49-30.2,66.1-53.9c11.8-16.3,26.7-32.7,31.4-51.3c13.2-52.5-5.2-99-44.7-133c-32.5-28-67.7-25.1-88.3,22.6
		c3.1-3.4,4.7-5.5,6.5-7.2c17.8-16.6,47.9-19.6,63.5-5.1c28.2,26.2,40.4,57.9,30.6,96.4c-13.7,54.1-54.7,78.8-103.3,94
		c-19.8,6.2-41.9,6.9-58.3-7.5c-18.5-16.3-34.8-35.4-50.1-54.9c-21.5-27.5-24.5-62.5-33.5-94.7c-16.5-59.7-29.3-120.8-76-166.7
		c-1.2-1.2-0.9-4-1.3-5.8c1.7-0.8,2.6-1.6,3.3-1.5c5.5,0.6,11,1.4,16.4,2.2c58.8,7.6,107-9.5,143.7-58
		c32.1-42.3,66.1-83.1,99.1-124.7c3.5-4.4,6.4-9.3,11.7-16.9c-12.6-1-21.6-1.9-30.5-2.4c-34.6-1.8-68.4,2.1-99.5,18.5
		c-30.3,16-54.6,39.6-76,65.9c-27.4,33.7-56.8,64.3-99.3,79.2c-8.1,2.8-13.4,1.8-20.5-1.8c-24.6-12.5-49.2-25.3-74.8-35.7
		c-18.8-7.7-39.1-11.9-59.1-17.7c1-1.2,1.9-2.9,3.3-3.9c32.6-25.3,58.5-56.3,77.5-93c28.9-55.9,16.2-110.5-3.7-165.9
		c-22-61.2-88.5-96.1-153.3-81.8c-12.1,2.7-23.7,7.5-35.6,10.9c-42.2,12.2-83.3,66.2-70.6,122c5.4,24,19.6,40.6,43.3,47.9
		c20.2,6.2,35.4-0.4,53.1-21.8c-4.3,1.3-8.1,2.8-12.1,3.8c-20.8,5.1-43.4-2.8-54.3-18.9c-11-16.3-11-34.2,3.5-52.6
		c8.3-10.5,19.2-20.1,30.8-26.7c68.2-38.6,150.4,6.2,157.1,84.8c4.4,52.3-14.1,96.2-49.5,133.4c-10.1,10.6-23.1,18.3-35.5,27.8
		c-8.4-24.5-16.7-45.1-22.3-66.5c-5.7-21.7-19.5-30.9-40.2-34c-33.3-5.1-66.6-10.8-99.9-16.1c-25-4-48.8-1.6-70.5,12.9
		c-5.1,3.4-10.7,6.2-18.1,10.3c-0.2-7.6-0.9-13-0.5-18.3c2-23.3-5.9-42.3-23.2-58.2c-14.3-13.1-28.4-26.6-41.2-41.2
		c-31.7-36.2-72-43.4-117-37.5c-26.2,3.4-48.3,14-66.4,33.6c-12.2,13.2-25.5,25.5-38.6,38c-33.5,31.9-49.7,78.4-24.3,127.2
		c1.9,3.6,2.7,7.7,3.4,9.8c-30.3-20.6-58.9-44.7-91.5-60.7c-32.8-16.1-69.5-24.1-106.7-36.4c17.1,22.5,34.4,40.5,46.1,61.6
		c19.9,35.8,19.5,76.5,20.2,116.3c0.1,4.4-3.4,9.3-6.1,13.4c-8.8,13-18.4,25.5-26.9,38.7c-25,38.7-22.1,64.9,10.3,97.7
		c3.6,3.6,7.8,6.9,10.5,11c5.5,8.2,11.6,16.5,15.1,25.6c12.9,33.9,27.8,66.6,54.9,92c5.7,5.4,12.3,10.4,16.2,16.9
		c2.6,4.4,2.3,11.4,1,16.8c-0.4,1.5-9,2.6-13.2,1.5c-37.7-10-72.8-25.3-104.4-49.2c-29.6-22.4-53.6-48.9-64.8-84.2
		c-14.1-44.4-25.4-89.7-38.4-134.5c-2.8-9.6-0.5-15.9,6-23.5c45.6-54,59.1-117.1,32.6-181.4c-23.1-55.9-57.6-107.2-87.4-160.4
		c-5.2-9.2-10.6-7.9-18.5,2.7c-35.8,48.1-40.1,100.9-18.9,155C279,236,299,271.1,316.6,307.2c4.9,10,9.7,20.1,14.5,30.2
		c-1.1,0.7-2.3,1.4-3.4,2c-2.9-3.3-6.3-6.2-8.5-9.9c-17.7-28.7-41.5-50.9-71.5-65.7c-43-21.2-85.3-22.8-127.7,4.3
		c-28.8,18.5-53.3,40.3-74.4,67.3c-24.3,31.1-28.8,64.1-16.3,100.3c9.8,28.5,22.1,54.8,49.1,72.7c31.7,21.1,65.6,13.3,78.1-21.6
		c-3.8,2.7-7,5.3-10.4,7.5c-18,11.6-42.5,10.7-56.8-2.3c-28.4-26-38.9-57.8-29.5-95.4c13.2-53,53.6-77.4,101-93
		c26.8-8.8,52.3-3.8,73.4,16.2c24.5,23.2,45,49.4,54.9,82c9.5,31.4,17.7,63.2,25.9,94.9c11.2,43.3,24.1,85.5,57.1,118.3
		c4.6,4.6,7.5,10.9,11.3,16.5c-2.4,1.5-3.2,2.4-4,2.4c-4.6-0.3-9.2-0.7-13.7-1.4c-58.9-8-108.5,7.2-146,56.1
		c-33.1,43.2-67.8,85.3-101.6,128c-3.2,4-5.5,8.7-9.9,15.8C141.4,834.5,171.3,837.2,200.7,829.7z M1515.4,930.8
		c-5.2-3.7-10.4-7.5-17.1-12.4c-1.8,8.1-3.3,14.8-4.8,21.5c-1-0.2-2.1-0.5-3.1-0.7c2-9.2,4.1-18.4,6.7-30.1
		c7.8,6.8,14.5,12.6,21.1,18.4C1517.3,928.6,1516.3,929.7,1515.4,930.8z M1433.4,403c0.7,0.7,1.5,1.4,2.3,2.1
		c-3.7,4.2-7.4,8.4-11.9,13.6c6.8,4.2,13.5,8.4,20.3,12.6c-0.5,0.9-1,1.9-1.4,2.8c-8.6-4.4-17.3-8.8-26.7-13.6L1433.4,403z
		 M943.7,560.1c41.8-6.8,83.2,18.7,86,52C996.8,617.7,957.2,594,943.7,560.1z M1059.2,454.3c-14.7,28.8-56.6,36.5-103.6,16.9
		C994.9,437.9,1035,438.5,1059.2,454.3z M941.6,439.1c34.5-45,73.6-53,95.5-41.8C1024.9,430.7,982.9,451.5,941.6,439.1z
		 M1048.7,547.8c-25.1,15-85.6-0.8-97.9-25.6C989.3,502.3,1033.3,513.8,1048.7,547.8z M1181.5,428.6c16.7,10.1,32.6,19.7,48.5,29.3
		c-0.7,1.4-1.4,2.8-2.1,4.2c-9.1-3.6-18.2-7.2-26.3-10.4c1.7,32.6,32.5,42,52.3,60.7c-0.9,1.2-1.8,2.5-2.7,3.7
		c-11.3-7.6-22.7-15.2-35.5-23.7c3.7,18.5,7.3,36.9,11,55.2c0,0,0,0,0,0l0,0c0,0,0,0,0,0s0,0,0,0c12.6,10.8,25.2,21.7,37.8,32.5
		c-1.1,1.2-2.2,2.4-3.3,3.6c-0.9-0.5-1.7-1-2.5-1.5c-0.4-0.2-0.8-0.5-1.2-0.8c-0.3-0.2-0.6-0.4-1-0.6c-0.6-0.4-1.3-0.8-1.9-1.3
		c-0.3-0.2-0.5-0.3-0.8-0.5c-0.4-0.3-0.8-0.6-1.2-0.8c-0.6-0.4-1.2-0.9-1.7-1.3c0,0,0,0,0,0c-0.3-0.2-0.6-0.5-0.9-0.7
		c-0.5-0.4-1-0.8-1.5-1.2c-0.5-0.4-1-0.8-1.5-1.2c-0.4-0.4-0.9-0.8-1.3-1.2c-0.5-0.4-0.9-0.8-1.4-1.3c-0.5-0.5-1-1-1.5-1.5
		c-0.7-0.7-1.4-1.4-2.1-2.2c-0.2-0.2-0.4-0.4-0.6-0.7c-0.5-0.5-0.9-1-1.4-1.5c-0.4-0.5-0.8-1-1.2-1.4c-0.1-0.1-0.1-0.1-0.1-0.2
		c-0.3-0.3-0.6-0.7-0.8-1c-0.4-0.5-0.8-1-1.1-1.5c-0.4-0.5-0.8-1-1.1-1.5c-0.4-0.6-0.9-1.2-1.3-1.8c-0.3-0.5-0.7-0.9-1-1.4
		c-1.3-1.9-2.5-3.9-3.7-6c-0.3-0.5-0.6-1-0.9-1.6c-0.3-0.5-0.6-1-0.8-1.5c0,2.1,0.1,4.1,0.1,6.2c0.1,7.6,0.2,15.2,0.3,22.7
		c0,1.7,0,3.5,0.1,5.2c0,1.8,0.1,3.5,0.1,5.3c0.1,1.9,0.1,3.9,0.2,5.8c0.1,1.4,0.1,2.7,0.2,4.1c0.1,1.3,0.1,2.5,0.2,3.8
		c0.2,2.5,0.3,5,0.6,7.6c0.5,5.2,7.7,9.7,11.7,14.6c5.4,6.7,10.7,13.6,16,20.4c-0.9,0.8-1.9,1.7-2.8,2.5
		c-7.9-8.8-15.8-17.6-24.3-27.2c-0.3,17-1,33.7-0.4,50.3c0.1,3,5.2,6,8.2,8.6c8.5,7.5,17.1,14.8,25.7,22.1c-1.2,1.4-2.4,2.8-3.6,4.2
		c-9.7-8.9-19.4-17.7-31.7-28.9c1.3,14.7-0.4,28.5,4.3,39.5c4.7,11,15.7,19.2,22,31.1c-5.8-4.3-11.7-8.6-17.9-13.1
		c-2.9,28.4,16.4,41.2,38.1,52.4c-0.9,1.1-1.9,2.2-2.8,3.2c-6.5-3.5-13.1-7-22-11.7c10.7,20.5,17.2,41.5,46,41.5c-1,1.3-2,2.6-3,3.9
		c-4.5-0.5-9.1-1.1-16.9-2c12.3,11.9,16.9,27.2,34.1,30.6c3.1,0.6,4.5,9.4,5.2,16l-43.1-43.1c0.4,6,0.7,10.3,0.9,14.6
		c-0.7,0.2-1.4,0.5-2,0.7c-8.4-20.4-16.7-40.8-25.1-61.2c-1.3,0.3-2.6,0.5-3.8,0.8c-0.8,8.1-1.6,16.2-2.4,24.2
		c-0.8,0-1.5,0.1-2.3,0.1c-1.6-22.4-3.2-44.9-4.8-67.3c-1.6-0.2-3.1-0.3-4.7-0.5c-3.4,6.4-6.7,12.7-10,19.1
		c-1.2-0.3-2.5-0.6-3.7-0.9c6.5-24,17.1-47.7,7.7-73.3c-4.5,9.8-8.9,19.4-13.4,29c-2-29.1,27.4-51.5,13.2-80.9
		c-5.1,8-11.2,17.6-17.3,27.1c-1.5-0.7-3-1.5-4.5-2.2c4.1-9.4,6.8-19.8,12.6-27.9c9-12.5,12.3-25.2,10-40.2
		c-1.1-6.7-0.6-13.7-1-23.8c-7,12.7-12.4,22.5-17.8,32.2c-1.4-0.6-2.9-1.2-4.4-1.8c3.3-9.5,4.7-20.4,10.2-28.4
		c15.4-22.6,6.5-44.7,1.8-68.5c-3.8,13.1-7.2,24.7-10.7,36.4c-2-0.5-4.1-1-6.1-1.5c2.3-11,2.6-23,7.4-32.7c6.4-13,4-23.7-2.4-35
		c-2.4-4.3-4.6-8.8-7-13.5c-2.1,14-4.1,27.3-6.1,40.5c-2.1-0.2-4.1-0.4-6.1-0.6C1180,468.5,1180.7,449.2,1181.5,428.6z
		 M1145.2,456.6c5.3,34.2,1.3,65.4-7.3,100.6c-15.6-19.6-28.6-35.9-41.4-52L1145.2,456.6z M922.7,406c15.4-36.9,46.2-61.9,85.4-66.1
		C1013.8,370.3,971.5,408.4,922.7,406z M946.8,301.8c9.3,28.3-7.1,70.5-52.2,82.3C893.2,338.9,916.4,306.1,946.8,301.8z
		 M838.1,245.8c32.9,28.9,29.6,86.9,7.7,119.2C826.5,351.7,814.7,275.1,838.1,245.8z M783,257c26.8,39.5,34.7,80.7,24.6,126.6
		C764,331.6,759.7,293.9,783,257z M712.5,299.5c42.1,13.8,57.8,46.6,66.3,85.4C732.6,374,702.9,329.5,712.5,299.5z M765.2,709.7
		c-18.2-28.1,6.5-84.4,30.8-105.7C807,659.6,795.9,697,765.2,709.7z M871.7,712.3c-35.8-27.8-29.4-63.4-18.6-100.8
		C876.9,632,895.6,680.6,871.7,712.3z M937.8,700.1c-28.7-6-42.2-29.1-53.7-92.9C929.1,633,947.9,666.1,937.8,700.1z M727.2,440.7
		c-29.9,15.1-76.2-7-84.7-42.4C661.5,383,695.7,399.9,727.2,440.7z M984.5,662.8c-29.3-0.1-51-23.5-74-80.4
		C950.2,590,987.8,624.3,984.5,662.8z M663.7,346.6c28.3-6.3,71,33.4,72.7,65.9C684.6,399.3,663.2,379.6,663.7,346.6z M529.3,291.9
		c6.7,3.4,13.4,6.7,21.8,11c-10.4-21.1-18.5-41.6-47.2-41.6l2.9-3.9c5,0.8,10.1,1.6,17.7,2.8l-33.3-33.3c-0.6,0.6-1.1,1.3-1.7,1.9
		c-1.4-4.6-2.8-9.1-5.3-17.6l45,45c-0.4-5.7-0.7-10-0.9-14.2c0.7-0.2,1.4-0.4,2.1-0.7c8.3,20.3,16.6,40.7,24.9,61
		c1.4-0.2,2.7-0.5,4.1-0.8c0.7-8,1.4-16,2.2-24.1c1.7,0.2,3.3,0.3,5,0.5c-1.2,11.7-2.4,23.3-4,38.6c-14.3-8.6-24.7-14.9-35-21.1
		C528.1,294.2,528.7,293.1,529.3,291.9z M609.9,456.8c38-13.6,72.5-4.5,106.2,15.1C676.3,501.1,618.6,487.9,609.9,456.8z
		 M621.7,521.8c22.4-27,70.6-33.7,100.1-17.7C691.6,541.7,641.9,544.2,621.7,521.8z M740.8,559.1c-29,49.5-66.7,73.6-102.3,64.6
		C658.7,579,697,565.3,740.8,559.1z M765.7,585.8c-3.3,41.4-29.7,83-73.8,94C690.2,640.8,724.1,600.8,765.7,585.8z M376.5,660.9
		c-6.7-4.2-13.3-8.4-19.9-12.5c0.5-0.9,1.1-1.9,1.6-2.8c8.4,4.4,16.7,8.8,26.5,13.9l-17,17c-0.8-0.6-1.5-1.3-2.3-2
		C368.7,670.5,372,666.5,376.5,660.9z"/>
	
		<linearGradient id="SVGID_2_" gradientUnits="userSpaceOnUse" x1="1787.4628" y1="-2989.0686" x2="1787.5128" y2="-2989.0686" gradientTransform="matrix(-0.7071 0.7071 -0.7071 -0.7071 377.086 -2830.0195)">
		<stop  offset="0" style="stop-color:#DE8040"/>
		<stop  offset="0.1975" style="stop-color:#DF8444"/>
		<stop  offset="0.4114" style="stop-color:#E39051"/>
		<stop  offset="0.6331" style="stop-color:#E9A567"/>
		<stop  offset="0.8588" style="stop-color:#F2C185"/>
		<stop  offset="1" style="stop-color:#F9D69C"/>
	</linearGradient>
	<path class="st1" d="M1226.7,547.5C1226.7,547.5,1226.7,547.5,1226.7,547.5C1226.7,547.5,1226.7,547.5,1226.7,547.5L1226.7,547.5
		L1226.7,547.5C1226.7,547.5,1226.7,547.5,1226.7,547.5z"/>
	
		<linearGradient id="SVGID_3_" gradientUnits="userSpaceOnUse" x1="1787.4828" y1="-2989.0986" x2="1787.5128" y2="-2989.0986" gradientTransform="matrix(-0.7071 0.7071 -0.7071 -0.7071 377.086 -2830.0195)">
		<stop  offset="0" style="stop-color:#DE8040"/>
		<stop  offset="0.1975" style="stop-color:#DF8444"/>
		<stop  offset="0.4114" style="stop-color:#E39051"/>
		<stop  offset="0.6331" style="stop-color:#E9A567"/>
		<stop  offset="0.8588" style="stop-color:#F2C185"/>
		<stop  offset="1" style="stop-color:#F9D69C"/>
	</linearGradient>
	<path class="st2" d="M1226.8,547.6L1226.8,547.6C1226.8,547.6,1226.8,547.6,1226.8,547.6L1226.8,547.6
		C1226.7,547.5,1226.7,547.5,1226.8,547.6L1226.8,547.6L1226.8,547.6C1226.7,547.5,1226.8,547.6,1226.8,547.6z"/>
</g>
</svg>
