<?xml version="1.0" encoding="utf-8"?>
<!-- Generator: Adobe Illustrator 24.3.0, SVG Export Plug-In . SVG Version: 6.00 Build 0)  -->
<svg version="1.1" id="Layer_1" xmlns="http://www.w3.org/2000/svg" xmlns:xlink="http://www.w3.org/1999/xlink" x="0px" y="0px"
	 viewBox="0 0 1080 1080" style="enable-background:new 0 0 1080 1080;" xml:space="preserve">
<style type="text/css">
	.st0{fill:#EB9558;stroke:#FFFFFF;stroke-width:5;stroke-miterlimit:10;}
	.st1{fill:none;stroke:#FFFFFF;stroke-width:5;stroke-miterlimit:10;}
</style>
<g>
	<g>
		<path class="st0" d="M526.6,528.1L303.1,327.3c0,0-119.5-19.9-205.4,36.1c-14.8-60.2-3.4-126.3,36.7-179.3l6.2-8.2
			c51.8-68.5,137.8-96.8,216.8-79.2c-57.5,86.8-35.6,209.1-35.6,209.1L526.6,528.1z"/>
		<path class="st0" d="M531.5,532.4c-0.1,0.1-0.3,0.3-0.5,0.4l-4.4-4.7L531.5,532.4z"/>
		<path class="st0" d="M985.1,357c-87.8-60-213.8-35.7-213.8-35.7L548.9,531.6c-0.4-0.4-0.8-0.8-1.1-1.2l210.9-235.5
			c0,0,13-113.7-41.4-197c74-18.9,155.9,2.6,210.6,62.6l6.9,7.7C982.9,221,999.3,291.9,985.1,357z"/>
		<path class="st0" d="M347.3,966.4c-67.5,13.5-140.4-5.8-192.5-57.9l-7.3-7.3c-50-49.9-69.8-118.9-59.5-184.1
			c84.6,63.1,209.6,47.3,209.6,47.3l216.6-199.1L321.7,774.1C321.7,774.1,302.5,881.4,347.3,966.4z"/>
		<path class="st0" d="M538.6,542.9l-24.3,22.3l22.4-24.4C537.4,541.5,538.1,542.2,538.6,542.9z"/>
		<path class="st0" d="M947.4,883l-6.2,8.3c-51.8,68.4-137.8,96.7-216.8,79.2c46.1-81.8,34.3-185.2,34.3-185.2L543.1,544.3
			L787.9,758c0,0,115.5,11.6,198.2-45.1C997.6,770.6,985.5,832.7,947.4,883z"/>
		<path class="st0" d="M543,544.2l-1.3-1.1c0.1,0,0.1-0.1,0.2-0.1L543,544.2z"/>
	</g>
	<path class="st0" d="M535.6,517.4l5.3,5.8c-3.1,3.2-6.2,6.2-9.5,9.2l-4.9-4.3L321.7,305.9c0,0-21.9-122.3,35.6-209.1
		c28.8,6.4,56.6,19,81.5,37.7l83.2,63c9,6.8,17.2,14.2,24.8,22C463.1,298.7,457.8,431.8,535.6,517.4z"/>
	<path class="st0" d="M717.3,97.9c-32.6,8.3-63.6,24.4-90.2,48.5l-77.2,70.3c-1,0.9-2,1.9-3.1,3c-7.5-7.9-15.8-15.2-24.8-22
		l-83.2-63c-24.9-18.8-52.7-31.3-81.5-37.7c30.5-46,83.3-82.1,173.7-84.7C628.6,9.3,685,48.2,717.3,97.9z"/>
	<path class="st0" d="M758.7,294.8L547.8,530.4c-1.8-1.7-3.5-3.5-5.1-5.3l-1.7-1.8c5.7-6,11.2-12.4,16.3-19.2l6.2-8.3
		c63.9-84.5,54.8-202.2-16.6-276.2c1-1,2-2,3.1-3l77.2-70.3c26.5-24.1,57.5-40.2,90.2-48.5C771.7,181.1,758.7,294.8,758.7,294.8z"/>
	<path class="st1" d="M547.8,530.4l-8.3,9.3l-0.3,0.4l-0.8,0.8l-0.8-0.8l-6.6-7.2l-4.4-4.7l4.9,4.3c3.3-3,6.4-6,9.5-9.2l1.7,1.8
		C544.3,526.9,545.9,528.6,547.8,530.4z"/>
	<path class="st0" d="M563.5,495.8l-6.2,8.3c-5.1,6.7-10.6,13.2-16.3,19.2l-5.3-5.8c-77.8-85.6-72.5-218.7,11.2-297.8
		C618.3,293.6,627.3,411.3,563.5,495.8z"/>
	<path class="st0" d="M724.4,970.4c-28.8-6.4-56.5-19-81.5-37.8l-83.3-63c-12.4-9.4-23.6-20-33.3-31.4l3.5-3.5
		c79.2-79.2,82.6-206.4,10.3-289.9c0.5-0.5,1-1.1,1.5-1.6l1.3,1.1l0.1,0.1l215.6,240.8C758.7,785.2,770.5,888.6,724.4,970.4z"/>
	<path class="st0" d="M724.4,970.4c-31,55.2-88.3,100.5-193.4,97.5c-101.1-2.9-155.2-47.6-183.6-101.5
		c39.9-7.9,77.8-27.2,108.5-57.9l70.4-70.4c9.7,11.4,20.8,22,33.3,31.4l83.3,63C667.9,951.4,695.7,964,724.4,970.4z"/>
	<path class="st0" d="M526.4,838.1L456,908.5c-30.7,30.7-68.6,50.1-108.5,57.9h-0.1c-44.9-85-25.6-192.3-25.6-192.3l192.6-208.9
		l24.3-22.3c0.6,0.6,1.1,1.2,1.5,1.8c-5.5,5.7-10.7,11.8-15.6,18.4l-6.2,8.2C457,652.3,462.8,763.8,526.4,838.1z"/>
	<path class="st0" d="M529.8,834.6l-3.5,3.5c-63.5-74.3-69.4-185.8-8.1-266.8l6.2-8.2c4.9-6.5,10.1-12.6,15.6-18.4
		C612.4,628.2,609,755.5,529.8,834.6z"/>
	<path class="st1" d="M543,544.2l-1.3-1.1c-0.5,0.5-1,1.1-1.5,1.6c-0.4-0.6-0.9-1.2-1.5-1.8l-24.3,22.3l22.4-24.4l0.8-0.8l0.8-0.9
		l0.8,0.9l0.3,0.4l0.8,0.8l1.5,1.7L543,544.2z"/>
	<path class="st0" d="M985.1,357c-9,41.7-30.5,81.2-64.4,112l-76.2,69.3l-21.7-16.5c-82.7-62.4-197.4-55.1-271.5,12.2
		c-0.8-0.8-1.5-1.5-2.3-2.3l222.4-210.3C771.3,321.3,897.2,297,985.1,357z"/>
	<path class="st0" d="M986.1,712.9c-9.8-49.5-36.9-95.6-80.1-128.2l-61.5-46.5l76.2-69.3c33.9-30.8,55.4-70.3,64.4-112
		c44.4,30.4,79.1,82.3,82.6,169.8C1071.7,623.1,1034.5,679.7,986.1,712.9z"/>
	<path class="st0" d="M844.5,538.2l-1.1,1c-83.5,76.1-212.5,72.7-292.1-5.3c74.2-67.3,188.8-74.7,271.5-12.2L844.5,538.2z"/>
	<path class="st0" d="M986.1,712.9C903.4,769.7,787.9,758,787.9,758L543.1,544.3l-0.1-0.1l-1.1-1.2c3.1-3.3,6.2-6.2,9.4-9.1
		c79.7,78,208.6,81.4,292.1,5.3l1.1-1l61.5,46.5C949.2,617.4,976.3,663.5,986.1,712.9z"/>
	<path class="st1" d="M541.9,543l1.1,1.2l-1.3-1.1l-1.6-1.4l-0.9-0.8l0.4-0.4l0.4-0.4l9-8.5c0.8,0.8,1.5,1.5,2.3,2.3
		C548.1,536.8,544.9,539.7,541.9,543z"/>
	<path class="st0" d="M530.9,532.8c-0.3,0.3-0.7,0.6-1,0.9c0-0.1,0-0.1-0.1-0.2l-7.3-7.3c-81-81-212.5-82.7-295.7-5.2l-51.1-38.7
		c-40.4-30.6-66.8-73-78-118.9c85.9-56,205.4-36.1,205.4-36.1l223.5,200.8L530.9,532.8z"/>
	<path class="st0" d="M226.8,521c-1.8,1.7-3.7,3.5-5.4,5.2L147.5,600c-32.8,32.8-52.7,74.1-59.5,117c-44.3-32.8-77.4-87.3-76-176.7
		c1.4-92.5,38.5-146.2,85.6-177c11.2,45.9,37.6,88.3,78,118.9L226.8,521z"/>
	<path class="st0" d="M536.8,540.9l-22.4,24.4L297.7,764.4c0,0-125.1,15.8-209.6-47.3c6.7-42.9,26.6-84.2,59.5-117l73.8-73.8
		c1.7-1.7,3.6-3.5,5.4-5.2l32.2,24.4c82.4,62.4,196.7,55.2,270.9-11.6C532.4,536.1,534.6,538.4,536.8,540.9z"/>
	<path class="st0" d="M529.9,533.7c-74.3,66.8-188.5,74.1-270.9,11.6L226.8,521c83.2-77.5,214.7-75.8,295.7,5.2l7.3,7.3
		C529.9,533.6,529.9,533.6,529.9,533.7z"/>
	<path class="st1" d="M540.8,540.9l-0.5,0.4l-0.3,0.4l-1.4,1.2l-24.3,22.3l22.4-24.4c-2.1-2.4-4.4-4.8-6.8-7.1
		c0.3-0.3,0.7-0.6,1-0.9l-4.4-4.7l4.9,4.3l8.1,7.2l0.4,0.4L540.8,540.9z"/>
</g>
</svg>
