<?xml version="1.0" encoding="utf-8"?>
<!-- Generator: Adobe Illustrator 24.3.0, SVG Export Plug-In . SVG Version: 6.00 Build 0)  -->
<svg version="1.1" id="Layer_1" xmlns="http://www.w3.org/2000/svg" xmlns:xlink="http://www.w3.org/1999/xlink" x="0px" y="0px"
	 viewBox="0 0 1080 780" style="enable-background:new 0 0 1080 780;" xml:space="preserve">
<style type="text/css">
	.st0{fill:#F7C273;}
	.st1{fill:#FFFFFF;}
	.st2{fill:#FBDDB3;}
	.st3{fill:#FDF3E4;}
	.st4{fill:#F9D197;}
	.st5{fill:#FDF2E3;}
	.st6{fill:#FBE0B9;}
	.st7{fill:#FDF2E1;}
	.st8{fill:#D1BFBB;}
	.st9{fill:#A07A74;}
	.st10{fill:#A88580;}
	.st11{fill:#BEA49F;}
	.st12{fill:#70362D;}
	.st13{fill:#D0793D;}
	.st14{fill:#CB763C;}
	.st15{fill:#E2C1AD;}
	.st16{fill:#C7743A;}
	.st17{fill:url(#SVGID_1_);}
	.st18{fill:url(#SVGID_2_);}
</style>
<g>
	<path class="st0" d="M3.4,635.5c-0.1-3.4,0.6-4.2,3.9-5c2.8-0.7,5.6-0.9,8.4-1c10-0.3,19.9,0,29.9,0c12.1,0,24.3,0,36.4-0.1
		c9.1-0.1,18.2-0.6,27.3-1c6.5-0.3,13-0.6,19.5-1c8.3-0.5,16.5-1,24.8-1.5c6.9-0.5,13.8-0.9,20.7-1.5c3.7-0.4,7.3-0.3,11-0.4
		c14-0.5,28-0.3,41.9-0.6c14.6-0.4,29.1-0.1,43.7-0.5c13.4-0.4,26.8,0,40.2-0.5c14.9-0.5,29.8-0.1,44.7-0.5
		c15.2-0.5,30.5,0,45.7-0.5c16.4-0.5,32.8,0,49.2-0.5c17.4-0.5,34.8,0,52.2-0.5c19.8-0.5,39.5,0,59.3-0.5c22.5-0.5,45-0.1,67.6-0.5
		c32.7-0.6,65.5,0,98.2-0.5c36.3-0.5,72.5-0.2,108.8-0.3c9.7,0,19.4-0.1,29.1,0.1c21.6,0.4,43.2,0.2,64.8,0.6
		c9.5,0.2,19.1,0.1,28.6,0.5c6.1,0.3,12.2,0.2,18.3,0.4c7.8,0.3,15.5,0.6,23.3,1c8.1,0.4,16,2.1,24,3.6c7.6,1.4,15.3,2.6,23,3.9
		c8.1,1.4,16.2,2.4,24.1,4.5c2,0.5,3.8,1.2,5.4,2.5c0,0.3,0,0.7,0,1c-0.7,2.2-2.6,2.7-4.4,3.4c-3,1.1-6.1,1.9-9.2,2.5
		c-17.2,3.6-34.6,6.3-52.2,7.5c-19.5,1.3-39,1.7-58.5,1.3c-12.4-0.2-24.8-0.5-37.1-1c-12.7-0.5-25.4-0.9-38.1-1.5
		c-10.1-0.5-20.1-0.2-30.1-0.4c-2.9-0.1-5.7,0.4-8.5,0.9c-0.9,0.2-2,0.4-2.1,1.5c-0.2,1.1,0.9,1.5,1.6,2c2.5,1.5,5.2,2.2,8.1,2.7
		c6.3,1.2,12.6,1.8,19,1.8c9.7,0.1,19.4,0.3,29.1,0c12.9-0.5,25.8-0.8,38.6-1.3c8.8-0.4,17.6-0.4,26.4,0.2c4.3,0.3,8.7,0.5,13,1.2
		c2.4,0.4,4.7,1.1,6.9,2.4c2.5,1.5,4.3,3.6,4.2,6.7c0,3-2.2,4.4-4.5,5.6c-4.1,2.1-8.5,3.1-13,3.9c-7.8,1.4-15.6,2.1-23.4,2.7
		c-12,0.9-24.1,1.2-36.1,1.5c-32.8,0.9-65.7,0.1-98.5,0.5c-6.4,0.1-12.9,0.5-19.3,1.5c-1,0.2-2.1,0.3-3.1,1.2c1.3,1.4,3,1.6,4.6,1.9
		c7.5,1.6,15,2.5,22.6,3.4c11.4,1.2,22.9,1.7,34.3,1.7c5.9,0,11.9,0.2,17.8-0.6c5-0.6,10,0.2,15,0.5c10.5,0.7,20.8,2.5,30.7,6.1
		c3.4,1.2,6.8,2.5,9.7,4.7c1.9,1.4,4.1,2.8,3.5,5.6c-0.6,2.9-3.2,3.5-5.6,3.9c-5,0.8-10,1.2-15,0.5c-0.7-0.1-1.5-0.2-2.3-0.2
		c-11.6,0.3-23.3-0.4-34.9-0.6c-16.8-0.3-33.7,0-50.5-0.5c-24-0.8-48.1-0.4-72.1-0.3c-12.3,0.1-24.6,0.1-36.9,0.9
		c-4.1,0.3-8.2,0.3-12.5,1.3c1.1,0.7,2.1,0.8,3,1c13.4,2.4,26.9,3.8,40.4,5.2c17.7,1.8,35.5,3.3,53.2,5.6c1.9,0.3,3.8,0.5,5.6,1.2
		c0.6,0.2,1.3,0.6,1.3,1.3c0,0.7-0.6,1.1-1.2,1.5c-0.6,0.3-1.3,0.4-1.9,0.5c-4.7,0.5-9.3,0.8-14,1.1c-12.9,0.7-25.8,0.6-38.6,1.4
		c-0.3,0-0.7,0-1,0c-11.3-0.3-22.6,0.4-33.9,0.6c-16.8,0.3-33.6,0.6-50.5,1c-8.5,0.2-17.1-0.1-25.6,0.4c-11.6,0.6-23.3,0-34.9,0.6
		c-11.4,0.6-22.8,0-34.2,0.4c-22.9,0.9-45.7,0-68.6,0.6c-13,0.4-26,0.5-38.9,0.3c-15.7-0.3-31.5,0-47.2-0.5
		c-13.4-0.4-26.8-0.4-40.1-1.9c-1.8-0.2-3.5-0.4-5.2-0.9c-1-0.3-2-0.7-2-1.9c0-1.1,0.9-1.5,1.8-1.9c4.3-2,8.9-2.8,13.6-3.3
		c10.9-1.3,21.9-1.6,32.8-1.5c9.4,0.1,18.7-0.3,28.1-1.6c2.4-0.3,4.8-0.9,7-1.9c0.8-0.3,2.1-0.5,2-1.6c-0.1-0.9-1.3-0.8-2.1-1
		c-3.4-0.6-6.8-0.8-10.2-1c-15.1-0.8-30.1-0.5-45.2-0.5c-16.2,0-32.3,0.4-48.5,0.7c-12.2,0.2-24.5-0.2-36.7,0.4
		c-17.7,0.8-35.3,0.5-53,0.3c-11.9-0.1-23.8-0.2-35.6-1.9c-1.9-0.3-3.8-0.6-5.5-1.6c-1.9-1.1-1.9-2.7-0.1-3.9
		c1.6-1.1,3.5-1.5,5.4-1.9c9.2-1.7,18.6-2.4,27.9-3.2c10-0.8,20-1.2,30.1-1.9c3.8-0.3,7.5-0.4,11.3-0.5c10-0.3,20.1-0.8,30.1-1.2
		c13-0.5,26.1-1.1,39.1-1.8c8.8-0.5,17.5-1.1,26.3-1.7c-1.4,0.1-2.8,0.1-4.2,0.1c-11.5-0.2-22.9,0.5-34.4,0.6
		c-13.6,0.2-27.3,0.6-40.9,1c-7.3,0.2-14.6,0-21.8,0.4c-9.2,0.6-18.4,0.1-27.6,0.5c-25.8,1-51.6,0.5-77.4,0.3
		c-13.4-0.1-26.9-0.6-40.3-2.4c-5.1-0.7-9.9-2.2-14.4-4.7c-7.4-4.2-15.1-7.7-22.6-11.5c-2.4-1.2-4.7-2.5-7-4c-1-0.7-1.9-1.4-2.7-2.2
		c-2.4-2.6-1.8-5.2,1.5-6.5c2.8-1.1,5.7-1.4,8.6-1.6c7.3-0.7,14.6-0.8,21.8-0.5c12.2,0.5,24.4,0.6,36.6,1.4c0.3,0,0.7,0.1,1,0
		c9.8-0.3,19.6,0.4,29.4,0.6c13,0.3,26,0.2,38.9,0.5c4.8,0.1,9.5,0.6,14.3,0.4c15.5-0.8,31.1,0,46.6-2c2.6-0.3,5.1-0.7,7.7-1.4
		c0.5-0.1,1-0.3,1.5-1c-2.9-0.8-5.7-0.9-8.5-1c-10.6-0.7-21.3-0.4-31.9-0.6c-47.6-1-95.1-0.1-142.7-0.6c-13.1-0.1-26.3-0.2-39.4-0.9
		c-16.5-0.9-33.1-1.2-49.5-3.9c-2.5-0.4-4.9-1-7.3-1.7c-2.7-0.8-4.4-2.4-4.9-5.4c-0.6-4-2.5-7.4-4.7-10.8
		C4.1,638.4,3.1,637.2,3.4,635.5z"/>
	<path class="st1" d="M646.8,775.8c-10.2,0-20.4,0-30.7,0c-0.1-0.4-0.1-0.6,0.3-0.8c0.8-0.5,1.8-0.5,2.7-0.5c8.2,0,16.5,0,24.7,0
		c0.9,0,1.8,0,2.7,0.5C646.9,775.2,646.9,775.4,646.8,775.8z"/>
	<path class="st2" d="M679,775.8c-6.9,0-13.7,0-20.6,0c-0.1-0.3-0.1-0.6,0.3-0.8c0.8-0.5,1.8-0.5,2.7-0.5c4.9,0,9.8,0,14.7,0
		c0.9,0,1.8,0,2.7,0.5C679,775.2,679.1,775.4,679,775.8z"/>
	<path class="st3" d="M658.3,775.3c0,0.1,0,0.3,0,0.4c-3.9,0-7.7,0-11.6,0c0-0.2,0-0.3,0-0.5c2.4-1.6,5.2-0.6,7.8-0.8
		C655.8,774.4,657.2,774.2,658.3,775.3z"/>
	<path class="st4" d="M602.1,775.8c-3.2,0-6.4,0-9.5,0c-0.2-0.3-0.1-0.6,0.2-0.8c3-0.7,6.1-0.7,9.1,0
		C602.1,775.2,602.2,775.5,602.1,775.8z"/>
	<path class="st5" d="M574.9,775.8c0-0.2,0-0.3,0-0.5c2.9-1.4,5.8-0.9,8.8-0.3c0.3,0.2,0.4,0.5,0.2,0.8
		C581,775.8,577.9,775.8,574.9,775.8z"/>
	<path class="st6" d="M584,775.8c0-0.1,0-0.3,0-0.4c2.8-1.4,5.7-1.3,8.6,0c0,0.2,0,0.3,0,0.5C589.7,775.8,586.8,775.8,584,775.8z"/>
	<path class="st6" d="M602.1,775.8c0-0.2,0-0.3,0-0.5c2.4-1.3,4.8-0.9,7.3-0.3c0.3,0.2,0.4,0.5,0.2,0.8
		C607.1,775.8,604.6,775.8,602.1,775.8z"/>
	<path class="st3" d="M609.6,775.8c0-0.1,0-0.3,0-0.4c2.2-1.2,4.3-1.2,6.5,0c0,0.2,0,0.3,0,0.5C614,775.8,611.8,775.8,609.6,775.8z"
		/>
	<path class="st7" d="M679,775.8c0-0.1,0-0.3,0-0.4c1.7-1.2,3.3-1.1,5,0c0,0.2,0,0.3,0,0.5C682.3,775.8,680.6,775.8,679,775.8z"/>
	<path class="st8" d="M384,93.6c-0.4,0.1-0.8,0.1-1.2-0.2c0.4-0.6,1-0.8,1.7-0.8C384.3,93,384.1,93.3,384,93.6z"/>
	<path class="st9" d="M425.6,145.4c0.2,0.2,0.4,0.4,0.6,0.6c-0.1,0.4-0.5,1-0.7,0.8C424.8,146.4,425.1,145.8,425.6,145.4z"/>
	<path class="st10" d="M277,81.7c-0.2-0.2-0.4-0.5-0.7-0.7c0.2-0.4,0.6-0.8,0.9-0.5C277.6,80.8,277.4,81.3,277,81.7z"/>
	<path class="st11" d="M972,311.3c-0.2,0.1-0.6,0.1-0.6-0.1c-0.1-0.5,0.4-0.3,0.6-0.3C972,311,972,311.2,972,311.3z"/>
	<path class="st12" d="M975.5,368.7c0.1-0.3-0.3,0,0-0.2c0.2-0.1,0.2-0.1,0.2,0.1C975.6,368.9,975.7,368.5,975.5,368.7
		C975.5,368.6,975.5,368.7,975.5,368.7z"/>
	<path class="st0" d="M684,775.3c-1.7,0-3.3,0-5,0c-6.9,0-13.8,0-20.7,0c-3.8,0-7.7,0-11.5,0c-10.2-0.2-20.4-0.3-30.6,0
		c-2.2,0-4.3,0-6.5,0c-2.5,0-5,0-7.6,0c-3.2,0-6.4,0-9.6,0c-2.9,0-5.7,0-8.6,0c-3,0-6,0-9,0c-4.6-0.2-9.2-0.3-13.8-0.6
		c-9.9-0.7-19.8-1.2-29.6-2.9c-1.7-0.3-3.4-0.7-5.1-1.4c-0.6-0.3-1.3-0.6-1.2-1.4c0.1-0.8,0.7-1.1,1.3-1.4c1.3-0.5,2.7-0.8,4.2-0.8
		c4.5-0.2,9,0.1,13.5,0.8c1.2,0.2,1.9-0.2,2.5-1.1c1.4-2.1,2.9-4.1,4.3-6.2c0.7-1.2,1.6-1.5,2.9-1.4c10,0.8,20.1,0.3,30.1,0.4
		c4.4,0,8.7-0.1,13.1,0c8.7,0.1,17.4-0.8,26.1-0.3c5.5,0.3,11-0.1,16.5,0.8c0.5,0.1,1,0,1.5,0.1c3.4,1.3,7,1.3,10.6,1.6
		c4.7,0.4,9.4,0.1,14,0.4c7.5,0.4,15,0.6,22.4,2.5c2.2,0.5,4.4,1.3,6.2,2.6c1.4,1,3,2.2,2.7,4.2c-0.4,1.9-2.2,2.3-3.8,2.8
		C690.2,774.8,687,774.8,684,775.3z"/>
	<path class="st13" d="M872,517.4c0,33.6-4.8,66-13.8,96.6H221.8c-9-30.6-13.8-63-13.8-96.6C208,331.1,356.6,180,540,180
		S872,331.1,872,517.4z"/>
	<path class="st0" d="M502.3,748.2c-6.2,0-12.4-0.2-18.6,0.1c-5.1,0.3-10.2,0.3-15.3,0.3c-3.9,0-7.7-0.4-11.5-1
		c-1.4-0.2-2.7-0.7-4-1.4c-1.2-0.7-1.8-1.6-1.8-3c0-1.4,0.9-2.1,2-2.6c1.9-0.8,3.9-1.1,5.8-1.4c1.6-0.3,3.3-0.5,5-0.5
		c6.7-0.2,13.4-0.7,20.1-0.5c8.2,0.3,16.4,0.6,24.5,1c7.6,0.4,15.2,0.9,22.7,1.5c7,0.5,14,1.3,21,1.9c6.7,0.5,13.3,1.2,19.8,2.6
		c1.3,0.3,2.6,0.6,3.8,1.2c0.4,0.2,1,0.5,1,1.1c0,0.7-0.7,1-1.2,1.1c-1.1,0.3-2.3,0.6-3.4,0.6c-4.7,0.1-9.3,0.8-14,0.4
		c-6.3-0.5-12.7-0.1-19-0.5c-4.4-0.3-8.9-0.1-13.3-0.4C518,748,510.2,748.2,502.3,748.2z"/>
	<path class="st0" d="M763.1,746.2c-4.8-0.5-9.6-1-14.3-1.5c-3.6-0.4-7.3-0.7-10.9-1.1c-8.7-1-17.4-2.1-25.9-4.1
		c-1.3-0.3-2.6-0.7-3.7-1.4c-0.8-0.6-0.8-1.2,0-1.8c0.6-0.3,1.2-0.6,1.8-0.7c3.2-0.9,6.6-1.2,9.9-1.4c5.2-0.4,10.5-0.7,15.8-0.7
		c9.4,0.1,18.9,0,28.3,0.1c2.6,0,5.2,0.2,7.7,1c3.4,1.1,4.2,3.3,1.9,6C771,743.9,767.6,746.3,763.1,746.2z"/>
	<g>
		<path class="st12" d="M500.4,180.7c-3,2.5-5.3,5.6-7.6,8.6c-0.5,0.6-0.7,1.3-1,2c-1.1,2.5-0.4,4,2.2,5c1.2,0.5,2.6,0.4,3.8,1.2
			c-0.1,0.3-0.2,0.5-0.4,0.7c-3.2,2.9-7.1,3.9-11.3,3.8c-2.3-0.1-4.1-1.3-5.4-3.2c-0.5-0.7-1.2-1.2-1.6-1.9c-0.4-1-1.6-0.9-2-1.7
			c-0.4-0.7,0.5-1.5,0.2-2.4c-0.3-0.9-0.7-1.6-1.7-2c-3.8-1.4-7.7-2.7-11.7-3.6c-1.2-0.6-2.6-0.7-3.9-0.9c-3.2-0.6-7.7-3.4-9.9-6.4
			c3.7,0.4,7.3,0.9,10.7,2.5c2.3,1.1,4.7,1.6,7.2,1.9c1.6,0.2,3.1,0.4,4.6,1.1c2.2,0.2,4.1,1.3,6.1,2.3c4.1,2,6.9,1.3,9.6-2.2
			c0.9-1.2,1.9-2.3,3.2-3.1c4.9-4.2,9.9-8.2,16.1-11C506.4,175.6,503.7,178.4,500.4,180.7z"/>
		<g>
			<path class="st12" d="M291,4.2c4.9,5.5,6.5,12.1,7,19.2c0.2,3.2,0.3,6.4,0.5,9.5c0.2,2.3,0.7,4.4,1.5,6.6c0.4,1,0.9,1.4,2.1,1.1
				c1.3-0.3,2.5-0.8,3.6-1.7c1.2-1,2.5-2,4-2.6c0.5-0.2,1.1-0.4,1.7-0.4c2.2,0,4.4,0.5,6.6-0.5c0,1.1-0.7,1.2-1.1,1.5
				c-1.6,1.2-3,2.6-4,4.4c-1.5,2.8-3.4,5.4-5.9,7.4c-0.9,0.7-1,1.3-0.4,2.3c1.9,3,3.9,5.8,6.8,8c4,3.2,7.7,6.9,11.5,10.7
				c-1.8,1.3-3.5,0.7-5.1,0.1c-1,2.4-1.2,2.5-4.5,1.6c-0.7,0.1-0.4,0.8-0.6,1.2c-0.3,0.8-1,1.3-1.8,0.9c-0.9-0.5-1.7-0.7-2.2,0.5
				c-0.1,0.2-0.4,0.4-0.6,0.4c-0.4,0.1-0.9,0.3-1.2,0.2c-1.7-0.8-3.7,1.2-5.2-0.7c-0.7-0.9-1.8-1.1-2.9-1.5
				c-4.3-1.5-7.7-3.9-9.7-8.2c-0.1-0.2-0.3-0.4-0.6-0.7c-1.7,2.8-4.2,4.8-6.6,6.7c-1,0.8-1.7,0.8-2.5-0.2c-2.8-3.2-4.2-6.8-3.8-11.1
				c0.2-1.9,1.1-3.1,2.9-3.7c1.8-0.6,3.4-1.4,4.9-2.5c0.7-0.5,1-1,0.5-1.9c-1.2-2.1-1.3-4.4-1.4-6.8c-0.2-7-0.9-14-2.1-20.9
				c-0.2-1.2-0.3-2.3-0.4-3.5c-0.1-0.6,0-1.3,0.7-1.3c1.2,0,1.2-0.5,1-1.4c-0.2-0.6-0.3-1.3-0.4-2c-0.2-1.3,0-1.4,1.7-1.5
				c0-0.2,0-0.5,0-0.7c-0.6-3-0.5-3.2,2.7-2.7c-0.3-0.8-0.5-1.4-0.7-2.1c-0.2-0.7-0.3-1.5,0.4-2.1c0.8-0.7,1.4-0.1,2,0.3
				c0.2,0.1,0.4,0.2,0.8,0.4c0.4-0.8,0-1.9,0.6-2.6C290.6,4.2,290.8,4.2,291,4.2z"/>
			<path class="st12" d="M972,311.3c0.8,0.2,1.6,0.3,2.4,0.6c0.8,0.3,1.6,0.7,1.6,1.7c0,0.9-0.5,1.6-1.3,2c-1.2,0.7-2.7,1-4,1.4
				c0.3,1,1.3,1,1.9,1.5c1.3,1,1.3,1.8-0.1,2.8c-0.5,0.4-1.2,0.7-1.8,1c-0.5,0.3-1.1,0.5-1.6,0.7c0.1,0.2,0,0.4,0.1,0.4
				c1.9,1.3,2,1.6,0.1,2.8c-1.3,0.8-2.8,1.5-4.1,2.2c0,0.7,0.6,0.8,0.9,1.1c0.6,0.8,0.5,1.6-0.3,2.1c-1,0.6-2,1.2-3,1.8
				c-8.9,4.9-17.6,10-25.7,16.2c-0.5,0.4-1.1,0.8-1.6,1.2c-2.4,2.4-5.4,3.6-8.7,4.1c-1.3,0.2-1.7,0.8-1.6,2c0.2,2.6,0.5,5.2,1.5,7.6
				c1.2,2.9,0.5,5.4-1.7,7.3c-4.7,4.1-10.2,5.5-16.3,4.9c-1.5-0.2-1.4-1.2-1.5-2.2c-0.1-4.7-0.1-9.4,1.8-13.8
				c-0.8-0.4-1.5,0.1-2.2,0.3c-6.2,1.2-11.8-0.5-16.9-3.8c-1.4-0.9-2.8-1.7-4.5-2.1c-1.1-0.3-2.2-0.8-3-1.7
				c-0.8-0.8,0.5-1.9-0.3-2.4c-0.7-0.4-1.6-0.5-2.1-1.2c-0.9-1.4-0.8-2.7,0.2-4.1c-1.1-0.7-2.8-0.6-3.2-2.1c-0.4-1.4,0.9-2.1,1.6-3
				c-0.4-0.9-1.4-1.1-2.1-1.7c-2.2-1.9-2.3-3-0.3-5c-4-2.9-4.2-3.1-4.7-5.8c2.9,0,5.6,0.6,8.4,0.9c5.3,0.8,10.6,1.5,15.8,2.8
				c4.5,1.1,9,0.4,13.5-0.1c0.9-0.1,1.5-0.4,1.5-1.5c0.2-5.8,2-11.2,4.1-16.5c0.3-0.8,0.4-1.6,0.4-2.5c0-2.1,0-4.2,0-6.4
				c1.2,0.6,1.6,1.7,1.9,2.8c0.3,1.2,0.8,2.1,1.9,2.8c2.4,1.8,3.7,4.3,3.8,7.3c0,1.4,0.3,2.9,0.1,4.3c-0.4,2.4,0.8,4.2,1.8,6.1
				c0.5,0.9,1.2,1.1,2.1,0.8c1.2-0.4,2.4-0.8,3.5-1.3c3.8-1.8,7.4-3.8,10.7-6.5c5.7-4.5,11.8-8.3,18.4-11.1
				c4.3-1.8,8.9-2.3,13.5-2.3c0.3,0,0.7,0,1,0.1c0.9,0.2,1.1,0.7,0.6,1.5c-0.6,0.9-1.6,1.2-2.5,1.6c-0.2,0.2-0.6,0.2-0.9,0.2
				C971.4,311.1,971.7,311.1,972,311.3z"/>
			<path class="st12" d="M384,93.6c0.6,0.2,1.3,0.3,1.9,0.6c1.9,0.8,2.1,2.3,0.4,3.6c-0.6,0.4-1.3,0.7-2,0.9
				c-0.7,0.3-1.4,0.4-2.2,0.7c0.5,0.9,1.4,1,2,1.5c1.2,1,1.2,1.7-0.1,2.6c-1.1,0.7-2.3,1.3-3.5,1.9c0.1,0.2,0.2,0.3,0.3,0.4
				c1.8,1.3,1.9,1.5,0,2.7c-1.3,0.8-2.8,1.5-4.1,2.3c0,0.2,0,0.4,0.1,0.5c1.6,1.8,1.6,2.1-0.5,3.3c-1.9,1.2-3.9,2.3-5.9,3.4
				c-9,4.9-17.5,10.4-25.5,16.9c-1.8,1.4-3.9,1.9-6,2.4c-2.3,0.5-2.3,0.5-2.1,2.9c0.2,2.3,0.6,4.6,1.5,6.8c1.1,2.6,0.5,4.9-1.5,6.9
				c-3.2,3.2-7.3,4.7-11.7,5.2c-1.5,0.2-3,0.1-4.5,0c-1.7-0.1-1.8-0.2-1.9-2c-0.1-4.7-0.1-9.5,1.8-14.2c-2.5,0.5-4.8,1-7.2,0.8
				c-4.3-0.3-8.2-1.6-11.8-3.9c-1.6-1-3.1-1.9-4.9-2.3c-1-0.2-1.8-0.8-2.6-1.4c-1-0.8,0.2-2.1-0.5-2.6c-0.8-0.6-1.9-0.7-2.3-1.7
				c-0.6-1.3-0.3-2.4,0.5-3.7c-1-0.7-2.6-0.5-3.1-1.9c-0.5-1.5,0.9-2.2,1.6-3.4c-0.7-0.5-1.5-1-2.2-1.6c-2.2-1.7-2.2-2.9-0.1-5
				c-2.2-1.3-4.4-2.7-4.9-5.7c1.9-0.4,3.7,0.2,5.4,0.4c6.4,0.9,12.8,1.7,19,3.2c4.5,1.1,9,0.4,13.5-0.2c1-0.1,1.4-0.6,1.4-1.6
				c0.2-4.8,1.2-9.5,3.2-13.9c1.2-2.9,1.5-5.8,1.3-8.8c0-0.8-0.1-1.5-0.1-2.4c1.4,0.4,1.7,1.7,2,2.7c0.3,1.2,0.9,2,1.9,2.8
				c2.4,1.9,3.7,4.5,3.8,7.6c0,1.7,0.3,3.3,0.1,5c-0.3,2.2,1.1,3.8,2.1,5.5c0.3,0.6,1,0.5,1.6,0.4c0.8-0.2,1.6-0.5,2.4-0.8
				c4.2-1.8,8.2-4,11.9-6.9c6-4.7,12.4-8.8,19.6-11.6c4-1.5,8.1-1.8,12.3-2c0.2,0,0.5,0,0.7,0.1c1.3,0.2,1.6,0.8,0.8,1.8
				c-0.3,0.4-0.8,0.6-1.2,0.9c-0.5,0.3-1,0.5-1.5,0.8c-0.3,0,0,0.4,0,0.1c0-0.1,0.2-0.2,0.4-0.2C383.6,93.4,383.8,93.5,384,93.6z"/>
			<path class="st12" d="M720.1,116.9c2.8-2.8,2.9-2.8,4.7,0.4c0.1,0.2,0.3,0.4,0.4,0.5c0.6,0,0.7-0.5,1-0.7
				c0.9-0.7,1.7-0.6,2.4,0.3c0.7,1,1.3,2.1,2,3.2c0.8,0.2,1.1-1.1,1.9-0.7c0.7,0.3,1,1.1,1.3,1.8c0.4,0.8,0.6,1.7,2,1.3
				c1-0.2,1.6,0.6,1.8,1.4c0.3,1.3,0.9,1.5,2.1,1.5c1.2,0,2.2,0.7,3.1,1.6c2.1,1.9,3.5,4.3,4.5,6.9c1,2.4,1.8,4.9,2.5,7.3
				c0.7,2.4,2,4.3,3.8,6c3.6,3.2,6.2,7.2,8.6,11.4c1.4,2.3,2.8,3.1,5.5,3.1c10.5-0.3,21.1,0.3,31.6,1.5c3.7,0.4,7.3,1,10.9,1.6
				c0.6,0.1,1.2,0.2,1.7,0.7c-4.5,1.2-9.1,1.7-13.6,2.7c-7.6,1.7-15.2,0.9-22.7,0.2c-0.8-0.1-1.6-0.1-2.5,0c-3,0.6-6,1.4-9,2.3
				c0.4,0.5,0.9,0.7,1.4,0.9c3,1.1,6,2.2,8.9,3.4c5.4,2.2,11,3.5,16.8,3.6c1.5,0,3,0.3,4.5,0.7c2.3,0.7,3.6,2.6,3.1,4.4
				c-0.6,2.4-2.8,3.9-5.1,3.4c-1.5-0.3-2.9-0.9-4.2-1.7c-2.5-1.5-5-1.7-7.7-0.8c-1.4,0.5-2.9,0.8-4.3,1.3
				c-5.2,1.6-10.6,2.5-16.1,2.2c-5.8-0.3-11.5-0.5-17.2-2c-2.3-0.6-4.4-1.6-6.2-3.1c-2.4-2-4.9-3.8-7.5-5.4c-2-1.2-4-1.4-6.2-0.4
				c-1.4,0.7-2.9,1.3-4.3,2.1c-1.4,0.9-2.4,2-3.8,3.3c0.2-2.5,1.3-4.3,2.9-5.8c0.9-0.8,1.3-1.5,1.4-2.7c0.5-8.2,7.5-10.4,12.7-9.1
				c2.1,0.5,4.1,0.2,6.1-0.1c0.3-0.5,0-0.8-0.1-1.2c-2.7-5.6-5.6-11.1-9-16.2c-1.4-2.1-3.1-3.9-4.9-5.6c-6.6-6.1-9.8-13.6-9.2-22.6
				c0.1-1.3,0.5-2.6,1.1-3.8c0.7-1.4,1.2-1.4,2.1-0.3C719.6,116,719.8,116.4,720.1,116.9z"/>
			<path class="st12" d="M425.6,145.4c0.3-1.8,1.3-3.3,2.7-4.4c0.9-0.7,1.2-1.5,1.3-2.6c1-7.5,6-10.9,13.4-9.1
				c1.9,0.5,3.6,0,5.4-0.2c0.3-0.8-0.2-1.4-0.4-1.9c-2.3-4.7-4.7-9.2-7.5-13.6c-1.9-3-4.1-5.6-6.7-8c-6-5.5-8.7-12.5-8.8-20.6
				c0-1.8,0.3-3.5,1.1-5.1c0.8-1.7,1.3-1.7,2.3-0.2c0.2,0.3,0.3,0.6,0.5,0.9c0.2-0.1,0.4-0.1,0.5-0.2c2.5-2.5,2.5-2.5,4.3,0.7
				c0.1,0.2,0.3,0.4,0.4,0.6c2.5-1.8,2.7-1.8,4.3,0.9c0.4,0.6,0.8,1.3,1.1,1.9c2-1.2,2.1-1.2,3.2,0.8c0.4,0.8,0.7,1.6,2,1.4
				c1.1-0.2,1.7,0.8,1.9,1.7c0.2,1,0.7,1.3,1.7,1.3c1.9-0.1,3.1,1.1,4.2,2.4c2.3,2.6,3.7,5.8,4.8,9c0.5,1.4,1,2.9,1.4,4.3
				c0.7,2.5,2,4.5,4,6.2c2.9,2.5,4.9,5.9,7.1,9c1.1,1.7,1.9,3.9,3.4,4.9c1.7,1,4.1,0.3,6.2,0.3c12.3,0,24.6,0.7,36.8,2.6
				c1.4,0.2,2.9,0.5,4.9,0.9c-2.2,1.1-4,1.2-5.7,1.5c-4.5,0.8-9.1,1.6-13.6,2.3c-1.9,0.3-3.8,0.2-5.8,0.1c-3.2-0.1-6.4-0.1-9.5-0.6
				c-4.7-0.7-8.8,1-13.2,2.6c3.5,1.4,7.1,2.6,10.6,4.1c5.6,2.4,11.4,3.3,17.3,3.5c1.3,0.1,2.7,0.3,3.9,0.8c2.2,0.8,3.1,2.5,2.5,4.5
				c-0.6,2.1-2.7,3.6-4.7,3.3c-1.7-0.3-3.2-1-4.6-1.8c-2.3-1.4-4.7-1.5-7.2-0.7c-3,1-6.1,1.8-9.2,2.6c-4.9,1.3-9.9,1.1-15,0.8
				c-4.4-0.3-8.8-0.6-13.2-1.7c-2.6-0.6-4.9-1.7-6.9-3.4c-2.2-1.9-4.6-3.6-7.1-5.1c-2.2-1.3-4.3-1.5-6.7-0.5c-2.6,1.1-5,2.4-6.9,4.5
				C425.7,146.1,425.4,145.9,425.6,145.4z"/>
			<path class="st12" d="M542.8,190.2c-0.2,0-0.3,0-0.5-0.1c-0.7-0.3-1.8-0.3-1.8-1.4c0-0.9,0.9-1.1,1.5-1.4
				c2.8-1.7,5.9-3.1,8.1-5.6c0.7-0.8,1.3-1.5,1.7-2.4c1.5-2.1,2.4-4.4,3.3-6.7c0.6-1.7,0.6-1.7-1.1-2.8c-2.4-1.5-4.7-3.2-6.7-5.2
				c-0.6-0.6-1.2-1.2-1.6-2c-1.2-2.8-3.4-3.4-6.1-3.5c-0.2,0-0.5-0.1-0.7-0.1c0-0.5,0.4-0.8,0.8-0.9c1.4-0.4,2.8-0.8,3.4-2.5
				c0.4-1,1.6-1.1,2.6-1.1c1.8,0.1,3.5,0.6,4.9,1.7c2.1,1.6,4.5,2.2,6.9,2.8c1.1,0.2,1.9-0.1,2.4-1.2c2.5-4.8,4.7-9.6,4.5-15.2
				c-0.1-3.3,1.3-6.1,3.6-8.6c5-5.6,9.4-11.8,13.5-18.1c0.7-1.1,1.3-2.1,1.6-3.4c0.1-0.6,0.3-1.2,1.1-1.2c0.6,0,1.1,0.4,1.4,0.9
				c0.3,0.4,0.6,0.9,0.6,1.3c0.1,1.3,0.2,2.5,2,2.7c0.7,0.1,0.7,1.2,0.7,2c0,1.3-0.7,2.5-0.9,4c1,0.2,2.3-0.7,2.9,0.3
				c0.7,1.1-0.4,2-0.9,2.9c-0.4,0.7-0.9,1.4-1.2,1.9c0,0.4,0.1,0.4,0.3,0.5c0.8,0.1,1.9-0.5,2.3,0.4c0.5,1-0.5,1.7-1.1,2.4
				c-0.4,0.5-0.9,1-1.3,1.4c0.3,0.7,0.9,0.4,1.3,0.5c0.6,0.2,0.8,0.6,0.5,1.2c-0.1,0.2-0.2,0.3-0.2,0.4c-2.5,4.5-3.4,9.4-3.7,14.5
				c-0.2,2.4-0.6,4.8-1.1,7.2c-0.6,3.1-1.9,5.9-4,8.3c-1.3,1.5-2.5,3.1-3.8,4.7c-0.9,1.2-0.9,1.5,0.3,2.4c1.6,1.3,3.4,1.3,5.2,0.7
				c2.6-0.8,4.9-2.2,7.2-3.6c1.6-1,1.6-1,2.8,0.6c1.5,2,2.7,4.2,3.5,6.6c0.9,2.8,1.1,5.6-0.2,8.3c-0.7,3.2-2.7,5.3-5.5,6.9
				c-2.9,0.7-3.6,0.4-4.2-2.4c-0.6-3.4-2.3-5.6-5.8-6.3c-0.5-0.1-0.9-0.2-1.4-0.4c-0.4-0.1-0.9-0.3-1.3-0.3c-0.6,0-1.1,0-1.7,0.1
				c-3.2,1-4.7,3.5-5.9,6.3c-0.6,1.3-0.9,2.7-1.5,3.9c-2.7,4.1-6.5,6.1-11.2,6.7c-1.3,0.2-2.4-0.4-3.6-0.9c-2.9-1.2-5.5-3-8.6-3.7
				c-1.3-0.3-2.6-0.6-2.3-2.4C544.2,190.2,543.2,190.6,542.8,190.2z"/>
			<path class="st12" d="M883.6,256.9c0.5-1.2,1.2-1.8,2.1-2c1.7-0.3,2.5-1.5,3.2-2.8c0.8-1.4,2-2.1,3.7-2.3
				c1.8-0.2,3.7-0.1,5.8-0.8c-1.3-3.4-2.7-6.7-5.5-9c-2.7-2.2-4.8-4.9-6.5-7.9c-2.1-3.5-1.9-7.2-1.1-10.9c0.2-0.7,0.3-1.6,1.2-1.8
				c1.1-0.2,1.4,0.7,1.7,1.5c0.1,0.2,0.2,0.4,0.4,0.8c0.6-0.2,1-1.2,1.8-0.9c0.7,0.3,0.9,0.9,1.2,1.5c0.3,0.7,0.5,1.5,1.4,0.5
				c0.4-0.4,1,0.1,1.2,0.5c0.4,0.7,0.8,1.5,1.2,2.2c2.3-0.4,2.3-0.4,3.5,1.6c0.2,0.3,0.3,0.6,0.5,0.9c4.4,5.1,8.5,10.6,13.7,15
				c1.4,1.2,1.4,1.3,3,0.2c2.9-2,5.8-3.9,8.5-6.2c1.4-1.2,3.1-1.9,4.8-2.7c3-1.5,6-3,9-4.5c2.7-1.3,5.3-2.9,7.7-4.7
				c0.9-0.7,1.8-1.2,2.8-1.7c0.7-0.3,1.5-0.5,2.1,0.3c0.5,0.6,0.4,1.2,0.1,1.9c-0.2,0.4-0.4,0.7-0.6,1c0.3,0.8,1.5,0.5,1.6,1.5
				c0.1,0.7-0.2,1.3-0.6,1.8c-0.2,0.3-0.7,0.6,0,0.9c1.2,0.7,0.8,1.5,0,2.2c-0.6,0.5-0.7,0.8-0.3,1.6c0.5,0.8-0.4,1.5-1.1,2
				c-0.5,0.4-1.3,0.6-0.7,1.6c0.3,0.6-0.5,1-1.1,1.2c-2.4,0.6-3.9,2.4-5.5,4.1c-1.5,1.6-3.3,2.8-5.3,3.7c-2.5,1.2-4.9,2.5-7.5,3.6
				c-2.4,1-3.3,3.2-4.5,5.2c-0.3,0.6,0,1,0.5,1.2c3.2,1.9,6.3,3.9,10.2,3.7c0.8,0,1.7,0.1,2.5,0.2c2.8,0.3,3.2,0.7,3.9,3.4
				c0.5,2.1,0.6,4.1-0.6,6.1c-0.5,0.8-1,1-1.8,0.5c-0.3-0.2-0.7-0.4-1.1-0.6c-5-2.9-10.4-4.5-16.3-4.1c-3.9,0.2-7.8-0.4-11.7-1
				c-4.1-0.7-7.8-2.3-11.5-4.2c-2-1-4-2.1-6-3.2C890.5,256.6,887.2,256,883.6,256.9z"/>
			<path class="st12" d="M796.6,206.4c1.9-0.7,2.2-0.5,2.3,1.3c0,0.4,0,0.8,0,1.3c0.1,0.4,0.1,0.8,0.8,0.4c0.9-0.5,1.2,0,1.3,0.9
				c0.1,1.1,0.1,2.2,0.1,3.2c0.2,0.5,0.5,0.5,0.9,0.4c1.1-0.3,1.5,0.2,1.6,1.3c0.3,2.9,0.6,5.8,0.8,8.7c0.4,5.9,1.5,11.8,2.9,17.5
				c0.4,1.7,0.2,3.3-0.1,5c-0.4,1.8-0.3,1.8,1.5,2.5c1.6,0.6,3.2,1,4.9,1.1c2.2,0.1,3.4,1.4,4,3.3c1.2,4.1,0.6,8.1-1.5,11.9
				c-0.5,1-1.1,1-2,0.6c-3-1.3-5.9-2.7-8.3-5c-0.8,0.3-0.6,1-0.7,1.5c-1.1,3.9-3.4,6.9-6.7,9.1c-1.4,0.9-2.8,1.9-3.9,3.2
				c-0.8,0.9-1.8,1.6-3,0.6c-1.5,1.2-3,1.3-4.5-0.1c0,0-0.3,0.1-0.4,0.2c-2,1.1-2,1.1-3.4-1c-1.2,0.4-2.2,1.5-3.6,1.2
				c-0.8-0.2-0.9-0.9-1.3-1.6c-0.8,0.4-1.6,0.8-2.4,1.2c-0.9,0.4-1.8,0.3-2.6,0.1c-0.1-0.8,0.3-1.2,0.6-1.7
				c2.7-4.4,5.5-8.8,8.7-12.9c2.1-2.7,3.1-5.9,4.2-9.1c0.2-0.7,0.1-1.1-0.6-1.4c-3.8-1.8-6.7-4.7-9.5-7.6c-0.7-0.7-1.5-1-2.3-1.4
				c-1-0.4-1.9-0.9-3.3-1.5c3.2-0.6,5.9-1.2,8.6-1.4c1.9-0.2,3.6,0.8,5.2,1.7c1.2,0.6,2.4,0.8,3.6,0.7c1.2,0,1.8-0.6,1.9-1.8
				c0.3-3.3,0.1-6.5-0.6-9.7c-1.2-5.2-2-10.3-2-15.6c0-3.6,1-6.9,2.4-10.2c0.2-0.5,0.4-1.3,1.1-1.2c0.9,0,0.9,0.8,0.9,1.5
				c0,0.2,0.1,0.4,0.2,0.7c1-0.5,1.3-2,2.7-1.6c1,0.3,1.1,1.4,1.2,2.3C795.9,205.4,795.3,206.3,796.6,206.4z"/>
			<path class="st12" d="M832.6,363.2c-1.8,4.1-4,8-6.6,11.8c-1.8,2.6-2.9,5.5-3.8,8.4c-0.4,1.2-0.1,1.9,1,2.4
				c1.4,0.7,2.7,1,4.3,0.7c3-0.6,5.8,0,8,2.4c0.5,0.6,1,0.8,1.7,0.9c0.6,0.1,1.3,0.4,1.8,1.1c-0.7,0.6-1.6,0.4-2.3,0.3
				c-1.6,0-3.1,0.3-4.6,1c-3.1,1.6-6.3,2.8-9.7,3c-1.3,0.1-1.6,0.8-1.7,2c-0.2,3.7,0.2,7.3,1.3,10.9c1.4,4.4,2,8.9,3.1,13.4
				c0.1,0.4,0.1,0.9-0.2,1.2c-0.4,0.3-0.8,0.1-1.2-0.1c-0.4-0.3-0.9-0.5-1.3-0.8c-0.9-0.7-1.7-1-3.1-0.8c-0.6,0.1-1.2-0.2-1.6-0.6
				c-0.5-0.5-1-1.1-1.5-1.7c-0.7,0.4-1.4,0.9-2.1,1.3c-1.6-0.7-3.6-0.8-5-2.1l0,0c-2.2-0.7-3.7-2-4.7-4.2c-0.8-1.8-2.3-3.1-3.1-4.9
				c-1.1-2.3-1.7-4.7-1.5-7.3c0.1-1.6-0.3-2.4-2.1-1.8c-1.7,0.6-3.4,0.7-5.2,0.7c-3.1,0.1-4.2-0.9-4.3-4c0-0.7,0-1.3,0.1-2
				c0-0.2,0.1-0.5,0.2-0.7c0.5-1.5,0.8-3,1.4-4.4c0.1-0.2,0.2-0.4,0.3-0.7c1.5-2.4,3.3-4.1,6.5-3.5c0.2,0,0.5,0.1,0.7,0.1
				c1,0.4,2.1,0.3,3.1,0.4c0.2,0,0.4,0.1,0.7,0.1c1.1,0.4,1.5-0.4,1.8-1.2c0.4-1.1,0.5-2.3,1-3.3c0.2-0.4,0.4-0.8,0.6-1.2
				c0.4-0.5,0.7-1,1.1-1.6c0.5-0.7,1-1.4,1.4-2.1c0.4-0.6,0.7-1.3,1.1-1.9c0.4-0.5,0.7-1,1-1.6c0.6-1.1,1.3-2,1.8-3.1
				c0.1-0.2,0.2-0.4,0.3-0.6c1.8-3.6,3.6-7.2,5.4-10.8c0.6-1.1,1.1-2.3,2.6-2.4c0.5,0,1-0.3,1.2-0.8c0.7-2.5,3.7-2.4,4.9-4.4
				c0.1-0.1,0.5,0,0.7,0.1c0.8,0.3,1.1,1,1.8,1.7c0.3-0.8,0.5-1.5,0.7-2.1c0.3-0.8,0.7-1.6,1.7-1.6c0.9,0,1.2,0.8,1.4,1.5
				c0.1,0.3,0.3,0.6,0.5,1c0.2-0.3,0.3-0.5,0.4-0.7c0.3-0.6,0.5-1.4,1.4-1.1c0.6,0.2,0.5,1,0.6,1.5
				C835,355.4,834.3,359.4,832.6,363.2z"/>
			<path class="st12" d="M858.4,440c-0.8-0.5-1.8-1-1.4-2.3c0.2-0.7-0.4-0.8-0.7-1.1c-0.6-0.5-1.1-1.1-0.4-1.9
				c0.4-0.5,0-0.9-0.3-1.3c-0.4-0.8-0.6-1.6,0.5-2c0.7-0.3,0.3-0.6,0-0.9c-0.9-0.8-0.9-1.7-0.3-2.7c1.2-0.2,2.4,0.1,3.4,0.7
				c4.5,2.7,9.4,4.4,14.4,5.9c4.5,1.3,8.4,3.7,12.4,5.9c1.3,0.7,2.8,1.9,4,1.8c1.5-0.1,2.2-2.1,3.2-3.3c3.5-4.4,6.5-9.1,9.2-14.1
				c0.2-0.5,0.6-1.1,1-1.1c1.9,0.5,2-1.1,2.5-2.1c0.5-1.1,1.6,0,2-0.5c0.5-0.6,0.3-1.7,1.1-2.1c0.7-0.4,1.2,0.4,1.8,0.6
				c0.4-0.9,0.1-2.3,1.4-2.4c1.2-0.1,1.3,1.3,1.7,2.2c1.2,3.5,1.2,6.9-0.5,10.2c-1.2,2.3-2.5,4.6-4.3,6.5c-2.3,2.5-3.2,5.6-4,8.8
				c1.9,0.4,3.5,0.1,5.2,0.1c1.4,0,2.5,0.4,3.3,1.4c1,1.3,2.1,2.2,3.9,2.5c0.5,0.1,1.1,0.3,1.5,1.2c-0.6,0-1.1,0-1.6,0
				c-2.3,0.1-4.4,0.9-6.4,2.1c-1.1,0.7-2.2,1.5-3.3,2.3c-6.2,5.1-13.5,7.8-21.4,8.6c-5.7,0.6-10.7,2.4-15.2,5.9
				c-1.4,1.1-1.8,1-2.7-0.6c-1.1-2-0.9-4.2-0.3-6.3c0.2-0.8,0.9-1.2,1.6-1.4c1.1-0.3,2.3-0.6,3.4-0.7c3.2-0.4,5.7-2.3,8.1-4.2
				c0.7-0.6,0.9-1,0.3-1.9c-1.3-1.8-2.7-3.4-5-3.9c-1.8-0.4-3.5-1.2-5.2-1.7c-2.9-0.9-5.6-2.3-7.8-4.5c-1.2-1.3-2.9-1.2-4.3-1.8
				c-0.2-0.3-0.3-0.6-0.5-0.9C859.2,440.4,858.6,440.3,858.4,440z"/>
			<path class="st12" d="M633.3,168.8c1.8-0.9,2.8-2.5,4.3-3.6c0.9-0.7,2-0.7,3.1-0.8c0.7-0.1,1.3-0.1,2-0.2c2.9-0.4,3.4-1.4,2.1-4
				c-1-2-2.3-3.9-3.8-5.6c-2.4-2.6-4.4-5.5-6.1-8.6c-1.3-2.4-2-5-2.2-7.7c0-0.5-0.4-1.3,0.5-1.5c0.6-0.1,0.8,0.5,1.2,0.8
				c0.6-0.5,0.4-1.8,1.5-1.8c1.4,0.1,1.3,1.6,2,2.3c1.4-1.4,1.6-1.5,2.6,0.1c0.7,1.1,1.7-0.6,2.3,0.6c0.3,0.7,0.8,2.1,1.4,1.9
				c2.5-0.9,2.6,1.3,3.3,2.4c3.2,4.9,6.5,9.7,10.5,14.1c0.7,0.8,1.1,1.6,1.4,2.6c0.8,2.6,0.9,2.1,3,1.6c0.8-0.2,1.6-0.4,2.4-0.7
				c1.8-0.8,3.3-0.3,4.5,1.1c1.8,2.1,2.7,4.5,2.8,7.3c0,1.2-0.3,1.8-1.7,1.8c-2.2,0-4.5,0.1-6.9-0.3c1.1,4.1,0.3,7.7-1.8,11.1
				c-0.2,0.3-0.2,0.6-0.3,0.9c-0.7,2.1-2.2,3.5-4.5,4c-0.5,0.1-0.8,0.2-0.9,0.7c-0.1,0.4-0.5,1-0.8,0.8c-1.5-0.8-2.2,0.1-3,1.1
				c-0.1,0.1-0.3,0.2-0.4,0.3c-0.7,0.6-1.4-0.8-2,0c-0.4,0.6-0.8,1.3-1.4,1.7c-0.4,0.2-0.7,0.4-1.3,0.2c0.3-4,0.5-8.1,1.1-12.1
				c0.4-2.6,0.2-5.2-0.3-7.7c-0.2-0.8-0.6-1.1-1.4-1.1c-2.7,0.1-5.3-0.6-7.8-1.5C636.9,168.6,635.1,169,633.3,168.8z"/>
			<path class="st12" d="M277,81.7c-0.7,2.5-2,4.8-3.4,6.9c-0.5,0.7-1,1.4-1.7,1.9c-4.4,3.1-7.9,7.2-11.6,11
				c-1.8,1.9-1.8,2.3,0.1,4.5c0.3,0.4,0.6,0.8,0.1,1c-1.1,0.5-0.8,1.5-1,2.4c-0.1,0.5-0.1,1-0.2,1.5c-0.6,3.8-2.6,6.2-6.3,7.3
				c-2.2,0.6-4.4,1.1-6.7,1.1c-1,0-2-0.1-2.9-0.7c-0.1-0.8,0.5-1,0.9-1.3c0.5-0.5,1-0.9,1.5-1.3c2.1-2.2,1.9-4.2-0.4-6
				c-1.8-1.3-3.8-2.1-5.8-2.9c-3.2-1.2-6.4-2.3-9.8-2.8c-2.8-0.5-5.1-2.1-7.6-4.2c3.9-0.4,7.2-0.1,10.5,0.4
				c5.2,0.7,10.4,1.7,15.1,4.3c1.9,1.1,5.4,0,7-1.9c1.5-1.8,2.8-3.8,4.2-5.7c1.2-1.7,2.6-3.2,4.4-4.4c2.3-1.5,4.3-3.4,6-5.6
				c1.9-2.5,4.5-4.3,7-6.1C276.8,81,277.1,81.1,277,81.7z"/>
			<path class="st12" d="M894.6,169.4c-2.1,2.1-4.4,3.8-7.4,4.2c-4.4,0.7-8.5,2.3-12.6,4c-1,0.4-1.9,1.1-2.8,1.7
				c-2.4,1.8-2.6,3.5-0.6,5.7c0.8,0.9,1.8,1.7,2.7,2.6c-0.7,0.8-1.5,0.9-2.3,0.9c-3.1,0.1-6-0.4-8.8-1.6c-3.4-1.4-4.5-4.2-5-7.5
				c-0.2-1.1,0.2-2.4-1.1-3.1c-0.5-0.3-0.1-0.7,0.1-1c1.9-2.3,2-2.5,0.1-4.5c-3.7-3.9-7.4-7.7-11.6-11.1c-3-2.4-4.2-6-5.2-9.7
				c3,2,6,4,8.2,6.9c1.4,1.8,3,3.4,4.9,4.6c2.4,1.5,4.2,3.5,5.8,5.8c1,1.5,2.2,3,3.3,4.5c0.6,0.8,1.4,1.4,2.3,1.8
				c2.1,0.9,4.1,1.1,6.2-0.2c4.5-2.7,9.7-3.1,14.7-3.9C888.5,169.2,891.5,169.1,894.6,169.4z"/>
			<path class="st12" d="M689.1,242.5c-4.8-2.1-9.7-3.6-14.8-4.4c-1.3-0.2-2.4-0.5-3.5-1.2c-2.5-1.4-4.8-2.9-7-5.5
				c4.6,0.8,8.8,1.2,12.5,3.2c1.8,0.9,3.9,1.1,5.8,1.3c2.7,0.2,5,1.2,7.3,2.4c1.6,0.9,3.3,1.7,5,2.3c2.8,1.1,5.8,0.3,7.5-2.2
				c2.7-4,6.3-7.1,10.2-9.8c2.9-2.2,6-4.1,9.8-5.8c-1.4,3.4-2.8,6.3-5.7,8.2c-4.1,3.5-8,7.3-10.4,12.3c-0.9,1.9-0.8,2.5,0.9,3.8
				c0.9,0.7,1.8,1.2,2.9,1.3c0.7,0.1,1.5,0.2,2.1,0.7c0.1,0.8-0.5,1.2-1,1.5c-3.6,2.3-7.4,3.3-11.7,2.9c-0.9-0.1-1.8-0.5-2.4-1.2
				c-1.3-1.3-2.7-2.5-3.7-4.1c-0.2-0.4-0.4-1-1-1c-1.1,0-0.9-0.6-0.8-1.3C691.5,243.6,691.3,243.3,689.1,242.5z"/>
			<path class="st12" d="M847.6,314.8c-0.2,1-0.8,1.5-1.5,1.9c-3.2,1.7-6.5,3-10.3,2.7c-1.9-0.1-3.3-1-4.6-2.3c-0.9-1-1.9-2-2.5-3.1
				c-0.4-0.8-1.1-1.1-1.9-1.2c-0.4-0.6,0.1-1,0.2-1.4c0.4-1.6-0.1-2.6-1.6-3.1c-4.7-1.8-9.4-3.5-14.4-4.3c-2.9-0.4-5.2-1.6-7.5-3.2
				c-1.3-0.9-2.5-1.8-3.9-3.4c4,0.4,7.3,0.9,10.4,2.2c2.7,1.2,5.4,1.8,8.2,2.2c1.9,0.2,3.6,0.7,5.2,1.6c2,1,4,2,6.1,2.9
				c3.1,1.4,6.3,0.6,8.2-2.1c4.9-7,12-11.3,19.4-15.2c-0.8,2.9-2.1,5.4-4.4,7.2c-3.3,2.5-6,5.6-8.7,8.7c-1,1.2-1.8,2.4-2.4,3.8
				c-0.3,0.9-1.3,1.8-0.7,2.8c0.7,1.1,1.6,2.1,3,2.5C845.3,314.2,846.5,314.5,847.6,314.8z"/>
			<path class="st12" d="M975.5,368.6c-0.7,3.9-2.4,7.3-5.5,9.8c-4.2,3.3-8,7.1-11.6,11.1c-1.5,1.6-1.4,2.2,0.1,4
				c0.6,0.7,0.8,1-0.1,1.5c-0.4,0.2-0.4,0.7-0.5,1.1c0,0.4-0.1,0.8-0.1,1.2c-1,5.8-3.1,8.1-9,9.1c-2.4,0.4-4.8,1-7-0.2
				c-0.1-0.9,0.5-1.1,0.9-1.4c0.7-0.6,1.4-1.2,2-1.9c1.7-2.1,1.4-3.5-0.7-5.2c-1.2-1-2.6-1.8-4.1-2.4c-3.7-1.4-7.4-3-11.5-3.6
				c-2.9-0.4-5.2-2.2-7.3-4c0.3-0.8,0.8-0.6,1.3-0.6c8,0.3,15.9,0.9,23.1,4.8c2.6,1.4,6,0.6,7.8-1.7c1.6-2,3-4,4.5-6
				c1-1.4,2.2-2.5,3.6-3.4c2.4-1.6,4.5-3.4,6.3-5.7c2-2.6,4.7-4.5,7.4-6.3C975.1,368.5,975.4,368.6,975.5,368.6L975.5,368.6z"/>
			<path class="st14" d="M491.4,182.2c-1.1,1.4-2.2,2.7-3.2,4.1c-2.2,3-5.5,3.9-9,2.2c-2.2-1.1-4.5-2.2-6.7-3.3
				c3.7-0.2,7.2-1.3,10.8-1.8C486,183.2,488.7,182.7,491.4,182.2z"/>
			<path class="st12" d="M770.9,515.4c5-2.4,8.5-6.5,12-11.1c-2.4,0.3-4.5,0.6-6.2,1.8c-5.2,3.7-11.2,5.9-17.3,7.5
				c-0.2,0.1-0.5,0.2-0.7,0c0.2-0.9,1.4-0.9,1.6-1.7c3.6-2.2,6.9-4.8,10.5-6.8c2.7-1.5,5.3-3.2,8.1-4.5c1.4-0.6,2-1.5,2-3.1
				c-0.1-2.3,0.4-4.7,1.1-6.9c0.7-2.3,0.6-4.5,0.2-6.7c-0.4-1.8-0.3-3.5-0.2-5.2c0.1-0.9,0.3-1.8,0.9-2.6c1.6-2,2.4-4.4,3.6-6.6
				c0.1-0.2,0.1-0.7,0.2-0.7c1.6-0.5,1.5-2.3,2.7-3.1c0.4,0.3,0.7,0.3,1.1,0l0,0c0.4-1.3,1.1-1.4,2-0.5l0,0c0.2,0.1,0.4,0.3,0.5,0.5
				l0,0c0.3,0.2,0.2,0.7,0.6,0.9l0,0c0.1,0.2,0.3,0.4,0.4,0.5l0,0c0.3,0.3,0.2,0.7,0.5,1c0,0,0,0,0,0c1.4,4.5,1.4,8.9-0.3,13.4
				c-1.4,3.9-0.7,8.1-0.7,12.1c0,0.9,0.5,1.2,1.3,0.8c0.6-0.2,1.2-0.6,1.7-1c3.2-2.5,6.6-2.3,8.9,1c0.3,0.4,0.6,0.8,1.2,0.8
				c0.1,0,0.1,0.1,0.2,0.1c1.1,0.2,2.5,0.3,2.2,1.7c-0.2,1-1.5,0.7-2.4,0.6c-2.7-0.4-4.7,0.6-5.6,3.2c-2.3,7-8.5,9.8-14.2,13
				c-1.4,0.7-2.9,0.6-4.3,1l0,0c-0.7,0.8-1.7,0.3-2.5,0.5l-0.2,0l-0.2,0c-0.4,0.4-1.1,0-1.5,0.5l0,0c-0.9,0.8-2.4,0.8-3,2l0,0
				c-0.6,1.2-1.4,2.3-2.6,2.9c-0.9,0.3-1.7-0.1-2.5-0.6C768.2,517.9,768.4,517,770.9,515.4z"/>
			<path class="st12" d="M726.2,468.2c1.7,1,3.2,0.6,4.7-0.5c1,0.1,1.7-0.5,2.3-1.3c0.7-1,1.4-1.9,2-2.9c2.2-3.5,4.9-6.6,8.4-8.8
				c1.4-0.9,2.4-2.1,3.4-3.3c2.3-2.9,5-5.2,8.3-7c-1.1,3.8-2.4,7.5-5.6,10c-4.1,3.3-7.7,7.2-11.3,11c-1.5,1.5-1.2,2.5,0.8,4.8
				c-0.9,0.6-1.3,1.5-1.4,2.6c-0.7,6.7-2.4,7.6-7.4,9.3c-0.4,0.1-0.8,0.1-1.1,0.5c-2.4-0.1-4.9,0.6-7.5-0.4c0.7-1.2,1.6-1.9,2.3-2.6
				c0.7-0.7,1.3-1.5,1.6-2.5c0.2-0.9,0.1-1.8-0.7-2.5c-1.2-1.1-2.4-2.1-3.9-2.7c-4.1-1.5-8.2-3.2-12.7-3.9c-2.9-0.4-5.4-1.9-8-4.4
				c3,0.1,5.5-0.2,7.9,0.2c1.1,0.2,2.1,0.3,3.2,0.3c0.4-0.3,0.7-0.3,1,0.1c1.8,0.6,3.6,1,5.5,0.9C721.3,465,723.9,466.2,726.2,468.2
				z"/>
			<path class="st12" d="M673.9,538.4c-1.1,0.1-2,0.2-2-1.3c0-1.7,0.7-3,1.9-3.1c1.1-0.1,2.2,0,3.3,0c1.4,0,3.2,0.1,3.7-1.5
				c0.4-1.4-0.8-2.6-2.1-3.3c-2.9-1.5-4.7-4.1-6.8-6.5c-1.3-1.5-1.4-3.7-0.6-5.7c1-2.6,1.1-2.7,3.1-0.7c1.1,1.1,2.1,2.1,3.4,2.9
				c3.2,2,5.9,4.6,8.4,7.4c0.8,0.9,1.6,1,2.6,0.3c1.3-1,2.8-1.8,4-3c2.9-2.8,6-5.1,10.3-5.4c0.4,1.2,0.1,2.4,0.1,3.7c0,0,0,0,0,0
				c-0.3,0.3-0.2,0.8-0.5,1c-1.3,1.7-2.8,3.3-4.8,4.4c-1.4,0.8-2.4,2.1-3.1,3.6c1,1.1,2.7,0.6,3.5,1.8c0.7,1,1.1,2.2,2.2,3
				c-2.5-0.6-4.6,0.1-6.7,0.9c-3.2,1.1-6.4,2-9.8,1.1c-0.6-0.2-1.3,0-2-0.1c-0.3,0-0.6,0-0.9,0c-0.6-0.5-1.4,0-2.1-0.4
				C677.2,537.4,675.5,537.5,673.9,538.4z"/>
		</g>
	</g>
	<path class="st15" d="M581.4,181.3c-1.6,0.7-3.1,0.5-4.4-0.5c0.7,0,1.4,0,2,0c0.3,0.1,0.6,0.1,0.8,0.2
		C580.4,181.1,580.9,181.2,581.4,181.3z"/>
	<path class="st16" d="M579.9,181c-0.3,0.1-0.6,0.1-0.8-0.2C579.4,180.7,579.6,180.7,579.9,181z"/>
	<g>
		<linearGradient id="SVGID_1_" gradientUnits="userSpaceOnUse" x1="202.3902" y1="462.7434" x2="465.1735" y2="462.7434">
			<stop  offset="0" style="stop-color:#DE8040"/>
			<stop  offset="1.103646e-02" style="stop-color:#DF8242"/>
			<stop  offset="0.1899" style="stop-color:#E8A063"/>
			<stop  offset="0.375" style="stop-color:#F0B87C"/>
			<stop  offset="0.5667" style="stop-color:#F5C98E"/>
			<stop  offset="0.7691" style="stop-color:#F8D399"/>
			<stop  offset="1" style="stop-color:#F9D69C"/>
		</linearGradient>
		<path class="st17" d="M465.2,461.2c-0.9,0-1.8,0.1-2.7,0c-4.1-0.2-7.7,1-11,3.1c-4,2.5-6.6,6.1-7.8,10.6c-0.5,1.8-0.7,3.7-1.2,5.6
			c-0.4,1.6-0.8,3.2-1.5,4.7c-1,2.3-2.9,3.5-5.5,3.3c-1.7-0.1-3.3-0.1-5-0.1c-3.9,0.1-6,1.9-6.5,5.7c-0.1,0.8-0.1,1.6-0.1,2.4
			c0,0.5,0.1,0.9,0.2,1.3c0.8,3.1-0.4,5.5-2.9,7.4c-2,1.6-4.3,2.9-6.7,3.8c-4.6,1.6-9.4,2.3-14.2,1.2c-5.4-1.2-8.9-5.8-8.5-11.2
			c0.3-3.2,2.1-5.4,5.2-6.4c0.7-0.2,1.4-0.3,2.2-0.4c3.9-0.4,6.4,1.6,7,5.4c0.2,1.1,0.1,2.2,0.2,3.3c0.1,1.1,0.7,1.8,1.6,1.9
			c1,0.1,1.8-0.5,2-1.5c1-5.9-2.1-13.1-10.2-12.9c-7.9,0.2-12.2,5.9-11.9,12.3c0.1,2.4,0.8,4.6,2.1,6.7c0.4,0.7,0.9,1.4,1.4,2.1
			c-0.2,0.6-0.4,1.2-0.7,1.7c-2.8,5.3-6.4,10.1-11.3,13.6c-8.3,5.9-17.4,7.5-27.2,4.4c-5.1-1.6-9.1-4.8-12.2-9.1
			c-1.4-1.9-2.3-4-2.2-6.4c0-0.4,0.1-0.7,0.2-1.2c0.7-0.1,1.3-0.2,1.9-0.2c8.4,0.6,15.9-2.1,22.7-6.8c2.2-1.5,4.2-3.3,6.3-4.9
			c0.5-0.4,0.9-0.9,1.3-1.4c0.5-0.7,0.2-1.6-0.5-2.2c-0.6-0.5-1.4-0.6-2.1-0.2c-0.7,0.5-1.3,1-1.9,1.6c-2.9,2.6-6,4.8-9.5,6.7
			c-5.3,2.8-10.9,4-16.9,3.5c-2.2-0.2-4.4-0.7-6.4-1.6c-4-1.9-6.7-4.8-7.3-9.3c0-0.4-0.1-0.7-0.2-1.1c-0.2-0.7-0.9-1.2-1.7-1.2
			c-0.8,0-1.5,0.4-1.7,1.1c-0.2,0.7-0.2,1.4-0.1,2.1c0.6,4.2,2.8,7.4,6.3,9.9c1.1,0.8,2.4,1.4,3.6,2c0.6,0.3,1.2,0.5,1.7,0.8
			c0,0.3,0.1,0.5,0.1,0.6c-3.1,6.7-7.6,12.4-13.7,16.9c-5,3.7-10.8,5.7-17,6.2c-8.9,0.7-17.4-0.8-25.4-4.8c-3.9-2-7.3-4.7-10.1-8
			c-5.7-6.8-9-13-10.7-23.3c-0.7-4.5-0.7-9.1,0.4-13.6c1.3-5.8,4.2-10.7,8.5-14.7c0.6-0.6,1.3-1,2-1.5c0.8-0.6,1.8-1,2.5-1.7
			c3.9-3.2,8.6-4.6,13.5-5.4c5.5-0.9,10.9-0.8,16.3,0.1c4.5,0.8,8.7,2.6,12.3,5.4c3.7,2.9,6.1,6.6,6.9,11.2c0.4,2.1,0.3,4.2-0.2,6.2
			c-2.1,7.8-6.8,13.4-14.9,16c-3.1,1-6.2,1-9.3,0.3c-7.3-1.8-9.4-8.8-6.9-14.1c1.9-4,5.6-5.3,9.4-4.8c1.7,0.2,2.7,1.1,2.9,2.5
			c0.2,1.6-0.6,2.6-2.2,2.8c-0.5,0.1-0.9,0-1.4,0.1c-0.7,0.1-1.3,0.9-1.3,1.6c-0.1,0.7,0.2,1.3,0.8,1.6c1.2,0.8,2.5,0.8,3.7,0.3
			c2.5-0.9,4-2.6,4.3-5.2c0.3-2.8-0.7-5-3.3-6.4c-1.6-0.9-3.3-1.2-5.1-1.2c-6.2,0.1-11.4,4.5-12.5,10.5c-1.4,7.9,3.5,14.8,11.6,16.2
			c6.9,1.2,13.1-0.4,18.5-4.7c5.2-4.2,8.6-9.5,9.6-16.1c1-6.6-1-12.2-5.5-17.1c-1.9-2.1-4.2-3.8-6.8-5.2c-5-2.7-10.3-4-16-4.3
			c-5.2-0.3-10.4,0-15.5,1.3c-0.3,0.1-0.5,0.1-0.8,0.1c-0.5-0.6,0-1.1,0.2-1.5c3.9-8.6,3.5-17.1-0.5-25.6c-1.3-2.8-3.3-5.3-5.6-7.4
			c-4.8-4.2-10.4-5.5-16.6-4.5c-2.8,0.5-5.4,1.5-7.8,2.8c-3,1.7-5.5,4.1-7,7.2c-1.5,3.2-1.4,6.3,0.7,9.3c0.3,0.4,0.7,0.9,1.1,1.2
			c0.7,0.6,1.6,0.5,2.3,0c0.7-0.5,0.9-1.4,0.5-2.2c-0.2-0.4-0.5-0.8-0.8-1.1c-1.3-1.8-1.2-3.8-0.3-5.7c0.9-1.9,2.3-3.3,4-4.5
			c3.6-2.5,7.6-3.7,12.1-3.5c3.5,0.2,6.5,1.4,9.1,3.7c1.3,1.2,2.5,2.5,3.4,3.9c4.6,7.1,5.6,14.7,2.8,22.7c-0.8,2.3-2,4.3-3.5,6.1
			c-0.6,0.7-1.2,1.4-1.9,2c-4.6,3.3-9.2,6.4-14.9,7.7c-10.8,2.5-21.4,2.1-31.6-2.5c-10.8-4.9-17.8-13.1-20.8-24.5
			c-1.7-6.5-1.2-13,1.3-19.2c0.3-0.7,0.6-1.4,0.9-2c4.8-9.3,11.4-17.2,20-23.4c5.3-3.9,11.3-6.3,17.8-7.4
			c20.5-3.6,38.6,1.3,54.4,14.6c2.1,1.8,3.9,3.9,5.7,6c3.3,4,4.9,8.7,4.9,13.9c0,3.5-0.3,6.9-0.8,10.3c-0.1,0.5-0.2,0.9-0.2,1.3
			c-0.1,1.2,0.6,2,1.7,2.2c0.9,0.1,1.8-0.5,2-1.5c0.2-0.8,0.3-1.6,0.5-2.4c0.3-1.5,0.5-3.1,0.7-4.6c1.3-7.6,6-12.6,13.7-14.3
			c6.3-1.4,12.5-0.8,18.6,1.3c3.1,1.1,6,2.5,8.6,4.4c2.3,1.7,4.4,3.7,5.9,6.1c2.2,3.6,2.7,7.5,1.5,11.5c-0.9,3-2.2,5.8-5,7.6
			c-0.9,0.6-1.7,1.4-2.4,2.2c-0.4,0.5-0.8,1-1,1.6c-0.6,1.8,0.6,3.2,2.5,2.8c1.3-0.2,2.5-0.8,3.7-1.1c1.4-0.4,2.8-1,4.2-1.3
			c3.8-0.9,7.4-0.1,10.7,1.7c2.1,1.1,4,2.7,5.7,4.4c2.5,2.5,4.5,5.3,6.5,8.2c1,1.5,2,3.1,3.2,4.5c1.3,1.5,2.6,3.1,4.1,4.4
			c3.8,3.4,8.5,4.7,13.6,4.4c3.8-0.2,7.3-1.2,10.7-2.7c4.9-2.2,9.4-5,13-9.2c2.3-2.7,5.1-5,8.1-7.1c2-1.4,4.2-2.7,6.5-3.6
			c2.7-1.1,5.6-1.3,8.5-0.7c4.2,0.9,8.1,2.6,11.9,4.6C465.1,460.8,465.1,461,465.2,461.2z"/>
		<linearGradient id="SVGID_2_" gradientUnits="userSpaceOnUse" x1="82.0868" y1="492.6768" x2="261.6615" y2="492.6768">
			<stop  offset="0" style="stop-color:#DE8040"/>
			<stop  offset="1.103646e-02" style="stop-color:#DF8242"/>
			<stop  offset="0.1899" style="stop-color:#E8A063"/>
			<stop  offset="0.375" style="stop-color:#F0B87C"/>
			<stop  offset="0.5667" style="stop-color:#F5C98E"/>
			<stop  offset="0.7691" style="stop-color:#F8D399"/>
			<stop  offset="1" style="stop-color:#F9D69C"/>
		</linearGradient>
		<path class="st18" d="M258.1,473.7c-0.6,1.1-1,1.7-1.4,2.4c-2.6,4.5-4,9.4-4.3,14.5c-0.6,10.4,2.1,20,7.7,28.8
			c0.5,0.8,1,1.5,1.4,2.3c0,0.1,0,0.2,0,0.4c-1.1,1.8-2.7,3.3-4.4,4.7c-3.1,2.6-6.6,4.4-10.6,5c-3.4,0.5-6.7,0-9.7-1.7
			c-1.9-1.1-3.7-2.5-5.5-3.7c-0.8-0.5-1.2-1.3-1.6-2.2c-0.7-1.6-2.1-1.8-3.3-0.6c-0.6,0.6-1.1,1.2-1.7,1.8c-1.4,1.5-2.7,3-4.1,4.5
			c-3.4,3.6-7.7,5.7-12.5,6.6c-8.7,1.7-16.8,0.2-24-5.1c-5.5-4-10.6-8.5-15.4-13.4c-0.2-0.2-0.3-0.4-0.4-0.7
			c0.7-0.4,1.1,0.2,1.5,0.4c3,1.3,5.8,2.9,8.9,3.9c8.6,3.1,17.3,2.9,25.8-0.3c2.9-1.1,5.5-2.6,7.9-4.5c0.5-0.4,1-0.9,1.3-1.4
			c0.4-0.6,0.3-1.5-0.2-2c-0.5-0.6-1.3-0.8-2-0.5c-0.6,0.3-1.1,0.7-1.6,1.1c-6.4,4.9-13.8,6.5-21.7,5.9c-3.6-0.3-7.1-1.2-10.4-2.7
			c-2.8-1.2-5.5-2.6-8.2-4c-4-2-7.9-4-11.9-5.9c-4.9-2.2-10.1-3.1-15.5-2.6c-1.2,0.1-2.4,0.4-3.5,0.8c-3.6,1.2-7,3-10.2,5
			c-2.5,1.6-5,3.2-7.5,4.7c-1.9,1.1-3.9,2.1-6,2.9c-2.9,1.2-6,1.7-9.2,1.5c-4.3-0.3-7.9-1.9-10.7-5.1c-1.6-1.8-2.8-3.9-3.8-6
			c-0.7-1.5-1.4-3-2.1-4.4c-1.6-3.1-3.6-5.9-6.8-7.8c-0.1-0.1-0.2-0.3-0.4-0.6c0.4-0.2,0.8-0.4,1.2-0.5c2.2-0.3,4.4-0.3,6.6,0.6
			c2.3,1,4.7,1.8,6.9,2.8c5.1,2.3,10.3,2.1,15.5,0.7c2-0.5,3.8-1.5,5.4-2.8c1.6-1.4,3.2-2.8,4.5-4.4c1.7-2,3-4.1,4.6-6.2
			c1.3-1.8,2.6-3.6,4-5.2c6.4-7.5,18.4-9.7,27.7-4.9c0.7,0.4,1.4,0.9,2.1,1.3c0,1,0,2,0,2.9c0.1,11.4,7.6,20.4,19,22.6
			c5,1,10,1,14.9-0.5c2.2-0.6,4.2-1.6,6-2.9c5.4-3.9,6.8-10.4,5.4-15c-2-7.1-10.3-11.6-17.3-9.5c-3.2,1-5.5,2.9-7.1,5.7
			c-0.2,0.3-0.3,0.7-0.4,1c-0.3,0.8,0.1,1.7,0.9,2.1c0.7,0.4,1.7,0.3,2.3-0.3c0.3-0.3,0.5-0.7,0.8-1.1c2.4-3.7,5.9-4.7,9.9-3.7
			c4.3,1.1,7.4,4.7,7.6,8.7c0.2,4.2-1.5,7.4-5.1,9.7c-2.2,1.4-4.7,2.2-7.3,2.5c-4.5,0.5-8.9,0.3-13.2-1.3
			c-7.3-2.8-11.2-8.1-12.3-15.5c-0.6-4.4,0.2-8.7,1.9-12.8c1.5-3.7,3.6-7,6.2-10c4.6-5.4,10.7-8.7,17.6-10.2
			c3.3-0.8,6.7-1.4,10.3-1.1c0.3,0.5,0.7,1,0.9,1.6c6,13.5,16.6,21.3,31,24.5c7.8,1.8,15.7,1.6,23.4-0.4
			C256.5,473.9,257,473.9,258.1,473.7z"/>
	</g>
</g>
</svg>
