<?xml version="1.0" standalone="no"?>
<!DOCTYPE svg PUBLIC "-//W3C//DTD SVG 20010904//EN"
 "http://www.w3.org/TR/2001/REC-SVG-20010904/DTD/svg10.dtd">
<svg version="1.0" xmlns="http://www.w3.org/2000/svg"
 width="70pt" height="70pt" viewBox="0 0 3681.000000 2663.000000"
 preserveAspectRatio="xMidYMid meet">

<g transform="translate(0.000000,2663.000000) scale(0.100000,-0.100000)"
fill="#D65B22" stroke="none">
<path d="M33840 26320 c-905 -131 -3713 -536 -6240 -900 -2527 -364 -4596
-663 -4597 -664 -7 -6 1918 -4271 1929 -4275 7 -2 21 -15 31 -28 15 -18 28
-23 65 -23 26 0 2539 360 5585 799 4569 659 5541 801 5557 816 13 12 20 31 20
56 0 54 -618 4339 -629 4366 -5 12 -19 24 -30 28 -11 3 -22 18 -26 35 -4 17
-10 30 -13 29 -4 0 -747 -108 -1652 -239z"/>
<path d="M21880 24601 c-260 -42 -1263 -188 -3335 -486 -2441 -350 -5515 -794
-6724 -970 -463 -67 -798 -120 -802 -127 -9 -14 -92 176 719 -1633 379 -847
793 -1772 920 -2055 217 -487 232 -518 280 -567 36 -36 63 -54 87 -59 23 -4
193 17 483 60 246 36 1655 239 3132 450 2521 362 6149 884 6775 976 700 103
705 104 705 151 0 31 -31 102 -642 1459 -311 690 -704 1568 -874 1950 -294
661 -312 697 -363 753 -104 112 -167 129 -361 98z"/>
<path d="M9545 22819 c-253 -38 -1605 -233 -3005 -434 -3998 -573 -6459 -930
-6466 -938 -1 -1 143 -1004 320 -2229 295 -2049 322 -2228 340 -2228 10 0 27
-11 38 -25 13 -17 29 -25 51 -25 17 0 2405 342 5307 760 2901 419 5419 782
5595 807 176 25 335 51 353 59 28 11 32 18 32 49 0 41 36 -40 -783 1780 -321
715 -691 1539 -822 1832 -232 519 -239 533 -294 589 -31 31 -66 60 -79 65 -42
16 -123 8 -587 -62z"/>
<path d="M850 7890 l0 -7710 21 0 c12 0 34 -13 49 -30 l28 -30 5631 0 5632 0
24 25 25 24 0 1972 0 1971 -30 28 c-17 15 -30 37 -30 49 l0 21 -3215 0 -3215
0 0 5646 0 5646 -30 28 c-17 15 -30 37 -30 49 l0 21 -2430 0 -2430 0 0 -7710z"/>
<path d="M13060 7895 l0 -7705 21 0 c12 0 34 -13 49 -30 l28 -30 2426 0 2427
0 24 25 25 24 0 5494 c0 5395 0 5495 19 5518 l19 24 3139 5 c3134 5 3138 5
3173 25 19 12 43 36 55 55 20 35 20 44 22 2015 2 1089 0 2027 -3 2085 -6 98
-8 105 -35 131 -16 15 -29 36 -29 48 l0 21 -5680 0 -5680 0 0 -7705z"/>
<path d="M25270 7895 l0 -7705 21 0 c12 0 34 -13 49 -30 l28 -30 2421 0 2422
0 24 25 25 24 0 5501 0 5501 25 24 24 25 3166 0 3166 0 24 25 25 24 0 2112 0
2111 -30 28 c-16 15 -30 37 -30 49 l0 21 -5680 0 -5680 0 0 -7705z"/>
</g>
</svg>
