<?xml version="1.0" standalone="no"?>
<!DOCTYPE svg PUBLIC "-//W3C//DTD SVG 20010904//EN"
 "http://www.w3.org/TR/2001/REC-SVG-20010904/DTD/svg10.dtd">
<svg version="1.0" xmlns="http://www.w3.org/2000/svg"
 width="100pt" height="80pt" viewBox="0 0 4526.000000 2620.000000"
 preserveAspectRatio="xMidYMid meet">

<g transform="translate(0.000000,2620.000000) scale(0.100000,-0.100000)"
fill="#000000" stroke="none">
<path d="M12140 19125 c0 -736 -2 -835 -15 -835 -11 0 -15 -12 -15 -44 0 -25
-4 -48 -10 -51 -5 -3 -10 -19 -10 -36 0 -16 -4 -29 -10 -29 -5 0 -10 -11 -10
-25 0 -14 -4 -25 -10 -25 -5 0 -10 -5 -10 -10 0 -10 -8 -22 -37 -55 -7 -7 -13
-16 -13 -20 0 -16 -111 -125 -127 -125 -5 0 -15 -9 -23 -20 -8 -11 -20 -20
-27 -20 -7 0 -23 -11 -37 -25 -14 -14 -32 -25 -40 -25 -8 0 -18 -4 -21 -10 -3
-5 -17 -10 -31 -10 -15 0 -24 -6 -24 -15 0 -10 -11 -15 -35 -15 -19 0 -35 -4
-35 -10 0 -5 -18 -10 -40 -10 -22 0 -40 -4 -40 -10 0 -6 -30 -10 -70 -10 -54
0 -72 -4 -76 -15 -5 -13 -250 -15 -2115 -15 l-2109 0 0 -6499 c0 -4783 3
-6500 11 -6503 6 -2 14 -36 17 -76 2 -40 9 -72 13 -72 5 0 9 -27 9 -60 0 -33
4 -60 10 -60 6 0 10 -14 10 -31 0 -17 7 -37 15 -45 8 -9 15 -31 15 -50 0 -19
5 -34 10 -34 6 0 10 -16 10 -35 0 -19 5 -35 10 -35 6 0 10 -9 10 -21 0 -11 7
-27 15 -35 8 -9 15 -26 15 -40 0 -13 5 -24 10 -24 6 0 10 -9 10 -20 0 -11 5
-20 10 -20 6 0 10 -11 10 -25 0 -16 6 -25 15 -25 9 0 15 -9 15 -25 0 -14 5
-25 10 -25 6 0 10 -9 10 -20 0 -11 5 -20 10 -20 6 0 10 -11 10 -25 0 -14 6
-25 13 -25 7 0 19 -16 26 -35 7 -19 17 -35 22 -35 5 0 9 -6 9 -14 0 -8 7 -16
15 -20 8 -3 15 -12 15 -21 0 -8 5 -15 10 -15 6 0 10 -7 10 -15 0 -8 5 -15 10
-15 6 0 10 -7 10 -16 0 -16 47 -64 63 -64 4 0 7 -7 7 -15 0 -8 5 -15 10 -15 6
0 10 -9 10 -20 0 -11 7 -20 15 -20 8 0 15 -5 15 -10 0 -14 46 -60 60 -60 5 0
10 -4 10 -10 0 -13 117 -130 130 -130 6 0 10 -5 10 -11 0 -14 26 -39 41 -39 6
0 26 -16 45 -35 18 -19 37 -35 43 -35 6 0 11 -4 11 -10 0 -5 9 -10 20 -10 11
0 20 -4 20 -10 0 -5 7 -10 15 -10 8 0 15 -7 15 -15 0 -8 9 -15 20 -15 11 0 20
-4 20 -10 0 -5 7 -10 15 -10 8 0 15 -4 15 -10 0 -5 9 -10 20 -10 11 0 20 -7
20 -15 0 -8 9 -15 20 -15 11 0 20 -4 20 -10 0 -5 7 -10 15 -10 8 0 15 -4 15
-10 0 -5 11 -10 25 -10 16 0 25 -6 25 -15 0 -8 9 -15 20 -15 11 0 20 -4 20
-10 0 -5 8 -10 18 -10 27 0 96 -27 100 -39 2 -6 15 -11 28 -11 13 0 24 -4 24
-10 0 -5 13 -10 29 -10 17 0 33 -4 36 -10 3 -5 20 -10 36 -10 17 0 32 -6 35
-15 4 -9 19 -15 40 -15 19 0 34 -4 34 -10 0 -5 20 -10 45 -10 25 0 45 -4 45
-10 0 -5 25 -10 55 -10 42 0 55 -3 55 -15 0 -12 17 -15 95 -15 57 0 95 -4 95
-10 0 -7 5280 -10 15820 -10 10540 0 15820 3 15820 10 0 6 34 10 81 10 58 0
85 4 95 15 10 9 34 15 65 15 27 0 49 5 49 10 0 6 20 10 45 10 25 0 45 5 45 10
0 6 20 10 45 10 33 0 45 4 45 15 0 10 11 15 35 15 19 0 35 5 35 10 0 6 11 10
25 10 14 0 25 5 25 10 0 6 14 10 30 10 20 0 30 5 30 15 0 9 9 15 24 15 14 0
28 5 31 10 3 6 15 10 26 10 10 0 19 5 19 10 0 6 9 10 19 10 10 0 21 7 25 15 3
8 15 15 26 15 11 0 20 5 20 10 0 6 11 10 25 10 14 0 25 5 25 10 0 6 9 10 20
10 11 0 20 7 20 15 0 8 7 15 15 15 8 0 15 5 15 10 0 6 9 10 20 10 11 0 20 5
20 10 0 6 5 10 10 10 11 0 25 10 65 47 13 13 29 23 35 23 5 0 10 5 10 10 0 6
9 10 20 10 11 0 20 7 20 15 0 8 6 15 13 15 7 0 19 9 27 20 8 11 18 20 23 20
12 0 37 27 37 39 0 6 9 11 20 11 11 0 20 5 20 10 0 6 7 10 15 10 8 0 15 5 15
10 0 14 46 60 60 60 5 0 10 7 10 15 0 8 5 15 10 15 6 0 10 9 10 20 0 11 5 20
11 20 12 0 39 25 39 37 0 5 9 15 20 23 11 8 20 20 20 27 0 7 7 13 15 13 8 0
15 9 15 20 0 11 5 20 10 20 6 0 10 5 10 11 0 14 25 39 39 39 6 0 11 9 11 20 0
11 5 20 10 20 6 0 10 7 10 15 0 8 4 15 9 15 5 0 15 16 22 35 7 19 19 35 26 35
7 0 13 9 13 20 0 11 5 20 10 20 6 0 10 9 10 21 0 11 6 27 13 34 31 36 37 46
37 65 0 11 5 20 10 20 6 0 10 11 10 25 0 14 5 25 10 25 6 0 10 11 10 25 0 16
6 25 15 25 10 0 15 10 15 30 0 17 5 30 10 30 6 0 10 11 10 25 0 14 5 25 10 25
6 0 10 16 10 35 0 24 5 35 15 35 11 0 15 12 15 45 0 25 5 45 10 45 6 0 10 23
10 50 0 28 5 50 10 50 6 0 10 20 10 44 0 26 6 51 15 60 11 11 15 39 15 115 0
61 4 101 10 101 7 0 10 2198 10 6575 0 4377 -3 6575 -10 6575 -6 0 -10 41 -10
104 0 70 -4 106 -12 108 -6 2 -13 30 -16 61 -2 31 -8 57 -13 57 -5 0 -9 23 -9
50 0 28 -4 50 -10 50 -5 0 -10 18 -10 40 0 29 -4 40 -15 40 -10 0 -15 11 -15
35 0 19 -4 35 -10 35 -5 0 -10 14 -10 30 0 17 -4 30 -10 30 -5 0 -10 13 -10
29 0 16 -6 31 -12 34 -7 2 -19 25 -27 51 -7 25 -17 46 -22 46 -5 0 -9 9 -9 20
0 11 -4 20 -9 20 -4 0 -16 20 -25 45 -10 25 -22 45 -27 45 -5 0 -9 11 -9 25 0
14 -6 25 -13 25 -7 0 -19 16 -27 35 -8 19 -17 35 -22 35 -4 0 -8 7 -8 15 0 8
-4 15 -10 15 -5 0 -10 9 -10 20 0 11 -7 20 -15 20 -8 0 -15 7 -15 15 0 8 -4
15 -10 15 -5 0 -10 7 -10 16 0 15 -23 44 -35 44 -10 0 -35 28 -35 39 0 6 -4
11 -10 11 -5 0 -10 9 -10 20 0 11 -7 20 -15 20 -8 0 -15 5 -15 10 0 14 -46 60
-60 60 -5 0 -10 5 -10 10 0 14 -46 60 -60 60 -5 0 -10 5 -10 10 0 14 -46 60
-60 60 -6 0 -13 7 -16 15 -4 8 -12 15 -20 15 -8 0 -14 5 -14 10 0 6 -5 10 -10
10 -6 0 -22 10 -35 23 -38 35 -54 47 -62 47 -5 0 -15 9 -23 20 -8 11 -22 20
-31 20 -9 0 -25 11 -35 25 -10 14 -29 25 -41 25 -13 0 -23 5 -23 10 0 6 -9 10
-20 10 -11 0 -20 7 -20 15 0 9 -9 15 -23 15 -12 0 -29 9 -37 20 -8 11 -25 20
-37 20 -14 0 -23 6 -23 15 0 10 -10 15 -30 15 -16 0 -30 5 -30 10 0 6 -11 10
-24 10 -14 0 -28 5 -31 10 -3 5 -15 10 -26 10 -10 0 -19 7 -19 15 0 10 -11 15
-35 15 -19 0 -35 5 -35 10 0 6 -16 10 -35 10 -19 0 -35 5 -35 10 0 6 -16 10
-35 10 -24 0 -35 5 -35 15 0 11 -12 15 -45 15 -25 0 -45 5 -45 10 0 6 -27 10
-60 10 -33 0 -60 4 -60 9 0 4 -35 11 -77 13 -45 3 -79 10 -81 17 -3 8 -3640
11 -14343 11 l-14339 0 0 -835z m16765 -3036 c55 -6 102 -15 103 -20 2 -5 30
-9 63 -9 32 0 59 -4 59 -8 0 -5 36 -14 81 -21 44 -8 86 -20 94 -27 7 -8 32
-14 54 -14 23 0 41 -4 41 -9 0 -5 32 -17 70 -27 39 -10 70 -21 70 -26 0 -4 16
-8 35 -8 19 0 35 -4 35 -10 0 -5 11 -10 25 -10 14 0 25 -4 25 -10 0 -5 11 -12
25 -16 14 -3 25 -10 25 -15 0 -5 14 -9 30 -9 17 0 30 -4 30 -10 0 -5 11 -10
25 -10 14 0 25 -4 25 -10 0 -5 11 -12 25 -16 14 -3 25 -10 25 -15 0 -5 9 -9
20 -9 11 0 20 -4 20 -10 0 -5 10 -10 21 -10 12 0 32 -11 45 -25 13 -14 30 -25
39 -25 8 0 15 -4 15 -10 0 -5 9 -10 20 -10 11 0 20 -4 20 -10 0 -5 7 -10 15
-10 8 0 15 -7 15 -15 0 -9 9 -15 25 -15 14 0 25 -4 25 -10 0 -5 9 -10 20 -10
11 0 20 -5 20 -10 0 -6 11 -16 25 -22 14 -6 25 -17 25 -25 0 -7 9 -13 20 -13
11 0 20 -4 20 -10 0 -5 5 -10 11 -10 14 0 39 -25 39 -39 0 -6 11 -11 25 -11
16 0 25 -6 25 -15 0 -8 4 -15 10 -15 8 0 28 -16 106 -87 14 -13 28 -23 31 -23
8 0 53 -53 53 -62 0 -5 5 -8 11 -8 12 0 59 -50 59 -62 0 -5 5 -8 11 -8 12 0
59 -50 59 -62 0 -5 5 -8 11 -8 13 0 49 -38 49 -52 0 -5 18 -27 40 -48 22 -21
40 -43 40 -49 0 -6 7 -11 15 -11 8 0 15 -7 15 -15 0 -8 5 -15 10 -15 6 0 10
-9 10 -20 0 -11 5 -20 11 -20 12 0 39 -25 39 -37 0 -5 9 -15 20 -23 11 -8 20
-20 20 -28 0 -7 7 -15 15 -18 8 -4 15 -12 15 -20 0 -8 5 -14 10 -14 6 0 10 -9
10 -20 0 -11 5 -20 10 -20 6 0 18 -16 27 -35 9 -19 20 -35 25 -35 4 0 8 -7 8
-15 0 -8 4 -15 9 -15 5 0 15 -16 22 -35 7 -19 19 -35 26 -35 7 0 13 -11 13
-25 0 -14 4 -25 8 -25 5 0 17 -18 27 -40 10 -22 22 -40 27 -40 4 0 8 -7 8 -15
0 -8 4 -15 8 -15 4 0 16 -22 27 -50 11 -27 23 -50 27 -50 4 0 8 -9 8 -20 0
-11 3 -20 8 -20 4 0 15 -27 26 -60 10 -33 22 -60 27 -60 5 0 9 -9 9 -20 0 -11
5 -20 10 -20 6 0 10 -16 10 -35 0 -19 4 -35 10 -35 5 0 12 -16 16 -35 3 -19
10 -35 15 -35 5 0 9 -11 9 -25 0 -14 5 -25 10 -25 6 0 10 -20 10 -45 0 -25 4
-45 10 -45 5 0 12 -16 16 -35 3 -19 10 -35 15 -35 5 0 9 -16 9 -35 0 -19 5
-35 10 -35 6 0 10 -22 10 -50 0 -27 4 -50 9 -50 5 0 12 -25 16 -55 3 -30 11
-55 16 -55 5 0 9 -31 9 -70 0 -40 4 -70 10 -70 6 0 10 -38 10 -94 0 -67 4 -96
13 -98 9 -4 12 -76 12 -318 0 -242 -3 -314 -12 -317 -9 -3 -13 -32 -13 -99 0
-56 -4 -94 -10 -94 -6 0 -10 -30 -10 -70 0 -38 -4 -70 -9 -70 -5 0 -13 -25
-16 -55 -4 -30 -11 -55 -16 -55 -5 0 -9 -20 -9 -45 0 -25 -4 -45 -10 -45 -5 0
-10 -18 -10 -40 0 -22 -4 -40 -9 -40 -6 0 -13 -20 -17 -45 -3 -25 -10 -45 -15
-45 -5 0 -9 -16 -9 -35 0 -19 -4 -35 -10 -35 -5 0 -10 -16 -10 -35 0 -19 -4
-35 -10 -35 -5 0 -12 -11 -16 -25 -3 -14 -10 -25 -15 -25 -5 0 -9 -13 -9 -30
0 -16 -4 -30 -10 -30 -5 0 -10 -11 -10 -25 0 -14 -4 -25 -9 -25 -4 0 -16 -25
-26 -55 -9 -30 -21 -55 -26 -55 -5 0 -9 -11 -9 -25 0 -14 -4 -25 -9 -25 -4 0
-16 -20 -25 -45 -10 -25 -22 -45 -27 -45 -5 0 -9 -11 -9 -25 0 -14 -5 -25 -10
-25 -6 0 -18 -16 -27 -35 -9 -19 -20 -35 -25 -35 -4 0 -8 -10 -8 -21 0 -12 -8
-29 -19 -38 -10 -9 -21 -26 -25 -38 -4 -13 -12 -23 -17 -23 -5 0 -9 -9 -9 -20
0 -11 -5 -20 -10 -20 -6 0 -16 -11 -22 -25 -6 -14 -17 -25 -25 -25 -7 0 -13
-9 -13 -20 0 -11 -4 -20 -10 -20 -5 0 -10 -5 -10 -10 0 -10 -8 -22 -37 -55 -7
-7 -13 -18 -13 -24 0 -6 -4 -11 -10 -11 -5 0 -10 -6 -10 -13 0 -8 -11 -20 -25
-27 -14 -7 -25 -21 -25 -29 0 -9 -9 -23 -20 -31 -11 -8 -20 -20 -20 -27 0 -7
-7 -13 -15 -13 -8 0 -15 -5 -15 -10 0 -10 -8 -20 -67 -85 -13 -13 -23 -29 -23
-35 0 -5 -5 -10 -10 -10 -14 0 -60 -46 -60 -60 0 -5 -5 -10 -10 -10 -14 0 -60
-46 -60 -60 0 -5 -5 -10 -11 -10 -5 0 -30 -20 -55 -45 -24 -25 -51 -45 -59
-45 -8 0 -15 -5 -15 -10 0 -13 -45 -60 -57 -60 -5 0 -15 -9 -23 -20 -8 -11
-20 -20 -26 -20 -6 0 -29 -16 -50 -35 -21 -19 -46 -37 -56 -41 -10 -3 -18 -10
-18 -15 0 -5 -7 -9 -15 -9 -8 0 -15 -4 -15 -8 0 -5 -16 -16 -35 -25 -19 -9
-35 -21 -35 -27 0 -5 -9 -10 -20 -10 -11 0 -20 -4 -20 -10 0 -5 -5 -10 -10
-10 -10 0 -22 -8 -55 -37 -7 -7 -21 -13 -29 -13 -9 0 -16 -4 -16 -10 0 -5 -11
-10 -25 -10 -14 0 -25 -4 -25 -10 0 -5 -11 -12 -25 -16 -14 -3 -25 -10 -25
-15 0 -5 -9 -9 -20 -9 -11 0 -20 -4 -20 -10 0 -5 -11 -10 -25 -10 -14 0 -25
-4 -25 -10 0 -5 -11 -12 -25 -16 -14 -3 -25 -10 -25 -15 0 -5 -11 -9 -25 -9
-14 0 -25 -4 -25 -10 0 -5 -9 -10 -20 -10 -11 0 -20 -4 -20 -10 0 -5 -11 -10
-24 -10 -14 0 -31 -7 -40 -15 -8 -8 -28 -15 -45 -15 -17 0 -31 -4 -31 -10 0
-5 -11 -10 -25 -10 -14 0 -25 -4 -25 -9 0 -5 -36 -17 -80 -27 -44 -10 -80 -21
-80 -26 0 -4 -20 -8 -44 -8 -24 0 -46 -4 -48 -8 -3 -9 -150 -42 -186 -42 -12
0 -22 -4 -22 -10 0 -6 -35 -10 -84 -10 -59 0 -86 -4 -89 -12 -5 -18 -609 -18
-615 0 -2 8 -30 12 -82 12 -43 0 -80 4 -82 8 -1 4 -52 16 -113 26 -60 9 -111
21 -113 27 -2 5 -24 9 -48 9 -24 0 -44 4 -44 9 0 5 -34 17 -75 26 -41 9 -75
21 -75 26 0 5 -16 9 -35 9 -19 0 -35 5 -35 10 0 6 -13 10 -30 10 -16 0 -30 4
-30 9 0 5 -11 12 -25 15 -14 4 -25 11 -25 16 0 6 -16 10 -35 10 -19 0 -35 5
-35 10 0 6 -11 10 -25 10 -14 0 -25 4 -25 10 0 5 -11 12 -25 16 -14 3 -25 10
-25 15 0 5 -9 9 -20 9 -11 0 -20 5 -20 10 0 6 -11 10 -25 10 -14 0 -25 4 -25
10 0 5 -11 12 -25 16 -14 3 -25 10 -25 15 0 5 -9 9 -20 9 -11 0 -20 5 -20 10
0 6 -9 10 -20 10 -11 0 -20 4 -20 9 0 5 -11 12 -25 15 -14 4 -25 11 -25 16 0
6 -7 10 -15 10 -8 0 -15 5 -15 10 0 6 -9 10 -20 10 -11 0 -20 4 -20 8 0 5 -16
17 -35 28 -19 10 -35 22 -35 26 0 5 -7 8 -15 8 -8 0 -15 4 -15 8 0 5 -16 16
-35 25 -19 9 -35 21 -35 27 0 5 -9 10 -20 10 -11 0 -20 7 -20 15 0 8 -11 17
-25 21 -14 3 -25 11 -25 16 0 12 -25 38 -37 38 -4 0 -20 11 -35 25 -15 14 -29
25 -32 25 -9 0 -56 51 -56 60 0 6 -5 10 -10 10 -10 0 -20 8 -85 68 -13 12 -29
22 -35 22 -5 0 -10 7 -10 15 0 8 -4 15 -10 15 -5 0 -10 9 -10 20 0 11 -5 20
-11 20 -11 0 -39 25 -39 35 0 8 -27 35 -35 35 -8 0 -55 47 -55 56 0 4 -11 17
-25 30 -14 13 -25 28 -25 34 0 6 -20 30 -45 54 -25 25 -45 51 -45 60 0 9 -5
16 -10 16 -6 0 -18 16 -27 35 -9 19 -20 35 -25 35 -4 0 -8 5 -8 11 0 7 -8 19
-19 28 -10 9 -21 26 -25 39 -4 12 -12 22 -17 22 -5 0 -9 9 -9 20 0 11 -5 20
-10 20 -6 0 -18 16 -27 35 -9 19 -20 35 -25 35 -4 0 -8 11 -8 25 0 14 -4 25
-8 25 -5 0 -17 16 -28 35 -10 19 -22 35 -26 35 -5 0 -8 11 -8 25 0 14 -4 25
-10 25 -5 0 -10 9 -10 20 0 19 -6 29 -37 65 -7 7 -13 27 -13 44 0 17 -4 31
-10 31 -5 0 -10 9 -10 20 0 11 -4 20 -9 20 -5 0 -12 11 -15 25 -4 14 -11 25
-16 25 -6 0 -10 16 -10 35 0 19 -4 35 -10 35 -5 0 -10 16 -10 35 0 19 -4 35
-10 35 -5 0 -12 11 -16 25 -3 14 -10 25 -15 25 -5 0 -9 20 -9 45 0 25 -4 45
-10 45 -5 0 -10 16 -10 35 0 19 -4 35 -9 35 -6 0 -13 20 -17 45 -3 25 -10 45
-15 45 -5 0 -9 20 -9 45 0 25 -4 45 -10 45 -5 0 -10 22 -10 49 0 27 -4 51 -9
53 -9 3 -41 236 -41 296 0 17 -4 32 -10 32 -6 0 -10 122 -10 345 0 223 4 345
10 345 6 0 10 12 10 28 0 55 33 287 41 290 5 2 9 26 9 53 0 27 5 49 10 49 6 0
10 20 10 45 0 25 4 45 9 45 5 0 12 23 16 50 4 28 11 50 16 50 5 0 9 16 9 35 0
19 5 35 10 35 6 0 10 14 10 30 0 17 5 30 10 30 6 0 10 11 10 24 0 14 7 31 15
40 8 8 15 28 15 45 0 17 5 31 10 31 6 0 10 14 10 30 0 29 5 38 38 75 6 7 12
25 12 39 0 14 5 26 10 26 6 0 10 14 10 30 0 17 4 30 10 30 5 0 12 11 16 25 3
14 10 25 15 25 5 0 9 9 9 20 0 11 5 20 10 20 6 0 10 11 10 25 0 14 4 25 8 25
5 0 17 16 28 35 10 19 22 35 26 35 5 0 8 11 8 25 0 14 3 25 8 25 4 0 16 16 26
35 11 19 23 35 28 35 4 0 8 9 8 20 0 11 5 20 10 20 6 0 10 5 10 10 0 10 8 22
38 55 6 7 12 18 12 24 0 6 3 11 8 11 4 0 16 16 26 35 11 19 23 35 28 35 4 0 8
7 8 16 0 8 16 30 35 48 19 19 35 38 35 45 0 6 5 11 10 11 6 0 10 9 10 20 0 11
5 20 10 20 12 0 60 45 60 55 0 10 28 35 39 35 6 0 11 5 11 10 0 6 10 22 23 35
33 36 47 53 47 60 0 10 28 35 39 35 6 0 11 3 11 8 0 9 45 62 54 62 8 0 19 9
81 65 25 22 61 54 80 70 20 17 47 40 60 53 13 12 28 22 32 22 5 0 15 9 23 20
8 11 20 20 27 20 7 0 23 11 37 25 14 14 30 25 35 25 6 0 21 11 35 25 14 14 33
25 42 25 9 0 24 8 33 19 9 10 26 21 39 25 12 4 22 12 22 17 0 5 9 9 20 9 11 0
20 5 20 10 0 6 7 10 15 10 8 0 15 4 15 10 0 5 11 12 25 16 14 3 25 10 25 15 0
5 9 9 20 9 11 0 20 5 20 10 0 6 11 10 25 10 14 0 25 4 25 10 0 5 11 12 25 16
14 3 25 10 25 15 0 5 9 9 20 9 11 0 20 5 20 10 0 6 16 10 35 10 19 0 35 4 35
10 0 5 11 12 25 16 14 3 25 10 25 15 0 5 14 9 30 9 17 0 30 5 30 10 0 6 11 10
25 10 14 0 25 4 25 9 0 4 36 17 80 27 44 11 80 22 80 27 0 4 16 7 35 7 19 0
35 4 35 8 0 5 43 17 95 27 52 11 95 23 95 27 0 4 32 8 70 8 39 0 70 4 70 9 0
7 47 14 265 35 74 7 479 -3 580 -15z m-14057 -156 c2 -7 19 -13 38 -13 19 0
34 -4 34 -10 0 -5 11 -10 25 -10 14 0 25 -4 25 -9 0 -5 10 -13 23 -17 12 -4
29 -15 38 -25 9 -11 21 -19 28 -19 6 0 11 -3 11 -7 0 -12 46 -63 57 -63 5 0
16 -11 23 -25 7 -14 17 -25 22 -25 4 0 8 -9 8 -20 0 -11 4 -20 9 -20 5 0 17
-27 27 -60 10 -33 21 -60 26 -60 4 0 8 -47 8 -105 0 -63 -4 -105 -10 -105 -5
0 -10 -8 -10 -19 0 -28 -32 -121 -42 -121 -4 0 -8 -9 -8 -20 0 -11 -5 -20 -10
-20 -6 0 -16 -11 -22 -25 -6 -14 -17 -25 -25 -25 -7 0 -13 -5 -13 -10 0 -12
-45 -60 -56 -60 -4 0 -14 -8 -23 -19 -9 -10 -26 -21 -38 -25 -13 -4 -23 -12
-23 -17 0 -5 -11 -9 -24 -9 -13 0 -26 -4 -28 -10 -2 -5 -43 -16 -92 -25 -77
-13 -256 -15 -1327 -15 l-1239 0 0 -845 0 -845 1125 0 c619 0 1125 -3 1125 -7
0 -5 27 -16 60 -27 33 -10 60 -22 60 -27 0 -5 7 -9 16 -9 10 0 32 -16 51 -35
19 -19 40 -35 48 -35 8 0 15 -7 15 -15 0 -9 11 -26 25 -39 14 -13 25 -28 25
-35 0 -6 5 -11 10 -11 6 0 10 -9 10 -20 0 -11 4 -20 10 -20 5 0 12 -11 16 -25
3 -14 10 -25 15 -25 5 0 9 -16 9 -35 0 -19 5 -35 10 -35 6 0 10 -40 10 -100 0
-60 -4 -100 -10 -100 -5 0 -10 -20 -10 -45 0 -25 -4 -45 -9 -45 -5 0 -12 -11
-15 -25 -4 -14 -11 -25 -16 -25 -6 0 -10 -11 -10 -25 0 -14 -4 -25 -10 -25 -5
0 -10 -7 -10 -15 0 -8 -4 -15 -9 -15 -5 0 -30 -21 -55 -46 -25 -25 -46 -50
-46 -55 0 -5 -7 -9 -15 -9 -8 0 -15 -4 -15 -10 0 -5 -11 -10 -25 -10 -14 0
-25 -4 -25 -10 0 -5 -11 -12 -25 -16 -14 -3 -25 -10 -25 -15 0 -5 -18 -9 -40
-9 -22 0 -40 -4 -40 -10 0 -7 -378 -10 -1115 -10 l-1114 0 -4 -1152 c-3 -955
-6 -1160 -17 -1195 -8 -24 -18 -43 -22 -43 -4 0 -8 -9 -8 -20 0 -12 -11 -32
-25 -46 -14 -14 -25 -30 -25 -35 0 -11 -25 -39 -34 -39 -9 0 -56 -51 -56 -60
0 -6 -9 -10 -20 -10 -11 0 -20 -4 -20 -10 0 -5 -5 -10 -11 -10 -6 0 -17 -7
-25 -15 -9 -8 -26 -15 -40 -15 -13 0 -24 -4 -24 -10 0 -5 -15 -10 -34 -10 -19
0 -36 -6 -38 -12 -3 -9 -35 -13 -113 -13 -78 0 -110 4 -112 13 -3 7 -22 12
-49 12 -24 0 -44 4 -44 9 0 5 -16 15 -36 21 -19 7 -38 18 -41 26 -3 8 -14 14
-24 14 -10 0 -19 5 -19 10 0 12 -45 60 -55 60 -13 0 -35 29 -35 45 0 15 -6 25
-37 60 -7 7 -13 23 -13 34 0 12 -4 21 -10 21 -5 0 -10 16 -10 35 0 19 -4 35
-10 35 -7 0 -10 947 -10 2820 0 1873 3 2820 10 2820 6 0 10 16 10 35 0 19 5
35 10 35 6 0 10 9 10 21 0 11 6 27 13 34 31 35 37 45 37 60 0 16 23 45 35 45
4 0 13 6 21 14 8 8 14 17 14 21 0 12 29 35 44 35 9 0 16 5 16 10 0 6 7 10 15
10 8 0 15 7 15 15 0 10 11 15 35 15 19 0 35 5 35 10 0 6 16 10 35 10 19 0 35
4 35 9 0 5 12 12 28 14 15 2 738 4 1606 3 1254 -1 1580 -4 1584 -13z m2630 -2
c2 -6 19 -11 38 -11 19 0 34 -4 34 -10 0 -5 9 -10 20 -10 19 0 29 -6 65 -37 7
-7 18 -13 24 -13 6 0 11 -4 11 -10 0 -5 9 -10 20 -10 11 0 20 -5 20 -10 0 -6
10 -22 23 -35 37 -40 47 -54 47 -65 0 -5 5 -10 10 -10 6 0 10 -9 10 -20 0 -11
4 -20 9 -20 5 0 12 -11 15 -25 4 -14 11 -25 16 -25 6 0 10 -16 10 -35 0 -19 5
-35 10 -35 7 0 10 -947 10 -2820 0 -1873 -3 -2820 -10 -2820 -5 0 -10 -16 -10
-35 0 -19 -4 -35 -10 -35 -5 0 -12 -11 -16 -25 -3 -14 -10 -25 -15 -25 -5 0
-9 -9 -9 -20 0 -11 -4 -20 -10 -20 -5 0 -10 -5 -10 -10 0 -12 -4 -18 -49 -67
-16 -18 -34 -33 -40 -33 -7 0 -14 -7 -17 -15 -4 -8 -12 -15 -20 -15 -8 0 -14
-4 -14 -9 0 -5 -20 -17 -45 -27 -25 -9 -45 -21 -45 -25 0 -5 -15 -9 -34 -9
-19 0 -36 -6 -39 -12 -5 -18 -249 -18 -255 0 -2 7 -19 12 -38 12 -19 0 -34 4
-34 9 0 5 -20 17 -45 28 -25 10 -45 21 -45 26 0 4 -4 7 -10 7 -12 0 -60 48
-60 60 0 6 -6 10 -13 10 -8 0 -19 11 -25 25 -6 14 -16 25 -22 25 -5 0 -10 9
-10 20 0 11 -4 20 -9 20 -5 0 -17 27 -27 60 -10 33 -21 60 -26 60 -4 0 -8
1278 -8 2840 0 1562 4 2840 8 2840 5 0 16 27 26 60 10 33 22 60 27 60 5 0 9 9
9 20 0 11 5 20 10 20 6 0 16 11 22 25 6 14 17 25 25 25 7 0 13 5 13 10 0 14
46 60 60 60 5 0 10 4 10 9 0 5 11 12 25 15 14 4 25 11 25 16 0 6 9 10 20 10
11 0 20 5 20 10 0 6 16 10 35 10 19 0 35 4 35 9 0 22 251 23 258 2z m16270 0
c2 -6 17 -11 33 -11 16 0 29 -4 29 -10 0 -5 11 -10 25 -10 14 0 25 -4 25 -9 0
-5 10 -13 23 -17 12 -4 29 -15 38 -25 9 -11 21 -19 28 -19 15 0 51 -37 51 -53
0 -7 9 -19 20 -27 11 -8 20 -20 20 -27 0 -7 7 -13 15 -13 8 0 15 -9 15 -20 0
-11 5 -20 10 -20 6 0 10 -6 10 -13 0 -7 9 -19 20 -27 11 -8 20 -20 20 -28 0
-7 7 -15 15 -18 8 -4 15 -12 15 -20 0 -8 3 -14 8 -14 4 0 16 -16 26 -35 11
-19 23 -35 28 -35 4 0 8 -5 8 -10 0 -10 8 -22 38 -55 6 -7 12 -18 12 -24 0 -6
5 -11 10 -11 6 0 10 -9 10 -20 0 -11 6 -20 13 -20 8 0 19 -11 25 -25 6 -14 16
-25 22 -25 5 0 10 -9 10 -20 0 -11 5 -20 10 -20 6 0 10 -5 10 -11 0 -14 25
-39 39 -39 6 0 11 -9 11 -20 0 -11 5 -20 10 -20 6 0 10 -5 10 -11 0 -6 6 -17
13 -24 28 -32 37 -45 37 -52 0 -5 9 -15 20 -23 11 -8 20 -20 20 -28 0 -7 7
-15 15 -18 8 -4 15 -12 15 -20 0 -8 5 -14 10 -14 6 0 10 -7 10 -15 0 -9 11
-26 25 -39 14 -13 25 -28 25 -35 0 -6 5 -11 10 -11 6 0 10 -9 10 -20 0 -11 6
-20 13 -20 6 0 18 -14 26 -32 8 -17 27 -45 42 -61 16 -16 31 -38 34 -48 4 -11
11 -19 16 -19 5 0 9 -5 9 -10 0 -11 10 -25 48 -65 12 -13 22 -29 22 -35 0 -5
4 -10 9 -10 5 0 12 -8 16 -19 3 -10 19 -33 35 -50 17 -17 30 -38 30 -46 0 -8
5 -15 10 -15 6 0 10 -7 10 -15 0 -8 7 -15 15 -15 8 0 15 -9 15 -20 0 -11 5
-20 10 -20 6 0 10 -5 10 -11 0 -7 11 -22 25 -35 14 -13 25 -30 25 -39 0 -8 5
-15 10 -15 6 0 10 -6 10 -14 0 -8 7 -16 15 -20 8 -3 15 -11 15 -18 0 -8 9 -20
20 -28 11 -8 20 -18 20 -23 0 -7 9 -20 38 -52 6 -7 12 -18 12 -24 0 -6 5 -11
10 -11 6 0 10 -9 10 -20 0 -11 7 -20 15 -20 8 0 17 -11 21 -25 3 -14 12 -25
20 -25 8 0 14 -9 14 -20 0 -11 5 -20 10 -20 6 0 16 -11 22 -25 6 -14 17 -25
25 -25 7 0 13 -9 13 -20 0 -11 5 -20 10 -20 6 0 10 -5 10 -10 0 -10 8 -22 38
-55 6 -7 12 -18 12 -24 0 -6 4 -11 8 -11 5 0 17 -16 28 -35 10 -19 22 -35 26
-35 5 0 8 -6 8 -14 0 -8 7 -16 15 -20 8 -3 15 -11 15 -18 0 -8 9 -20 20 -28
11 -8 20 -20 20 -27 0 -7 5 -13 10 -13 6 0 10 -9 10 -20 0 -11 7 -20 15 -20 8
0 15 -7 15 -15 0 -8 5 -15 10 -15 6 0 10 -8 10 -18 0 -10 9 -24 20 -32 11 -8
20 -20 20 -27 0 -7 7 -13 15 -13 8 0 15 -9 15 -20 0 -11 5 -20 10 -20 6 0 10
-5 10 -10 0 -11 10 -25 48 -65 12 -13 22 -29 22 -35 0 -5 11 -10 25 -10 16 0
25 6 25 15 0 8 5 15 10 15 6 0 10 9 10 20 0 11 6 20 13 20 8 0 19 11 25 25 6
14 16 25 22 25 5 0 10 9 10 20 0 11 6 20 14 20 8 0 17 11 20 25 4 14 13 25 21
25 8 0 15 9 15 20 0 11 5 20 10 20 6 0 10 5 10 10 0 10 8 22 38 55 6 7 12 17
12 22 0 5 9 15 20 23 11 8 20 20 20 28 0 7 7 15 15 18 8 4 15 12 15 20 0 8 5
14 10 14 6 0 10 7 10 15 0 9 11 26 25 39 14 13 25 28 25 35 0 6 5 11 10 11 6
0 10 9 10 20 0 11 7 20 15 20 8 0 15 7 15 15 0 8 5 15 10 15 6 0 10 7 10 16 0
9 16 31 35 50 19 18 35 40 35 49 0 8 5 15 10 15 6 0 10 5 10 10 0 6 10 22 23
35 37 40 47 54 47 65 0 5 4 10 9 10 5 0 12 8 16 19 3 10 18 32 34 48 15 16 34
44 42 61 8 18 20 32 26 32 7 0 13 7 13 15 0 14 6 23 50 73 11 12 20 29 20 37
0 8 6 15 13 15 6 0 19 15 26 33 8 17 23 39 33 48 10 9 18 19 18 23 0 7 10 20
38 51 6 7 12 16 12 20 0 3 10 17 23 30 37 40 47 54 47 65 0 5 5 10 10 10 6 0
10 7 10 15 0 9 16 31 35 49 19 19 35 41 35 50 0 9 5 16 10 16 6 0 10 7 10 15
0 8 7 15 15 15 8 0 15 9 15 20 0 11 5 20 10 20 6 0 10 7 10 15 0 8 4 15 8 15
5 0 17 16 28 35 10 19 22 35 26 35 5 0 8 6 8 14 0 8 7 16 15 20 8 3 15 11 15
18 0 8 9 20 20 28 11 8 20 18 20 23 0 7 9 20 38 52 6 7 12 18 12 24 0 6 5 11
10 11 6 0 10 9 10 20 0 11 7 20 15 20 8 0 17 11 21 25 3 14 12 25 20 25 8 0
14 9 14 20 0 11 5 20 10 20 6 0 10 5 10 11 0 14 25 39 39 39 6 0 11 9 11 20 0
11 5 20 10 20 6 0 10 5 10 10 0 10 8 22 38 55 6 7 12 18 12 24 0 6 5 11 10 11
6 0 10 5 10 11 0 6 6 17 13 24 29 33 37 45 37 55 0 5 5 10 10 10 6 0 10 9 10
20 0 11 5 20 11 20 14 0 39 25 39 39 0 6 5 11 10 11 6 0 10 9 10 20 0 11 6 20
14 20 8 0 17 11 20 25 4 14 11 25 18 25 11 0 58 50 58 63 0 4 7 7 15 7 8 0 15
5 15 10 0 6 6 10 14 10 8 0 16 7 20 15 3 8 12 15 21 15 8 0 15 5 15 10 0 6 9
10 20 10 11 0 20 5 20 10 0 6 15 10 34 10 19 0 36 6 39 13 3 9 35 12 117 12
82 0 114 -3 118 -12 2 -8 21 -13 48 -13 24 0 44 -4 44 -10 0 -5 9 -10 20 -10
11 0 20 -4 20 -10 0 -5 7 -10 15 -10 8 0 25 -11 39 -25 14 -14 28 -25 31 -25
11 0 105 -99 105 -110 0 -5 4 -10 10 -10 5 0 12 -11 16 -25 3 -14 10 -25 15
-25 5 0 9 -9 9 -20 0 -11 5 -20 10 -20 6 0 10 -20 10 -45 0 -25 5 -45 10 -45
7 0 10 -940 10 -2800 0 -1860 -3 -2800 -10 -2800 -5 0 -10 -20 -10 -45 0 -25
-4 -45 -10 -45 -5 0 -10 -9 -10 -20 0 -19 -6 -29 -37 -65 -7 -7 -13 -16 -13
-20 0 -10 -119 -125 -130 -125 -5 0 -10 -4 -10 -9 0 -5 -20 -17 -45 -28 -25
-10 -45 -21 -45 -25 0 -5 -15 -8 -34 -8 -19 0 -36 -6 -39 -12 -5 -18 -239 -17
-245 0 -2 7 -19 12 -38 12 -19 0 -34 4 -34 9 0 4 -20 16 -45 25 -25 10 -45 22
-45 27 0 5 -7 9 -15 9 -8 0 -15 7 -15 15 0 8 -6 15 -12 15 -15 0 -88 78 -88
94 0 6 -9 18 -20 26 -11 8 -20 25 -20 37 0 13 -4 23 -10 23 -5 0 -10 15 -10
34 0 19 -6 36 -12 38 -10 4 -14 412 -16 1986 -1 1290 -6 1982 -12 1982 -6 0
-10 -6 -10 -13 0 -7 -9 -19 -20 -27 -11 -8 -20 -20 -20 -28 0 -7 -7 -15 -15
-18 -8 -4 -15 -12 -15 -20 0 -8 -4 -14 -10 -14 -5 0 -10 -7 -10 -15 0 -9 -11
-26 -25 -39 -14 -13 -25 -28 -25 -35 0 -6 -4 -11 -10 -11 -5 0 -10 -7 -10 -16
0 -9 -11 -27 -25 -40 -14 -13 -25 -28 -25 -34 0 -5 -13 -24 -30 -41 -16 -17
-32 -40 -35 -50 -4 -11 -11 -19 -16 -19 -5 0 -9 -5 -9 -10 0 -11 -10 -25 -47
-65 -13 -13 -23 -29 -23 -35 0 -5 -3 -10 -8 -10 -4 0 -16 -16 -26 -35 -11 -19
-23 -35 -28 -35 -4 0 -8 -8 -8 -18 0 -9 -9 -23 -20 -30 -11 -7 -20 -19 -20
-27 0 -8 -7 -15 -15 -15 -8 0 -15 -9 -15 -20 0 -11 -4 -20 -10 -20 -5 0 -10
-5 -10 -10 0 -10 -8 -22 -37 -55 -7 -7 -13 -18 -13 -24 0 -6 -4 -11 -10 -11
-5 0 -10 -6 -10 -14 0 -8 -7 -16 -15 -20 -8 -3 -15 -11 -15 -18 0 -8 -9 -20
-20 -28 -11 -8 -20 -18 -20 -23 0 -7 -9 -20 -37 -52 -7 -7 -13 -18 -13 -24 0
-6 -4 -11 -10 -11 -5 0 -10 -9 -10 -20 0 -11 -7 -20 -15 -20 -8 0 -15 -6 -15
-13 0 -7 -9 -19 -20 -27 -11 -8 -20 -22 -20 -32 0 -10 -4 -18 -10 -18 -5 0
-10 -5 -10 -10 0 -11 -10 -25 -47 -65 -13 -13 -23 -29 -23 -35 0 -5 -4 -10
-10 -10 -5 0 -10 -7 -10 -15 0 -9 -7 -18 -15 -21 -8 -4 -15 -12 -15 -20 0 -8
-3 -14 -8 -14 -4 0 -16 -16 -26 -35 -11 -19 -23 -35 -28 -35 -4 0 -8 -6 -8
-14 0 -8 -7 -16 -15 -20 -8 -3 -15 -11 -15 -18 0 -8 -9 -20 -20 -28 -11 -8
-20 -25 -20 -37 0 -13 -6 -23 -13 -23 -8 0 -19 -11 -25 -25 -6 -14 -16 -25
-22 -25 -5 0 -10 -9 -10 -20 0 -11 -4 -20 -10 -20 -5 0 -10 -5 -10 -11 0 -14
-25 -39 -39 -39 -6 0 -11 -9 -11 -20 0 -11 -4 -20 -10 -20 -5 0 -10 -5 -10
-10 0 -11 -10 -25 -47 -65 -13 -13 -23 -27 -23 -31 0 -10 -49 -54 -61 -54 -5
0 -9 -7 -9 -15 0 -8 -7 -15 -15 -15 -8 0 -15 -4 -15 -9 0 -5 -20 -17 -45 -27
-25 -9 -45 -21 -45 -25 0 -5 -20 -9 -44 -9 -27 0 -46 -5 -49 -12 -5 -18 -239
-17 -245 0 -2 7 -19 12 -38 12 -19 0 -34 3 -34 8 0 4 -20 15 -45 25 -25 11
-45 23 -45 28 0 5 -5 9 -11 9 -18 0 -159 146 -159 164 0 9 -5 16 -10 16 -6 0
-16 11 -22 25 -6 14 -17 25 -25 25 -7 0 -13 11 -13 25 0 15 -6 25 -14 25 -7 0
-19 15 -27 33 -7 17 -21 39 -31 48 -10 9 -18 19 -18 23 0 7 -10 20 -37 51 -7
7 -13 18 -13 24 0 6 -4 11 -10 11 -5 0 -10 9 -10 20 0 11 -7 20 -15 20 -8 0
-15 6 -15 13 0 7 -9 19 -20 27 -11 8 -20 21 -20 29 0 7 -11 24 -25 37 -14 13
-25 30 -25 39 0 8 -4 15 -10 15 -5 0 -10 5 -10 11 0 14 -25 39 -39 39 -6 0
-11 9 -11 20 0 11 -4 20 -10 20 -5 0 -10 7 -10 15 0 8 -4 15 -9 15 -5 0 -12 8
-16 19 -3 10 -18 32 -33 47 -15 16 -34 44 -41 62 -7 17 -20 32 -27 32 -8 0
-14 10 -14 25 0 14 -6 25 -13 25 -8 0 -19 11 -25 25 -6 14 -16 25 -22 25 -5 0
-10 7 -10 15 0 9 -11 28 -25 43 -14 15 -25 32 -25 39 0 7 -4 13 -10 13 -5 0
-10 5 -10 10 0 6 -10 22 -22 35 -38 40 -48 54 -48 65 0 5 -4 10 -10 10 -5 0
-10 7 -10 15 0 9 -16 31 -35 49 -19 19 -35 41 -35 50 0 9 -4 16 -10 16 -5 0
-10 7 -10 15 0 8 -7 15 -15 15 -8 0 -15 9 -15 20 0 11 -4 20 -10 20 -5 0 -10
5 -10 11 0 14 -25 39 -39 39 -6 0 -11 10 -11 23 0 12 -9 29 -20 37 -11 8 -20
19 -20 25 0 6 -11 22 -25 37 -14 15 -25 32 -25 38 0 5 -4 10 -8 10 -5 0 -16
16 -25 35 -9 19 -21 35 -27 35 -5 0 -10 9 -10 20 0 11 -7 20 -15 20 -8 0 -15
7 -15 15 0 8 -9 20 -20 27 -11 7 -20 19 -20 26 0 7 -9 22 -20 34 -20 21 -20
16 -22 -1962 -2 -1576 -6 -1984 -15 -1988 -7 -2 -13 -19 -13 -38 0 -19 -4 -34
-10 -34 -5 0 -10 -9 -10 -21 0 -22 -22 -49 -39 -49 -6 0 -11 -9 -11 -21 0 -19
-21 -49 -35 -49 -10 0 -55 -48 -55 -60 0 -5 -10 -10 -23 -10 -12 0 -29 -9 -37
-20 -8 -11 -29 -23 -47 -26 -18 -3 -33 -10 -33 -15 0 -5 -15 -9 -34 -9 -19 0
-36 -6 -39 -12 -5 -18 -229 -18 -235 0 -2 6 -17 12 -33 12 -16 0 -29 5 -29 10
0 6 -11 10 -25 10 -14 0 -25 4 -25 9 0 5 -10 13 -22 17 -12 3 -32 17 -45 30
-13 13 -27 24 -31 24 -15 0 -62 48 -62 64 0 9 -5 16 -10 16 -6 0 -18 16 -27
35 -9 19 -20 35 -25 35 -4 0 -8 11 -8 25 0 14 -4 25 -8 25 -31 0 -32 120 -32
2891 0 2753 1 2889 31 2889 5 0 9 11 9 25 0 14 4 25 8 25 5 0 16 16 25 35 9
19 21 35 27 35 5 0 10 7 10 15 0 18 55 75 72 75 6 0 18 8 27 19 9 10 26 21 39
25 12 4 22 12 22 17 0 5 11 9 25 9 14 0 25 5 25 10 0 6 14 10 30 10 17 0 30 4
30 9 0 14 54 19 165 16 60 -2 101 -8 103 -14z m-13608 -40 c0 -5 23 -12 50
-16 28 -4 50 -11 50 -16 0 -5 11 -9 25 -9 14 0 25 -4 25 -10 0 -5 9 -10 20
-10 11 0 20 -4 20 -9 0 -5 10 -13 22 -17 23 -7 88 -71 88 -86 0 -4 5 -8 11 -8
16 0 32 -21 53 -67 11 -24 23 -43 28 -43 4 0 8 -11 8 -25 0 -14 4 -25 9 -25
28 0 31 -157 31 -1443 0 -1164 2 -1317 15 -1317 8 0 15 5 15 10 0 6 7 10 15
10 8 0 15 4 15 9 0 13 158 171 171 171 5 0 9 5 9 11 0 12 50 59 63 59 4 0 7 5
7 11 0 12 50 59 63 59 4 0 7 4 7 9 0 12 169 181 181 181 5 0 9 3 9 8 0 12 47
62 59 62 6 0 11 4 11 9 0 13 158 171 171 171 5 0 9 5 9 11 0 12 50 59 63 59 4
0 7 5 7 11 0 12 50 59 63 59 4 0 7 4 7 9 0 12 169 181 181 181 5 0 9 3 9 8 0
12 47 62 59 62 6 0 11 3 11 8 0 12 47 62 59 62 6 0 11 4 11 9 0 12 89 101 101
101 5 0 9 5 9 11 0 12 50 59 63 59 4 0 7 5 7 11 0 12 50 59 63 59 4 0 7 4 7 9
0 12 169 181 181 181 5 0 9 3 9 8 0 12 47 62 59 62 6 0 11 3 11 8 0 12 47 62
59 62 6 0 11 4 11 9 0 4 14 22 30 39 17 18 30 34 30 38 0 7 27 34 35 34 10 0
35 28 35 39 0 6 3 11 8 11 12 0 62 47 62 59 0 6 3 11 8 11 9 0 62 45 62 53 0
10 50 57 60 57 6 0 10 4 10 10 0 10 47 60 57 60 8 0 53 53 53 63 0 4 5 7 11 7
12 0 59 50 59 63 0 4 5 7 11 7 12 0 59 50 59 63 0 4 5 7 11 7 11 0 39 25 39
35 0 8 27 35 35 35 10 0 35 28 35 39 0 6 3 11 8 11 12 0 62 47 62 59 0 6 3 11
8 11 12 0 62 47 62 59 0 6 3 11 8 11 9 0 62 45 62 53 0 8 49 57 57 57 8 0 53
53 53 63 0 4 5 7 11 7 12 0 59 50 59 63 0 4 7 7 15 7 8 0 15 5 15 10 0 6 5 10
10 10 10 0 22 8 55 38 7 6 21 12 29 12 9 0 16 5 16 10 0 6 11 10 25 10 14 0
25 4 25 10 0 5 27 12 60 16 33 4 60 11 60 15 0 5 20 9 45 9 25 0 45 -4 45 -9
0 -4 21 -11 47 -14 26 -3 49 -10 51 -16 2 -6 19 -11 38 -11 19 0 34 -4 34 -10
0 -5 7 -10 16 -10 8 0 22 -6 29 -12 31 -28 44 -38 50 -38 8 0 35 -27 35 -35 0
-8 27 -35 35 -35 12 0 35 -29 35 -45 0 -15 6 -25 38 -60 6 -7 12 -23 12 -34 0
-12 5 -21 10 -21 6 0 10 -22 10 -50 0 -27 5 -50 10 -50 6 0 10 -32 10 -75 0
-43 -4 -75 -10 -75 -5 0 -10 -22 -10 -50 0 -27 -4 -50 -10 -50 -5 0 -10 -9
-10 -20 0 -19 -6 -29 -37 -65 -7 -7 -13 -21 -13 -30 0 -16 -22 -45 -35 -45
-10 0 -55 -48 -55 -60 0 -5 -4 -10 -10 -10 -12 0 -60 -48 -60 -60 0 -6 -4 -10
-10 -10 -12 0 -60 -48 -60 -60 0 -6 -4 -10 -10 -10 -12 0 -60 -48 -60 -60 0
-6 -5 -10 -10 -10 -12 0 -60 -45 -60 -55 0 -8 -27 -35 -35 -35 -8 0 -35 -27
-35 -35 0 -8 -27 -35 -35 -35 -8 0 -35 -27 -35 -35 0 -8 -27 -35 -35 -35 -8 0
-35 -27 -35 -35 0 -8 -27 -35 -35 -35 -10 0 -55 -48 -55 -60 0 -5 -4 -10 -10
-10 -12 0 -60 -48 -60 -60 0 -6 -4 -10 -10 -10 -12 0 -60 -48 -60 -60 0 -6 -4
-10 -10 -10 -12 0 -60 -48 -60 -60 0 -6 -4 -10 -10 -10 -9 0 -60 -47 -60 -56
0 -8 -27 -34 -35 -34 -8 0 -35 -27 -35 -35 0 -8 -27 -35 -35 -35 -8 0 -35 -27
-35 -35 0 -8 -27 -35 -35 -35 -8 0 -35 -27 -35 -35 0 -8 -27 -35 -35 -35 -10
0 -55 -48 -55 -60 0 -5 -4 -10 -10 -10 -12 0 -60 -48 -60 -60 0 -6 -4 -10 -10
-10 -12 0 -60 -48 -60 -60 0 -6 -4 -10 -10 -10 -12 0 -60 -48 -60 -60 0 -6 -4
-10 -10 -10 -12 0 -60 -48 -60 -60 0 -6 -5 -10 -10 -10 -12 0 -60 -45 -60 -55
0 -8 -27 -35 -35 -35 -8 0 -35 -27 -35 -35 0 -8 -27 -35 -35 -35 -8 0 -35 -27
-35 -35 0 -8 -27 -35 -35 -35 -10 0 -55 -48 -55 -60 0 -5 -4 -10 -10 -10 -12
0 -60 -48 -60 -60 0 -6 -4 -10 -10 -10 -5 0 -21 -11 -35 -25 -14 -14 -25 -30
-25 -35 0 -6 -4 -10 -10 -10 -12 0 -60 -48 -60 -60 0 -6 -7 -10 -15 -10 -8 0
-15 -4 -15 -9 0 -5 7 -16 15 -25 8 -8 15 -17 15 -21 0 -3 11 -17 25 -31 14
-14 25 -29 25 -35 0 -5 14 -23 30 -41 17 -17 30 -35 30 -39 0 -5 7 -9 15 -9 8
0 15 -9 15 -20 0 -11 5 -20 10 -20 6 0 16 -11 22 -25 6 -14 17 -25 25 -25 7 0
13 -9 13 -21 0 -11 16 -36 35 -55 19 -18 35 -39 35 -45 0 -6 16 -26 35 -45 19
-18 35 -39 35 -47 0 -7 9 -19 20 -27 11 -8 20 -20 20 -27 0 -7 7 -13 15 -13 8
0 15 -9 15 -20 0 -11 5 -20 10 -20 6 0 10 -7 10 -15 0 -8 6 -15 13 -15 8 0 19
-11 25 -25 6 -14 16 -25 22 -25 5 0 10 -9 10 -20 0 -11 6 -20 14 -20 8 0 17
-11 20 -25 4 -14 13 -25 21 -25 8 0 15 -9 15 -20 0 -11 5 -20 10 -20 6 0 16
-11 22 -25 6 -14 17 -25 25 -25 7 0 13 -11 13 -25 0 -14 6 -25 13 -25 8 0 19
-11 25 -25 6 -14 16 -25 22 -25 5 0 10 -9 10 -20 0 -11 7 -20 15 -20 8 0 15
-5 15 -10 0 -6 14 -24 30 -40 17 -16 30 -34 30 -40 0 -6 11 -21 25 -34 14 -13
25 -28 25 -35 0 -6 5 -11 10 -11 6 0 10 -9 10 -20 0 -11 5 -20 11 -20 14 0 39
-25 39 -39 0 -6 5 -11 10 -11 6 0 10 -9 10 -20 0 -11 5 -20 11 -20 14 0 39
-25 39 -39 0 -6 5 -11 10 -11 6 0 10 -7 10 -15 0 -9 16 -31 35 -49 19 -19 35
-44 35 -55 0 -12 5 -21 11 -21 11 0 39 -25 39 -35 0 -3 11 -17 25 -31 14 -14
25 -29 25 -33 0 -4 14 -22 30 -39 17 -18 30 -35 30 -40 0 -4 11 -19 25 -34 14
-15 25 -31 25 -36 0 -6 7 -12 15 -16 8 -3 15 -11 15 -18 0 -8 9 -20 20 -28 11
-8 20 -20 20 -27 0 -7 5 -13 10 -13 6 0 10 -9 10 -20 0 -11 5 -20 11 -20 12 0
39 -25 39 -37 0 -5 9 -15 20 -23 11 -8 20 -20 20 -27 0 -7 11 -23 25 -37 14
-14 25 -28 25 -31 0 -6 11 -20 38 -50 6 -7 12 -16 12 -20 0 -5 10 -18 68 -80
12 -13 22 -29 22 -35 0 -5 3 -10 8 -10 4 0 16 -16 26 -35 11 -19 23 -35 28
-35 4 0 8 -6 8 -14 0 -8 7 -16 15 -20 8 -3 15 -11 15 -18 0 -8 9 -20 20 -28
11 -8 20 -18 20 -23 0 -4 10 -19 23 -32 35 -38 47 -54 47 -62 0 -5 9 -15 20
-23 11 -8 20 -20 20 -27 0 -7 11 -23 25 -37 14 -14 25 -28 25 -31 0 -7 14 -24
48 -60 12 -13 22 -29 22 -35 0 -5 4 -10 10 -10 5 0 12 -11 16 -25 3 -14 10
-25 15 -25 5 0 9 -16 9 -35 0 -19 5 -35 10 -35 6 0 10 -52 10 -135 0 -83 -4
-135 -10 -135 -5 0 -10 -16 -10 -35 0 -19 -4 -35 -9 -35 -5 0 -13 -10 -17 -22
-4 -13 -15 -30 -25 -39 -11 -9 -19 -26 -19 -38 0 -11 -5 -21 -10 -21 -6 0 -26
-15 -45 -32 -49 -47 -63 -58 -75 -58 -5 0 -10 -4 -10 -8 0 -5 -16 -17 -35 -28
-19 -10 -35 -22 -35 -26 0 -5 -15 -8 -34 -8 -19 0 -36 -5 -38 -12 -6 -17 -240
-18 -245 0 -3 6 -20 12 -39 12 -19 0 -34 3 -34 8 0 4 -20 15 -45 25 -25 11
-45 23 -45 28 0 5 -7 9 -15 9 -8 0 -15 7 -15 15 0 8 -6 15 -12 15 -15 0 -96
87 -104 112 -3 10 -10 18 -15 18 -5 0 -9 5 -9 10 0 6 -10 22 -22 35 -34 36
-48 53 -48 60 0 3 -11 17 -25 31 -14 14 -25 30 -25 37 0 7 -9 19 -20 27 -11 8
-20 20 -20 26 0 7 -7 14 -15 18 -8 3 -15 11 -15 18 0 8 -9 20 -20 28 -11 8
-20 18 -20 23 0 12 -27 37 -39 37 -6 0 -11 9 -11 20 0 11 -4 20 -10 20 -5 0
-10 5 -10 11 0 7 -11 22 -25 35 -14 13 -25 30 -25 39 0 8 -4 15 -10 15 -5 0
-10 4 -10 10 0 5 -10 20 -22 34 -57 63 -68 76 -68 81 0 6 -11 20 -37 50 -7 7
-13 17 -13 20 0 4 -16 22 -35 41 -19 18 -35 40 -35 49 0 8 -7 15 -15 15 -8 0
-15 7 -15 15 0 8 -9 20 -20 27 -11 7 -20 21 -20 30 0 10 -5 18 -10 18 -6 0
-16 11 -22 25 -6 14 -17 25 -25 25 -7 0 -13 9 -13 20 0 11 -4 20 -10 20 -5 0
-10 5 -10 11 0 7 -11 22 -25 35 -14 13 -25 28 -25 34 0 7 -16 27 -35 46 -19
18 -35 38 -35 44 0 6 -20 30 -45 54 -25 25 -45 53 -45 65 0 12 -6 21 -13 21
-8 0 -19 11 -25 25 -6 14 -16 25 -22 25 -5 0 -10 9 -10 20 0 11 -7 20 -15 20
-8 0 -15 7 -15 15 0 8 -9 20 -20 27 -11 7 -20 20 -20 28 0 8 -9 21 -20 28 -11
7 -20 19 -20 27 0 8 -7 15 -15 15 -8 0 -15 7 -15 15 0 15 -5 23 -65 88 -19 21
-35 42 -35 46 0 5 -13 22 -30 39 -16 18 -30 36 -30 42 0 6 -16 26 -35 44 -19
19 -35 44 -35 55 0 12 -5 21 -11 21 -14 0 -39 25 -39 39 0 6 -4 11 -10 11 -5
0 -10 9 -10 20 0 11 -5 20 -11 20 -14 0 -39 25 -39 39 0 6 -4 11 -10 11 -5 0
-10 7 -10 15 0 8 -16 29 -35 48 -19 19 -35 37 -35 41 0 4 -6 14 -12 21 -27 30
-38 44 -38 50 0 5 -11 18 -67 81 -13 14 -23 29 -23 34 0 6 -4 10 -9 10 -5 0
-12 8 -15 18 -4 10 -22 35 -41 56 -19 21 -35 44 -35 50 0 6 -9 18 -20 26 -11
8 -20 18 -20 23 0 10 -26 37 -35 37 -8 0 -35 -27 -35 -35 0 -8 -27 -35 -35
-35 -8 0 -35 -27 -35 -35 0 -8 -27 -35 -35 -35 -8 0 -35 -27 -35 -35 0 -8 -27
-35 -35 -35 -10 0 -55 -48 -55 -60 0 -5 -4 -10 -10 -10 -12 0 -60 -48 -60 -60
0 -6 -4 -10 -10 -10 -12 0 -60 -48 -60 -60 0 -6 -4 -10 -10 -10 -9 0 -60 -47
-60 -56 0 -2 -106 -110 -235 -240 l-235 -235 0 -672 c0 -642 -6 -787 -30 -795
-5 -2 -10 -17 -10 -33 0 -16 -4 -29 -9 -29 -5 0 -12 -11 -15 -25 -4 -14 -11
-25 -16 -25 -6 0 -10 -5 -10 -11 0 -7 -8 -19 -18 -28 -11 -9 -24 -26 -31 -39
-6 -12 -17 -22 -24 -22 -7 0 -19 -9 -27 -20 -8 -11 -20 -20 -27 -20 -7 0 -13
-4 -13 -9 0 -5 -20 -17 -45 -28 -25 -10 -45 -21 -45 -25 0 -5 -15 -8 -34 -8
-19 0 -36 -6 -39 -12 -5 -18 -239 -17 -245 0 -2 7 -19 12 -38 12 -19 0 -34 4
-34 9 0 5 -16 15 -36 21 -19 7 -38 18 -41 26 -3 8 -14 14 -24 14 -10 0 -19 7
-19 15 0 8 -4 15 -10 15 -18 0 -80 68 -80 89 0 12 -5 21 -11 21 -17 0 -39 27
-39 49 0 12 -4 21 -10 21 -5 0 -10 15 -10 34 0 19 -6 36 -12 38 -10 4 -13 574
-13 2808 0 2234 3 2804 13 2807 6 3 12 20 12 39 0 19 5 34 10 34 6 0 10 7 10
15 0 15 6 25 38 60 6 7 12 16 12 20 0 16 153 155 170 155 11 0 20 5 20 10 0 6
9 10 20 10 11 0 20 4 20 9 0 5 23 12 50 16 28 4 50 11 50 16 0 5 34 9 75 9 41
0 75 -4 75 -9z m1380 -7381 c0 -5 9 -10 21 -10 35 0 159 -33 159 -42 0 -4 16
-8 35 -8 19 0 35 -4 35 -9 0 -5 20 -17 45 -27 25 -9 45 -21 45 -25 0 -5 7 -9
15 -9 8 0 15 -4 15 -8 0 -5 10 -14 23 -20 12 -6 16 -11 10 -11 -8 -1 -13 -14
-13 -31 0 -16 -4 -30 -9 -30 -5 0 -17 -20 -27 -45 -9 -25 -21 -45 -25 -45 -5
0 -9 -13 -9 -30 0 -16 -4 -30 -10 -30 -5 0 -10 -7 -10 -15 0 -8 -9 -15 -20
-15 -19 0 -29 6 -65 38 -7 6 -23 12 -34 12 -12 0 -21 5 -21 10 0 6 -11 10 -25
10 -14 0 -25 4 -25 9 0 4 -36 17 -80 27 -44 11 -80 22 -80 27 0 4 -67 7 -150
7 -82 0 -150 -4 -150 -9 0 -5 -14 -14 -31 -20 -18 -6 -45 -24 -60 -41 -26 -27
-29 -37 -29 -95 0 -36 4 -65 9 -65 5 0 13 -10 17 -22 9 -31 44 -62 92 -83 23
-10 42 -22 42 -27 0 -4 11 -8 25 -8 14 0 25 -4 25 -9 0 -4 36 -17 80 -27 44
-11 80 -22 80 -26 0 -5 16 -8 35 -8 19 0 35 -4 35 -9 0 -5 32 -17 70 -27 39
-10 70 -21 70 -26 0 -4 9 -8 20 -8 11 0 20 -4 20 -8 0 -4 16 -14 36 -21 19 -7
38 -19 41 -27 3 -8 14 -14 24 -14 10 0 19 -5 19 -10 0 -6 11 -16 25 -22 14 -6
25 -16 25 -21 0 -5 8 -17 19 -26 10 -9 21 -26 25 -38 4 -13 12 -23 17 -23 5 0
9 -11 9 -25 0 -14 5 -25 10 -25 6 0 10 -20 10 -45 0 -25 5 -45 10 -45 6 0 10
-28 10 -65 0 -37 -4 -65 -10 -65 -5 0 -10 -22 -10 -50 0 -27 -4 -50 -10 -50
-5 0 -10 -11 -10 -25 0 -14 -4 -25 -9 -25 -5 0 -13 -9 -16 -21 -8 -24 -118
-139 -134 -139 -6 0 -11 -4 -11 -10 0 -5 -9 -10 -20 -10 -11 0 -20 -4 -20 -9
0 -5 -11 -12 -25 -15 -14 -4 -25 -11 -25 -16 0 -6 -13 -10 -30 -10 -16 0 -30
-4 -30 -10 0 -5 -22 -10 -49 -10 -31 0 -51 -5 -54 -12 -3 -10 -46 -13 -172
-13 -126 0 -169 3 -173 13 -2 7 -21 12 -48 12 -24 0 -44 5 -44 10 0 6 -20 10
-45 10 -25 0 -45 4 -45 10 0 5 -11 12 -25 16 -14 3 -25 10 -25 15 0 5 -11 9
-25 9 -14 0 -25 5 -25 10 0 6 -9 10 -20 10 -11 0 -20 5 -20 10 0 6 -7 10 -15
10 -8 0 -25 11 -39 25 -14 14 -32 25 -41 25 -9 0 -34 18 -56 40 l-41 40 19 45
c10 25 21 45 26 45 4 0 7 9 7 20 0 11 5 20 10 20 6 0 10 9 10 20 0 12 5 26 10
33 6 7 20 23 32 37 13 16 22 21 25 13 3 -7 9 -13 14 -13 6 0 21 -11 35 -25 14
-14 36 -28 49 -31 14 -3 25 -12 25 -20 0 -8 9 -14 20 -14 11 0 20 -3 20 -7 0
-5 20 -16 45 -26 25 -11 45 -23 45 -28 0 -5 13 -9 29 -9 16 0 31 -4 33 -9 5
-16 153 -41 240 -41 117 0 199 22 242 62 18 18 37 43 41 56 3 12 11 22 16 22
5 0 9 27 9 60 0 33 -4 60 -9 60 -5 0 -12 8 -15 18 -9 27 -52 72 -70 72 -9 0
-16 4 -16 9 0 5 -11 12 -25 15 -14 4 -25 11 -25 16 0 6 -11 10 -25 10 -14 0
-25 5 -25 10 0 6 -14 10 -31 10 -17 0 -37 7 -45 15 -9 8 -26 15 -40 15 -13 0
-24 5 -24 10 0 6 -20 10 -45 10 -25 0 -45 5 -45 10 0 6 -16 10 -35 10 -19 0
-35 4 -35 9 0 5 -20 14 -44 20 -25 6 -51 18 -60 26 -8 8 -24 15 -35 15 -12 0
-21 4 -21 9 0 5 -16 15 -35 21 -19 6 -35 18 -35 26 0 8 -5 14 -10 14 -14 0
-60 46 -60 60 0 5 -7 10 -15 10 -8 0 -15 7 -15 15 0 8 -4 15 -10 15 -5 0 -10
9 -10 20 0 11 -4 20 -10 20 -5 0 -10 15 -10 34 0 19 -6 36 -12 39 -9 2 -13 34
-13 112 0 78 4 110 13 113 6 2 12 19 12 38 0 19 5 34 10 34 6 0 10 7 10 15 0
9 11 26 25 39 14 13 25 26 25 30 0 9 47 56 56 56 4 0 14 8 23 19 9 10 26 21
39 25 12 4 22 12 22 17 0 5 11 9 25 9 14 0 25 4 25 9 0 11 96 41 129 41 12 0
21 5 21 10 0 6 67 10 180 10 113 0 180 -4 180 -10z m5190 2 c0 -4 30 -13 68
-20 105 -19 122 -24 122 -33 0 -5 14 -9 30 -9 17 0 30 -4 30 -8 0 -4 23 -16
50 -27 28 -11 50 -23 50 -27 0 -4 7 -8 15 -8 8 0 15 -4 15 -9 0 -5 10 -13 21
-16 12 -4 17 -10 12 -14 -5 -3 -17 -27 -27 -53 -10 -27 -22 -48 -27 -48 -5 0
-9 -11 -9 -25 0 -14 -4 -25 -8 -25 -4 0 -14 -20 -21 -45 -11 -37 -17 -45 -37
-45 -13 0 -24 4 -24 10 0 5 -11 12 -25 16 -14 3 -25 10 -25 15 0 5 -9 9 -20 9
-11 0 -20 5 -20 10 0 6 -11 10 -25 10 -14 0 -25 4 -25 9 0 5 -12 11 -27 14
-90 18 -133 31 -133 38 0 5 -67 9 -150 9 -82 0 -150 -4 -150 -9 0 -5 -11 -12
-25 -15 -14 -4 -41 -22 -60 -40 -33 -32 -35 -38 -35 -100 0 -37 4 -66 10 -66
6 0 10 -11 10 -25 0 -14 5 -25 10 -25 6 0 22 -11 35 -24 13 -14 40 -30 60 -37
19 -7 35 -17 35 -21 0 -4 11 -8 25 -8 14 0 25 -4 25 -9 0 -4 36 -17 80 -27 44
-11 80 -22 80 -26 0 -5 15 -8 34 -8 19 0 36 -5 38 -11 3 -9 46 -24 111 -36 15
-3 27 -9 27 -14 0 -5 9 -9 20 -9 11 0 20 -4 20 -8 0 -4 16 -14 36 -21 19 -7
38 -19 41 -27 3 -8 14 -14 24 -14 10 0 19 -7 19 -15 0 -8 6 -15 13 -15 20 0
72 -64 93 -114 10 -25 22 -46 27 -46 4 0 7 -20 7 -45 0 -25 5 -45 10 -45 6 0
10 -28 10 -65 0 -37 -4 -65 -10 -65 -5 0 -10 -22 -10 -50 0 -27 -3 -50 -7 -50
-5 0 -16 -20 -26 -45 -11 -25 -23 -45 -28 -45 -5 0 -9 -5 -9 -10 0 -14 -46
-60 -60 -60 -5 0 -10 -5 -10 -11 0 -14 -25 -39 -39 -39 -6 0 -11 -4 -11 -10 0
-5 -9 -10 -20 -10 -11 0 -20 -4 -20 -9 0 -5 -11 -12 -25 -15 -14 -4 -25 -11
-25 -16 0 -6 -16 -10 -35 -10 -19 0 -35 -4 -35 -10 0 -5 -20 -10 -44 -10 -27
0 -46 -5 -48 -12 -4 -10 -47 -13 -173 -13 -126 0 -169 3 -172 13 -3 7 -22 12
-49 12 -24 0 -44 5 -44 10 0 6 -20 10 -45 10 -25 0 -45 4 -45 9 0 5 -11 12
-25 15 -14 4 -25 11 -25 16 0 6 -11 10 -25 10 -14 0 -25 5 -25 10 0 6 -9 10
-20 10 -19 0 -29 6 -65 38 -7 6 -18 12 -24 12 -6 0 -11 5 -11 10 0 6 -7 10
-16 10 -24 0 -94 74 -94 99 0 11 4 21 9 21 4 0 16 20 25 45 10 25 22 45 27 45
5 0 9 11 9 25 0 14 4 25 9 25 5 0 14 14 21 30 12 28 40 42 40 20 0 -5 5 -10
11 -10 7 0 19 -8 28 -19 9 -10 31 -26 49 -35 17 -9 32 -21 32 -26 0 -6 9 -10
20 -10 11 0 20 -4 20 -9 0 -4 20 -16 45 -25 25 -10 45 -22 45 -27 0 -5 11 -9
25 -9 14 0 25 -4 25 -8 0 -15 164 -42 250 -42 90 0 202 21 208 39 2 6 8 11 13
11 15 0 56 44 63 68 4 12 12 22 17 22 14 0 11 109 -3 125 -28 31 -38 44 -38
50 0 13 -29 35 -45 35 -9 0 -23 6 -30 13 -36 31 -46 37 -65 37 -11 0 -20 5
-20 10 0 6 -16 10 -35 10 -19 0 -35 4 -35 10 0 5 -16 12 -35 16 -19 3 -35 10
-35 15 0 5 -20 9 -45 9 -25 0 -45 5 -45 10 0 6 -16 10 -35 10 -19 0 -35 4 -35
8 0 5 -27 16 -60 26 -33 10 -60 22 -60 27 0 5 -11 9 -25 9 -14 0 -25 4 -25 9
0 5 -9 13 -21 16 -24 8 -139 118 -139 134 0 6 -4 11 -10 11 -5 0 -10 9 -10 20
0 11 -4 20 -9 20 -13 0 -41 128 -41 186 0 54 29 184 42 184 4 0 8 7 8 15 0 8
7 23 15 33 40 46 105 112 110 112 4 0 13 6 20 13 36 31 46 37 65 37 11 0 20 4
20 8 0 10 108 42 140 42 11 0 20 5 20 10 0 6 65 10 175 10 96 0 175 -4 175 -8z
m-15102 -529 c1 -331 6 -513 12 -513 6 0 10 -29 10 -65 0 -36 4 -65 8 -65 4 0
16 -22 25 -48 10 -26 26 -54 37 -62 11 -8 20 -19 20 -25 1 -15 36 -55 50 -55
6 0 21 -9 33 -21 12 -11 34 -23 50 -26 15 -3 27 -9 27 -14 0 -5 18 -9 40 -9
22 0 40 -4 40 -10 0 -6 42 -10 105 -10 63 0 105 4 105 10 0 6 18 10 40 10 22
0 40 4 40 8 0 4 16 14 36 21 19 7 38 19 41 27 3 8 14 14 24 14 10 0 19 6 19
13 0 8 11 20 25 27 14 7 25 22 25 32 0 10 5 18 10 18 6 0 10 9 10 20 0 19 6
29 38 65 7 8 12 41 12 79 0 37 4 66 10 66 7 0 10 178 10 515 l0 515 140 0 140
0 0 -580 c0 -319 -3 -580 -7 -580 -5 0 -16 -36 -27 -80 -10 -44 -23 -80 -27
-80 -5 0 -9 -11 -9 -25 0 -14 -4 -25 -8 -25 -5 0 -17 -16 -28 -35 -10 -19 -22
-35 -26 -35 -5 0 -8 -5 -8 -10 0 -14 -46 -60 -60 -60 -5 0 -10 -5 -10 -11 0
-14 -25 -39 -39 -39 -6 0 -11 -4 -11 -10 0 -5 -9 -10 -20 -10 -11 0 -20 -4
-20 -10 0 -5 -11 -12 -25 -16 -14 -3 -25 -10 -25 -15 0 -5 -9 -9 -20 -9 -11 0
-20 -4 -20 -10 0 -5 -15 -10 -34 -10 -19 0 -36 -5 -38 -11 -2 -5 -22 -13 -46
-16 -23 -3 -42 -10 -42 -14 0 -5 -81 -9 -180 -9 -99 0 -180 4 -180 9 0 4 -19
11 -42 14 -24 3 -44 11 -46 16 -2 6 -19 11 -38 11 -19 0 -34 5 -34 10 0 6 -9
10 -21 10 -11 0 -27 6 -34 13 -35 31 -45 37 -60 37 -8 0 -15 5 -15 10 0 6 -5
10 -11 10 -15 0 -127 117 -134 141 -4 10 -11 19 -16 19 -5 0 -9 7 -9 15 0 8
-4 15 -10 15 -5 0 -10 14 -10 30 0 17 -4 30 -9 30 -5 0 -12 14 -16 30 -4 17
-11 30 -16 30 -5 0 -9 20 -9 45 0 25 -4 45 -10 45 -7 0 -10 200 -10 580 l0
581 138 -3 137 -3 3 -512z m1885 503 c9 -7 17 -18 17 -25 0 -6 4 -11 8 -11 5
0 17 -16 28 -35 10 -19 22 -35 26 -35 5 0 8 -5 8 -10 0 -6 10 -22 23 -35 35
-38 47 -54 47 -62 0 -5 9 -15 20 -23 11 -8 20 -20 20 -28 0 -7 7 -15 15 -18 8
-4 15 -12 15 -20 0 -8 5 -14 10 -14 6 0 10 -7 10 -15 0 -9 16 -31 35 -49 19
-19 35 -44 35 -55 0 -12 6 -21 13 -21 8 0 19 -11 25 -25 6 -14 16 -25 22 -25
5 0 10 -9 10 -20 0 -11 6 -20 13 -20 8 0 19 -11 25 -25 6 -14 16 -25 22 -25 5
0 10 -9 10 -20 0 -11 5 -20 10 -20 6 0 16 -11 22 -25 6 -14 17 -25 25 -25 7 0
13 -7 13 -15 0 -14 6 -23 50 -72 11 -13 20 -30 20 -38 0 -8 6 -15 13 -15 6 0
19 -15 26 -32 8 -18 23 -40 33 -49 10 -9 18 -19 18 -23 0 -7 13 -24 48 -61 12
-13 22 -27 22 -30 0 -6 11 -20 38 -50 6 -7 12 -17 12 -21 0 -3 8 -14 19 -23
10 -9 21 -26 25 -38 22 -70 26 16 26 572 l0 596 138 -3 137 -3 0 -835 0 -835
-137 -3 c-114 -2 -139 0 -150 13 -7 9 -19 22 -25 30 -7 7 -13 16 -13 20 0 3
-10 17 -22 30 -38 40 -48 54 -48 65 0 5 -4 10 -10 10 -5 0 -10 8 -10 18 0 10
-11 25 -25 32 -14 7 -25 19 -25 27 0 7 -4 13 -10 13 -5 0 -10 7 -10 15 0 8 -8
24 -17 35 -10 11 -26 29 -35 40 -10 11 -18 27 -18 35 0 8 -7 15 -15 15 -8 0
-15 7 -15 15 0 8 -9 20 -20 27 -11 7 -20 21 -20 30 0 10 -6 18 -14 18 -8 0
-17 11 -20 25 -4 14 -13 25 -21 25 -8 0 -15 9 -15 20 0 11 -5 20 -10 20 -6 0
-18 16 -27 35 -9 19 -20 35 -25 35 -4 0 -8 5 -8 10 0 6 -11 22 -25 36 -14 14
-25 30 -25 37 0 7 -9 19 -20 27 -11 8 -20 20 -20 26 0 7 -7 14 -15 18 -8 3
-15 12 -15 21 0 8 -4 15 -10 15 -5 0 -10 5 -10 10 0 6 -10 22 -22 35 -36 38
-48 54 -48 62 0 5 -9 15 -20 23 -11 8 -20 20 -20 28 0 7 -7 15 -15 18 -8 4
-15 12 -15 20 0 8 -4 14 -10 14 -5 0 -10 9 -10 20 0 11 -5 20 -10 20 -6 0 -16
11 -22 25 -6 14 -17 25 -25 25 -7 0 -13 11 -13 25 0 14 -4 25 -10 25 -6 0 -11
-209 -12 -592 l-3 -593 -137 -3 -138 -3 0 841 0 840 133 0 c94 -1 137 -4 150
-14z m1897 -826 l0 -840 -140 0 -140 0 0 840 0 840 140 0 140 0 0 -840z m514
834 c9 -3 16 -15 16 -25 0 -10 4 -19 9 -19 5 0 12 -16 15 -35 4 -19 11 -35 16
-35 6 0 10 -16 10 -35 0 -19 5 -35 10 -35 6 0 10 -11 10 -25 0 -14 5 -25 10
-25 6 0 10 -9 10 -19 0 -11 7 -26 15 -35 8 -8 15 -24 15 -35 0 -12 5 -21 10
-21 6 0 10 -16 10 -35 0 -19 4 -35 10 -35 5 0 12 -16 16 -35 3 -19 10 -35 15
-35 5 0 9 -11 9 -25 0 -14 5 -25 10 -25 6 0 10 -13 10 -30 0 -16 4 -30 10 -30
5 0 12 -16 16 -35 3 -19 10 -35 15 -35 5 0 9 -13 9 -30 0 -16 5 -30 10 -30 6
0 10 -13 10 -30 0 -16 4 -30 9 -30 5 0 17 -27 27 -60 10 -33 21 -60 26 -60 4
0 8 -16 8 -35 0 -19 4 -35 10 -35 5 0 17 -25 25 -55 9 -30 21 -55 26 -55 5 0
9 -16 9 -35 0 -19 4 -35 9 -35 5 0 17 -27 27 -60 11 -33 22 -60 27 -60 4 0 7
-11 7 -25 0 -14 4 -25 10 -25 11 0 40 53 40 75 0 8 5 15 10 15 6 0 10 11 10
25 0 14 4 25 8 25 5 0 16 27 25 60 10 33 22 60 27 60 6 0 10 16 10 35 0 19 5
35 10 35 6 0 10 16 10 35 0 19 4 35 10 35 5 0 12 11 16 25 3 14 10 25 15 25 5
0 9 14 9 30 0 17 5 30 10 30 6 0 10 11 10 25 0 14 4 25 9 25 5 0 12 16 15 35
4 19 11 35 16 35 6 0 10 16 10 35 0 19 5 35 10 35 6 0 10 9 10 21 0 11 7 27
15 35 8 9 15 24 15 35 0 10 5 19 10 19 6 0 10 11 10 25 0 14 5 25 10 25 6 0
10 16 10 35 0 19 4 35 8 35 5 0 16 27 26 60 10 33 22 60 27 60 5 0 9 14 9 30
0 17 4 30 9 30 4 0 16 27 25 60 9 33 21 60 27 60 5 0 9 13 9 30 0 16 8 39 17
50 16 18 30 20 144 20 70 0 134 -3 143 -6 17 -7 22 -44 6 -44 -5 0 -10 -11
-10 -25 0 -14 -4 -25 -10 -25 -5 0 -10 -13 -10 -30 0 -16 -4 -30 -9 -30 -5 0
-12 -13 -16 -30 -4 -16 -11 -30 -16 -30 -5 0 -9 -13 -9 -30 0 -16 -4 -30 -10
-30 -5 0 -10 -11 -10 -25 0 -14 -4 -25 -10 -25 -5 0 -17 -25 -25 -55 -9 -30
-21 -55 -26 -55 -5 0 -9 -11 -9 -25 0 -14 -4 -25 -10 -25 -5 0 -10 -8 -10 -17
0 -25 -31 -103 -41 -103 -5 0 -9 -13 -9 -30 0 -16 -4 -30 -8 -30 -5 0 -17 -27
-28 -60 -10 -33 -22 -60 -26 -60 -5 0 -8 -11 -8 -25 0 -14 -4 -25 -8 -25 -5 0
-16 -27 -26 -60 -10 -33 -22 -60 -27 -60 -5 0 -9 -9 -9 -20 0 -11 -4 -20 -10
-20 -5 0 -10 -8 -10 -17 0 -25 -31 -103 -41 -103 -5 0 -9 -16 -9 -35 0 -19 -4
-35 -10 -35 -5 0 -10 -11 -10 -25 0 -14 -4 -25 -10 -25 -5 0 -10 -9 -10 -19 0
-11 -7 -26 -15 -35 -8 -8 -15 -24 -15 -35 0 -12 -4 -21 -10 -21 -5 0 -10 -16
-10 -35 0 -19 -4 -35 -10 -35 -5 0 -12 -11 -16 -25 -3 -14 -10 -25 -15 -25 -5
0 -9 -13 -9 -30 0 -16 -4 -30 -10 -30 -5 0 -10 -11 -10 -25 0 -14 -4 -25 -10
-25 -5 0 -12 -16 -16 -35 -3 -19 -10 -35 -15 -35 -5 0 -9 -7 -9 -15 0 -13 -23
-15 -150 -15 -127 0 -150 2 -150 15 0 8 -4 15 -9 15 -5 0 -12 10 -16 23 -18
67 -29 97 -37 97 -4 0 -8 14 -8 30 0 17 -4 30 -10 30 -5 0 -10 11 -10 25 0 14
-4 25 -10 25 -5 0 -12 16 -16 35 -3 19 -10 35 -15 35 -5 0 -9 11 -9 25 0 14
-4 25 -10 25 -5 0 -10 14 -10 30 0 17 -4 30 -9 30 -5 0 -12 11 -15 25 -4 14
-11 25 -16 25 -6 0 -10 16 -10 35 0 19 -4 35 -10 35 -5 0 -10 9 -10 21 0 11
-7 27 -15 35 -8 9 -15 26 -15 40 0 13 -4 24 -10 24 -5 0 -10 11 -10 25 0 14
-4 25 -10 25 -5 0 -10 14 -10 30 0 17 -4 30 -10 30 -5 0 -12 11 -16 25 -3 14
-10 25 -15 25 -5 0 -9 11 -9 25 0 14 -4 25 -10 25 -5 0 -10 14 -10 30 0 17 -4
30 -9 30 -4 0 -16 27 -25 60 -9 33 -21 60 -27 60 -5 0 -9 11 -9 25 0 14 -3 25
-7 25 -5 0 -16 27 -27 60 -10 33 -22 60 -27 60 -5 0 -9 14 -9 30 0 17 -4 30
-9 30 -5 0 -17 27 -27 60 -10 33 -21 60 -26 60 -4 0 -8 11 -8 25 0 14 -3 25
-8 25 -4 0 -16 27 -26 60 -11 33 -23 60 -28 60 -4 0 -8 13 -8 29 0 16 -6 32
-12 34 -10 4 -9 8 2 16 16 11 267 15 294 5z m2760 0 c13 -5 16 -26 16 -130 l0
-124 -460 0 -460 0 0 -220 0 -220 405 0 c353 0 405 -2 405 -15 0 -8 5 -15 10
-15 6 0 10 -43 10 -109 0 -90 -3 -110 -16 -115 -9 -3 -195 -6 -415 -6 l-399 0
0 -230 0 -230 470 0 470 0 0 -125 c0 -121 -1 -125 -22 -130 -13 -3 -288 -4
-613 -3 l-590 3 -3 825 c-1 454 0 831 3 838 3 9 130 12 589 12 321 0 591 -3
600 -6z m1246 -8 c52 -8 96 -19 98 -25 2 -6 19 -11 38 -11 19 0 34 -4 34 -9 0
-5 20 -17 45 -27 25 -9 45 -21 45 -25 0 -5 7 -9 15 -9 19 0 125 -106 125 -125
0 -8 5 -15 10 -15 6 0 10 -5 10 -11 0 -6 7 -17 15 -25 8 -9 15 -24 15 -35 0
-10 5 -19 10 -19 6 0 10 -16 10 -35 0 -19 5 -35 10 -35 6 0 10 -57 10 -150 0
-93 -4 -150 -10 -150 -5 0 -10 -18 -10 -40 0 -22 -4 -40 -10 -40 -5 0 -10 -9
-10 -19 0 -11 -7 -26 -15 -35 -8 -8 -15 -22 -15 -31 0 -24 -165 -185 -190
-185 -11 0 -20 -4 -20 -10 0 -5 -11 -12 -25 -16 -27 -7 -36 -44 -10 -44 9 0
15 -9 15 -23 0 -12 9 -29 20 -37 11 -8 20 -20 20 -28 0 -7 7 -15 15 -18 8 -4
15 -12 15 -20 0 -8 5 -14 10 -14 6 0 10 -9 10 -20 0 -11 5 -20 10 -20 6 0 10
-7 10 -15 0 -8 7 -15 15 -15 8 0 15 -9 15 -20 0 -11 5 -20 10 -20 6 0 10 -7
10 -15 0 -8 5 -15 10 -15 6 0 10 -7 10 -15 0 -9 7 -18 15 -21 8 -4 15 -12 15
-20 0 -8 5 -14 10 -14 6 0 10 -9 10 -20 0 -11 5 -20 10 -20 6 0 10 -7 10 -15
0 -8 7 -15 15 -15 9 0 15 -9 15 -25 0 -14 5 -25 10 -25 6 0 10 -9 10 -20 0
-11 7 -20 15 -20 23 0 18 -17 -7 -24 -13 -3 -82 -6 -154 -6 -149 0 -160 5
-189 78 -10 23 -21 42 -26 42 -5 0 -9 7 -9 15 0 8 -4 15 -8 15 -5 0 -17 18
-27 40 -10 22 -22 40 -27 40 -4 0 -8 7 -8 15 0 8 -3 15 -7 15 -5 0 -16 20 -26
45 -11 25 -23 45 -28 45 -5 0 -9 7 -9 15 0 8 -4 15 -8 15 -5 0 -17 19 -27 42
-10 23 -29 53 -41 65 -23 23 -27 23 -248 23 l-226 0 -2 -252 -3 -253 -140 0
-140 0 -3 825 c-1 454 0 831 3 838 7 18 726 17 855 -2z m2650 -826 l0 -840
-140 0 -140 0 0 840 0 840 140 0 140 0 0 -840z m1578 708 l3 -128 -266 0 -265
0 -2 -707 -3 -708 -140 0 -140 0 -3 708 -2 707 -265 0 -265 0 0 130 0 130 673
-2 672 -3 3 -127z m886 126 c9 -3 16 -15 16 -25 0 -10 4 -19 9 -19 5 0 12 -11
15 -25 4 -14 11 -25 16 -25 6 0 10 -13 10 -30 0 -16 5 -30 10 -30 6 0 10 -11
10 -25 0 -14 4 -25 8 -25 4 0 16 -22 26 -50 10 -27 22 -50 27 -50 5 0 9 -13 9
-30 0 -16 4 -30 8 -30 4 0 16 -22 26 -50 10 -27 22 -50 27 -50 5 0 9 -16 9
-35 0 -19 4 -35 9 -35 5 0 17 -20 27 -45 9 -25 21 -45 25 -45 5 0 9 -11 9 -25
0 -14 4 -25 8 -25 4 0 14 -20 21 -46 7 -25 20 -51 27 -59 8 -7 14 -23 14 -34
0 -12 4 -21 9 -21 4 0 16 -25 26 -55 9 -30 21 -55 26 -55 5 0 9 -11 9 -25 0
-14 5 -25 10 -25 6 0 10 -9 10 -21 0 -11 7 -27 15 -35 8 -9 15 -26 15 -40 0
-13 5 -24 10 -24 6 0 10 -9 10 -20 0 -11 5 -20 10 -20 6 0 10 -11 10 -25 0
-14 4 -25 9 -25 5 0 12 -11 15 -25 4 -14 11 -25 16 -25 6 0 10 -13 10 -30 0
-16 5 -30 10 -30 6 0 10 -11 10 -25 0 -24 5 -33 38 -70 6 -7 12 -27 12 -44 0
-17 5 -31 10 -31 6 0 10 -9 10 -20 0 -11 4 -20 9 -20 5 0 12 -11 15 -25 4 -14
11 -25 16 -25 6 0 10 -11 10 -25 0 -14 5 -25 10 -25 16 0 11 -37 -6 -44 -9 -3
-76 -6 -150 -6 -112 0 -134 2 -134 15 0 8 -4 15 -9 15 -4 0 -16 20 -25 45 -10
25 -22 45 -27 45 -5 0 -9 16 -9 35 0 19 -4 35 -9 35 -5 0 -17 23 -27 50 -10
28 -22 50 -26 50 -4 0 -8 11 -8 25 0 14 -8 34 -17 45 -17 19 -29 20 -426 20
-437 0 -437 0 -437 -49 0 -12 -4 -21 -10 -21 -5 0 -12 -11 -16 -25 -3 -14 -10
-25 -15 -25 -5 0 -9 -16 -9 -35 0 -19 -4 -35 -10 -35 -5 0 -10 -9 -10 -20 0
-11 -4 -20 -9 -20 -5 0 -12 -11 -15 -25 -4 -14 -11 -25 -16 -25 -6 0 -10 -16
-10 -35 0 -19 -4 -35 -10 -35 -5 0 -10 -7 -10 -15 0 -13 -22 -15 -134 -15 -74
0 -141 3 -150 6 -17 7 -22 44 -6 44 6 0 10 11 10 25 0 14 4 25 9 25 4 0 16 20
25 45 10 25 22 45 27 45 5 0 9 16 9 35 0 19 4 35 10 35 5 0 17 23 27 50 10 28
21 50 25 50 5 0 8 9 8 20 0 11 4 20 8 20 4 0 13 20 20 44 6 24 18 51 27 59 8
9 15 25 15 36 0 12 5 21 10 21 6 0 10 11 10 25 0 14 4 25 9 25 5 0 12 16 15
35 4 19 11 35 16 35 6 0 10 9 10 20 0 11 5 20 10 20 6 0 10 11 10 25 0 14 4
25 9 25 5 0 12 11 15 25 4 14 11 25 16 25 6 0 10 14 10 30 0 17 5 30 10 30 6
0 10 11 10 25 0 14 4 25 9 25 5 0 12 11 15 25 4 14 11 25 16 25 6 0 10 11 10
25 0 14 5 25 10 25 6 0 10 14 10 30 0 17 4 30 9 30 5 0 12 11 15 25 4 14 11
25 16 25 6 0 10 11 10 25 0 14 5 25 10 25 6 0 10 16 10 35 0 19 4 35 9 35 5 0
17 20 27 45 9 25 21 45 25 45 5 0 9 11 9 25 0 14 4 25 9 25 5 0 17 25 26 55 8
30 20 55 25 55 6 0 10 11 10 24 0 13 3 26 8 28 10 4 42 75 42 93 0 7 6 16 13
18 18 8 272 8 291 1z m4109 -15 c31 -6 57 -16 57 -20 0 -5 16 -9 35 -9 19 0
35 -4 35 -8 0 -4 23 -16 50 -26 28 -10 50 -22 50 -27 0 -5 9 -9 20 -9 11 0 20
-4 20 -10 0 -5 11 -12 25 -16 14 -3 25 -10 25 -15 0 -5 5 -9 11 -9 7 0 19 -8
28 -18 9 -10 28 -25 44 -35 33 -21 36 -61 7 -79 -11 -7 -20 -21 -20 -30 0 -10
-7 -18 -15 -18 -8 0 -15 -4 -15 -8 0 -4 -16 -25 -35 -46 -19 -21 -35 -45 -35
-52 0 -8 -9 -14 -20 -14 -11 0 -20 5 -20 10 0 12 -45 60 -55 60 -4 0 -13 6
-20 13 -33 29 -45 37 -55 37 -5 0 -10 5 -10 10 0 6 -9 10 -21 10 -11 0 -27 6
-34 14 -8 7 -41 19 -74 27 -34 7 -61 17 -61 21 0 10 -247 11 -252 1 -4 -9 -99
-43 -120 -43 -7 0 -20 -9 -28 -20 -8 -11 -23 -20 -33 -20 -20 0 -47 -22 -47
-39 0 -6 -9 -11 -21 -11 -19 0 -49 -21 -49 -35 0 -7 -14 -24 -47 -60 -13 -13
-23 -33 -23 -45 0 -11 -4 -20 -9 -20 -5 0 -17 -20 -27 -45 -9 -25 -21 -45 -25
-45 -5 0 -9 -20 -9 -45 0 -25 -4 -45 -10 -45 -6 0 -10 -38 -10 -95 0 -57 4
-95 10 -95 6 0 10 -27 10 -60 0 -33 4 -60 9 -60 5 0 17 -20 27 -45 9 -25 21
-45 25 -45 5 0 9 -7 9 -15 0 -8 5 -15 10 -15 6 0 10 -9 10 -20 0 -11 7 -20 15
-20 8 0 15 -5 15 -10 0 -11 45 -60 55 -60 3 0 17 -10 30 -22 44 -42 54 -48 75
-48 11 0 20 -4 20 -9 0 -5 23 -17 50 -27 28 -10 50 -22 50 -26 0 -4 77 -8 170
-8 107 0 170 4 170 10 0 6 9 10 20 10 22 0 93 31 98 43 2 4 12 7 23 7 10 0 19
5 19 10 0 6 5 10 10 10 10 0 22 8 55 38 7 6 17 12 22 12 5 0 15 9 23 20 15 20
50 28 50 11 0 -6 23 -32 50 -59 28 -27 50 -52 50 -55 0 -3 12 -18 26 -32 29
-29 28 -45 -4 -60 -12 -5 -22 -15 -22 -22 0 -7 -7 -13 -15 -13 -8 0 -15 -4
-15 -10 0 -5 -9 -10 -20 -10 -11 0 -20 -7 -20 -15 0 -8 -7 -15 -15 -15 -8 0
-15 -4 -15 -10 0 -5 -9 -10 -20 -10 -11 0 -20 -4 -20 -10 0 -5 -9 -10 -20 -10
-11 0 -20 -4 -20 -9 0 -5 -11 -12 -25 -15 -14 -4 -25 -11 -25 -16 0 -6 -11
-10 -25 -10 -14 0 -25 -4 -25 -10 0 -5 -16 -10 -35 -10 -19 0 -35 -4 -35 -9 0
-6 -20 -13 -45 -17 -25 -3 -45 -10 -45 -15 0 -5 -72 -9 -160 -9 -89 0 -160 4
-160 9 0 5 -22 12 -50 16 -27 4 -50 11 -50 16 0 5 -16 9 -35 9 -19 0 -35 5
-35 10 0 6 -14 10 -30 10 -29 0 -38 5 -75 38 -7 6 -18 12 -24 12 -6 0 -11 5
-11 10 0 6 -7 10 -16 10 -9 0 -27 11 -40 25 -13 14 -28 25 -33 25 -17 0 -141
129 -141 145 0 8 -6 15 -13 15 -7 0 -19 16 -27 35 -8 19 -17 35 -22 35 -4 0
-8 7 -8 15 0 8 -4 15 -9 15 -5 0 -17 25 -26 55 -10 30 -22 55 -26 55 -5 0 -9
16 -9 35 0 19 -4 35 -10 35 -6 0 -10 30 -10 70 0 40 -4 70 -10 70 -6 0 -10 33
-10 80 0 47 4 80 10 80 6 0 10 30 10 70 0 40 4 70 10 70 6 0 10 16 10 35 0 19
4 35 10 35 5 0 12 12 16 28 9 44 26 82 35 82 5 0 9 7 9 15 0 8 4 15 9 15 5 0
15 16 22 35 7 19 19 35 26 35 7 0 13 6 13 14 0 18 128 146 146 146 8 0 14 5
14 10 0 6 16 18 35 27 19 9 35 20 35 25 0 4 7 8 15 8 8 0 15 4 15 9 0 5 25 17
55 26 30 8 55 20 55 25 0 6 16 10 35 10 19 0 35 4 35 9 0 4 33 13 73 20 39 6
83 13 97 15 42 8 241 -3 303 -15z m1012 -819 l0 -835 -137 -3 -138 -3 0 841 0
841 138 -3 137 -3 0 -835z m1333 820 c34 -8 62 -17 62 -22 0 -4 11 -8 25 -8
14 0 25 -4 25 -9 0 -5 12 -11 28 -14 15 -3 37 -15 49 -26 12 -12 27 -21 32
-21 14 0 109 -99 116 -121 4 -10 11 -19 16 -19 5 0 9 -5 9 -11 0 -6 6 -16 13
-24 7 -7 19 -38 27 -69 7 -31 17 -56 22 -56 4 0 8 -67 8 -150 0 -82 -4 -150
-8 -150 -4 0 -14 -27 -21 -61 -8 -33 -20 -66 -27 -74 -8 -7 -14 -21 -14 -30 0
-24 -165 -185 -190 -185 -11 0 -20 -4 -20 -10 0 -5 -11 -12 -25 -16 -14 -3
-25 -10 -25 -15 0 -5 -13 -9 -30 -9 -16 0 -30 -4 -30 -10 0 -5 -22 -10 -49
-10 -31 0 -51 -5 -53 -12 -4 -10 -70 -14 -276 -16 l-272 -4 -2 -251 -3 -252
-140 0 -140 0 -3 825 c-1 454 0 831 3 838 7 19 800 12 893 -8z m973 -535 c6
-525 10 -605 30 -605 5 0 9 -11 9 -25 0 -14 4 -25 8 -25 4 0 14 -16 21 -35 7
-19 19 -35 27 -35 8 0 14 -9 14 -20 0 -11 5 -20 10 -20 6 0 10 -7 10 -15 0 -9
9 -15 23 -15 12 0 29 -9 37 -20 8 -11 29 -23 47 -26 18 -3 33 -10 33 -15 0 -5
16 -9 35 -9 19 0 35 -4 35 -10 0 -6 42 -10 105 -10 63 0 105 4 105 10 0 6 20
10 45 10 25 0 45 4 45 9 0 5 16 15 36 21 19 7 38 18 41 26 3 8 14 14 24 14 10
0 19 5 19 10 0 6 10 22 23 35 41 44 47 54 47 75 0 11 5 20 10 20 6 0 10 9 10
19 0 11 5 21 10 23 6 2 13 33 17 71 3 37 10 67 14 67 5 0 9 232 9 515 l0 516
138 -3 137 -3 3 -530 c2 -442 0 -545 -13 -620 -9 -49 -20 -91 -25 -93 -6 -2
-10 -19 -10 -38 0 -19 -4 -34 -8 -34 -4 0 -14 -16 -21 -36 -7 -19 -19 -38 -27
-41 -8 -3 -14 -14 -14 -24 0 -10 -5 -19 -10 -19 -6 0 -16 -11 -22 -25 -6 -14
-15 -25 -20 -25 -11 0 -38 -25 -38 -35 0 -10 -28 -35 -39 -35 -6 0 -11 -4 -11
-10 0 -5 -9 -10 -20 -10 -11 0 -20 -4 -20 -9 0 -5 -11 -12 -25 -15 -14 -4 -25
-11 -25 -16 0 -6 -11 -10 -25 -10 -14 0 -25 -4 -25 -10 0 -5 -13 -10 -29 -10
-16 0 -31 -5 -33 -11 -2 -6 -25 -13 -51 -16 -26 -3 -47 -10 -47 -14 0 -5 -79
-9 -175 -9 -110 0 -175 4 -175 10 0 6 -15 10 -34 10 -19 0 -41 7 -50 15 -8 8
-28 15 -45 15 -17 0 -31 5 -31 10 0 6 -11 10 -25 10 -14 0 -25 4 -25 10 0 5
-11 12 -25 16 -14 3 -25 10 -25 15 0 5 -7 9 -16 9 -9 0 -35 20 -60 45 -24 25
-47 45 -52 45 -5 0 -14 11 -20 25 -6 14 -16 25 -22 25 -5 0 -10 9 -10 20 0 11
-4 20 -10 20 -5 0 -10 5 -10 11 0 6 -7 17 -15 25 -8 9 -15 24 -15 35 0 10 -4
19 -10 19 -5 0 -10 14 -10 30 0 17 -4 30 -10 30 -5 0 -10 20 -10 44 0 27 -5
46 -12 48 -10 4 -14 128 -16 568 -2 309 -1 569 2 577 5 11 33 13 143 11 l138
-3 6 -550z m2729 425 l0 -130 -265 0 -265 0 0 -710 0 -710 -140 0 -140 0 0
710 0 710 -270 0 -270 0 0 123 c0 68 3 127 7 130 3 4 307 7 675 7 l668 0 0
-130z m1110 116 c52 -8 96 -19 98 -25 2 -6 19 -11 38 -11 19 0 34 -4 34 -9 0
-4 20 -16 45 -25 25 -10 45 -22 45 -27 0 -5 7 -9 15 -9 16 0 125 -105 125
-121 0 -5 9 -20 21 -32 11 -12 23 -34 26 -49 3 -16 9 -28 14 -28 5 0 9 -16 9
-35 0 -19 5 -35 10 -35 6 0 10 -57 10 -150 0 -93 -4 -150 -10 -150 -5 0 -10
-18 -10 -40 0 -22 -4 -40 -10 -40 -5 0 -10 -7 -10 -15 0 -24 -33 -88 -62 -119
-16 -16 -28 -33 -28 -37 0 -5 -5 -9 -11 -9 -12 0 -59 -50 -59 -62 0 -5 -7 -8
-15 -8 -8 0 -15 -4 -15 -10 0 -5 -9 -10 -20 -10 -11 0 -20 -4 -20 -9 0 -5 -13
-12 -30 -16 -21 -5 -30 -13 -30 -26 0 -10 7 -19 15 -19 9 0 15 -9 15 -23 0
-12 9 -29 20 -37 11 -8 20 -20 20 -28 0 -7 7 -15 15 -18 8 -4 15 -12 15 -20 0
-8 4 -14 8 -14 5 0 14 -16 22 -35 8 -19 20 -35 27 -35 7 0 13 -9 13 -20 0 -11
5 -20 10 -20 6 0 10 -7 10 -15 0 -8 5 -15 10 -15 6 0 10 -7 10 -15 0 -9 7 -18
15 -21 8 -4 15 -12 15 -20 0 -8 4 -14 9 -14 5 0 15 -16 22 -35 7 -19 19 -35
26 -35 7 0 13 -11 13 -25 0 -14 5 -25 10 -25 6 0 10 -9 10 -20 0 -11 7 -20 15
-20 8 0 15 -4 15 -10 0 -16 -62 -22 -192 -18 -139 3 -145 6 -174 77 -9 23 -20
41 -25 41 -5 0 -9 7 -9 15 0 8 -4 15 -10 15 -5 0 -10 7 -10 15 0 15 -6 25 -37
60 -7 7 -13 18 -13 24 0 6 -4 11 -10 11 -5 0 -10 9 -10 20 0 19 -6 29 -37 65
-7 7 -13 18 -13 24 0 6 -4 11 -10 11 -5 0 -10 11 -10 25 0 14 -5 25 -10 25 -6
0 -14 8 -17 17 -4 10 -17 28 -30 40 -22 23 -27 23 -247 23 l-226 0 -2 -252 -3
-253 -140 0 -140 0 -3 825 c-1 454 0 831 3 838 7 18 726 17 855 -2z m1661 4
c10 -6 19 -17 19 -25 0 -8 5 -15 10 -15 6 0 10 -11 10 -25 0 -14 5 -25 10 -25
6 0 10 -13 10 -30 0 -16 4 -30 9 -30 5 0 12 -11 15 -25 4 -14 11 -25 16 -25 6
0 10 -11 10 -25 0 -14 5 -25 10 -25 6 0 10 -11 10 -25 0 -14 5 -25 10 -25 6 0
10 -9 10 -19 0 -11 7 -26 15 -35 8 -8 15 -24 15 -35 0 -12 5 -21 10 -21 6 0
10 -9 10 -21 0 -11 7 -27 15 -35 8 -9 15 -26 15 -40 0 -13 5 -24 10 -24 6 0
10 -9 10 -20 0 -11 5 -20 10 -20 6 0 10 -11 10 -25 0 -14 4 -25 9 -25 4 0 16
-25 26 -55 9 -30 21 -55 26 -55 5 0 9 -11 9 -25 0 -14 4 -25 8 -25 4 0 16 -22
26 -50 10 -27 22 -50 27 -50 5 0 9 -13 9 -30 0 -16 4 -30 8 -30 4 0 16 -22 26
-50 10 -27 22 -50 27 -50 5 0 9 -16 9 -35 0 -19 4 -35 9 -35 5 0 17 -20 27
-45 9 -25 21 -45 25 -45 5 0 9 -11 9 -25 0 -14 3 -25 8 -25 4 0 16 -27 26 -60
11 -33 23 -60 28 -60 4 0 8 -9 8 -20 0 -11 5 -20 10 -20 6 0 10 -14 10 -30 0
-29 5 -38 38 -75 6 -7 12 -23 12 -34 0 -12 5 -21 10 -21 6 0 10 -11 10 -25 0
-14 5 -25 10 -25 16 0 11 -37 -6 -44 -9 -3 -73 -6 -143 -6 -114 0 -128 2 -144
20 -9 11 -17 29 -17 40 0 11 -4 20 -9 20 -9 0 -26 38 -35 83 -4 15 -11 27 -16
27 -6 0 -10 11 -10 25 0 14 -4 25 -10 25 -5 0 -17 25 -25 55 -9 30 -21 55 -26
55 -5 0 -9 7 -9 15 0 13 -52 15 -412 15 -440 -1 -448 -2 -448 -49 0 -11 -4
-21 -10 -21 -5 0 -10 -11 -10 -25 0 -14 -4 -25 -9 -25 -5 0 -14 -20 -20 -44
-6 -25 -18 -51 -26 -60 -8 -8 -15 -24 -15 -34 0 -11 -4 -22 -8 -24 -5 -1 -15
-23 -23 -48 l-14 -45 -120 -3 c-148 -4 -185 2 -185 28 0 11 4 20 10 20 5 0 12
11 16 25 3 14 10 25 15 25 5 0 9 11 9 25 0 14 5 25 10 25 6 0 10 9 10 20 0 11
4 20 9 20 5 0 12 16 15 35 4 19 11 35 16 35 6 0 10 9 10 20 0 11 5 20 10 20 6
0 10 12 10 26 0 14 7 32 15 40 8 9 20 35 26 60 6 24 15 44 20 44 5 0 9 9 9 20
0 11 4 20 8 20 4 0 16 23 26 50 10 28 22 50 27 50 5 0 9 16 9 35 0 19 4 35 9
35 5 0 17 20 27 45 9 25 21 45 25 45 5 0 9 11 9 25 0 14 4 25 8 25 4 0 14 20
21 46 7 25 20 51 27 59 8 7 14 23 14 34 0 12 5 21 10 21 6 0 10 11 10 25 0 14
5 25 10 25 6 0 10 9 10 19 0 11 7 26 15 35 8 8 15 24 15 35 0 12 5 21 10 21 6
0 10 9 10 21 0 11 7 27 15 35 8 9 15 26 15 40 0 13 5 24 10 24 6 0 10 9 10 20
0 11 5 20 10 20 6 0 10 11 10 25 0 14 4 25 9 25 5 0 12 11 15 25 4 14 11 25
16 25 6 0 10 14 10 30 0 17 5 30 10 30 6 0 10 11 10 25 0 14 4 25 10 25 5 0
12 11 16 25 3 14 10 25 15 25 5 0 9 11 9 25 0 14 5 25 10 25 6 0 10 13 10 29
0 20 6 31 18 34 35 9 274 7 293 -3z"/>
<path d="M28380 15050 c0 -6 -40 -10 -100 -10 -55 0 -100 -4 -100 -8 0 -5 -38
-14 -85 -21 -47 -7 -92 -19 -100 -27 -7 -8 -32 -14 -54 -14 -23 0 -41 -4 -41
-9 0 -5 -27 -17 -60 -27 -33 -10 -60 -21 -60 -26 0 -4 -11 -8 -25 -8 -14 0
-25 -4 -25 -9 0 -4 -20 -16 -45 -25 -25 -10 -45 -22 -45 -27 0 -5 -11 -9 -25
-9 -14 0 -25 -4 -25 -9 0 -5 -16 -15 -35 -21 -20 -7 -47 -23 -60 -36 -13 -13
-31 -24 -40 -24 -9 0 -23 -6 -30 -12 -30 -27 -44 -38 -50 -38 -3 0 -17 -11
-31 -25 -14 -14 -30 -25 -37 -25 -7 0 -19 -9 -27 -20 -8 -11 -20 -20 -27 -20
-7 0 -13 -3 -13 -7 0 -12 -46 -63 -57 -63 -5 0 -16 -11 -23 -25 -7 -14 -20
-25 -27 -25 -17 0 -43 -24 -43 -40 0 -6 -7 -13 -15 -16 -8 -4 -15 -12 -15 -20
0 -8 -4 -14 -10 -14 -10 0 -60 -47 -60 -57 0 -3 -16 -21 -35 -40 -19 -19 -35
-40 -35 -48 0 -8 -4 -15 -10 -15 -5 0 -10 -5 -10 -11 0 -14 -25 -39 -39 -39
-6 0 -11 -9 -11 -20 0 -11 -4 -20 -10 -20 -5 0 -10 -5 -10 -11 0 -6 -6 -17
-12 -24 -32 -36 -38 -46 -38 -65 0 -11 -4 -20 -10 -20 -5 0 -10 -5 -10 -11 0
-6 -6 -17 -12 -24 -32 -36 -38 -46 -38 -65 0 -11 -4 -20 -10 -20 -5 0 -10 -9
-10 -20 0 -11 -4 -20 -10 -20 -5 0 -12 -11 -16 -25 -3 -14 -10 -25 -15 -25 -5
0 -9 -11 -9 -25 0 -14 -4 -25 -10 -25 -5 0 -10 -13 -10 -30 0 -16 -4 -30 -9
-30 -5 0 -17 -29 -26 -65 -10 -36 -22 -65 -26 -65 -5 0 -9 -13 -9 -30 0 -16
-4 -30 -8 -30 -5 0 -17 -43 -27 -95 -11 -52 -23 -95 -27 -95 -4 0 -8 -29 -8
-64 0 -35 -4 -66 -9 -68 -14 -5 -31 -213 -31 -379 0 -162 17 -362 31 -367 5
-2 9 -35 9 -73 0 -38 4 -69 8 -69 5 0 16 -40 26 -90 11 -49 23 -90 27 -90 5 0
9 -16 9 -35 0 -19 4 -35 8 -35 5 0 16 -27 25 -60 10 -33 22 -60 27 -60 6 0 10
-16 10 -35 0 -19 5 -35 10 -35 6 0 10 -9 10 -20 0 -11 4 -20 9 -20 5 0 12 -11
15 -25 4 -14 11 -25 16 -25 6 0 10 -11 10 -25 0 -14 5 -25 10 -25 6 0 10 -9
10 -20 0 -11 4 -20 9 -20 5 0 12 -11 15 -25 4 -14 11 -25 16 -25 6 0 10 -7 10
-15 0 -8 5 -15 10 -15 6 0 10 -7 10 -16 0 -9 11 -27 25 -40 14 -13 25 -30 25
-39 0 -8 5 -15 10 -15 6 0 10 -5 10 -10 0 -10 8 -22 38 -55 6 -7 12 -16 12
-20 0 -5 11 -18 68 -81 12 -14 22 -29 22 -34 0 -6 7 -10 15 -10 8 0 15 -4 15
-9 0 -11 134 -151 144 -151 11 0 36 -27 36 -39 0 -6 5 -11 10 -11 6 0 22 -10
35 -22 62 -58 75 -68 80 -68 4 0 13 -6 20 -12 31 -28 44 -38 51 -38 4 0 14 -8
23 -18 9 -10 35 -26 59 -36 23 -11 42 -23 42 -28 0 -4 7 -8 15 -8 8 0 15 -4
15 -9 0 -4 20 -16 45 -25 25 -10 45 -22 45 -27 0 -5 11 -9 25 -9 14 0 25 -4
25 -9 0 -4 20 -16 45 -25 25 -10 45 -22 45 -27 0 -5 15 -9 34 -9 19 0 36 -5
38 -11 3 -9 46 -24 111 -36 15 -3 27 -9 27 -14 0 -5 20 -9 44 -9 24 0 46 -4
48 -10 4 -11 187 -40 253 -40 25 0 45 -4 45 -10 0 -6 58 -10 155 -10 97 0 155
4 155 10 0 6 18 10 40 10 63 0 245 30 248 40 2 6 21 10 43 10 21 0 39 4 39 9
0 5 17 12 38 15 51 10 102 28 102 38 0 4 14 8 30 8 17 0 30 4 30 8 0 4 23 16
50 26 28 10 50 22 50 27 0 5 11 9 25 9 14 0 25 4 25 8 0 5 18 17 40 27 22 10
40 22 40 27 0 4 7 8 15 8 8 0 15 3 15 8 0 4 20 15 45 25 25 11 45 23 45 28 0
5 5 9 10 9 6 0 22 10 35 23 36 33 53 47 60 47 3 0 17 11 31 25 14 14 29 25 35
25 5 0 34 25 64 55 29 30 56 55 59 55 9 0 56 50 56 60 0 6 7 10 15 10 8 0 15
5 15 11 0 7 20 32 45 57 25 24 45 49 45 54 0 5 14 22 30 38 17 16 30 34 30 40
0 5 7 10 15 10 8 0 15 9 15 20 0 11 5 20 10 20 6 0 10 5 10 11 0 6 6 17 13 24
29 33 37 45 37 55 0 5 5 10 10 10 6 0 10 9 10 20 0 11 4 20 9 20 5 0 12 11 15
25 4 14 11 25 16 25 6 0 10 10 10 21 0 12 8 29 19 38 10 9 21 26 25 39 4 12
12 22 17 22 5 0 9 14 9 30 0 17 5 30 10 30 6 0 10 11 10 25 0 14 4 25 10 25 5
0 12 11 16 25 3 14 10 25 15 25 5 0 9 16 9 35 0 19 5 35 10 35 6 0 10 11 10
25 0 14 4 25 9 25 7 0 20 43 38 133 3 15 9 27 14 27 5 0 9 20 9 45 0 25 4 45
8 45 9 0 43 232 42 288 0 17 5 32 10 32 6 0 10 70 10 190 0 120 -4 190 -10
190 -5 0 -10 19 -10 43 0 63 -32 277 -42 277 -4 0 -8 20 -8 45 0 25 -3 45 -8
45 -4 0 -16 36 -26 80 -11 44 -23 80 -28 80 -4 0 -8 14 -8 30 0 17 -4 30 -10
30 -5 0 -10 14 -10 30 0 17 -4 30 -9 30 -5 0 -12 11 -15 25 -4 14 -11 25 -16
25 -6 0 -10 16 -10 35 0 19 -4 35 -10 35 -5 0 -10 9 -10 20 0 11 -4 20 -9 20
-5 0 -12 11 -15 25 -4 14 -11 25 -16 25 -6 0 -10 10 -10 21 0 12 -8 29 -19 38
-10 9 -21 26 -25 39 -4 12 -12 22 -17 22 -5 0 -9 9 -9 20 0 11 -4 20 -10 20
-5 0 -10 7 -10 15 0 8 -4 15 -8 15 -5 0 -16 16 -25 35 -9 19 -21 35 -27 35 -5
0 -10 9 -10 20 0 11 -5 20 -10 20 -6 0 -16 11 -22 25 -6 14 -17 25 -25 25 -7
0 -13 7 -13 15 0 17 -9 28 -86 109 -30 31 -54 63 -54 71 0 8 -7 15 -15 15 -8
0 -15 5 -15 10 0 6 -9 10 -20 10 -11 0 -20 5 -20 10 0 14 -46 60 -60 60 -5 0
-10 5 -10 11 0 11 -25 39 -35 39 -3 0 -17 10 -30 23 -38 35 -54 47 -62 47 -5
0 -15 9 -23 20 -8 11 -20 20 -27 20 -7 0 -23 11 -37 25 -14 14 -32 25 -41 25
-8 0 -15 4 -15 8 0 4 -22 16 -50 27 -27 11 -50 23 -50 27 0 4 -7 8 -15 8 -8 0
-15 4 -15 9 0 5 -20 17 -45 27 -25 9 -45 21 -45 25 0 5 -13 9 -30 9 -16 0 -30
4 -30 8 0 8 -30 19 -97 37 -13 4 -23 11 -23 16 0 5 -16 9 -35 9 -19 0 -35 4
-35 8 0 8 -150 42 -187 42 -13 0 -23 5 -23 10 0 6 -33 10 -80 10 -47 0 -80 4
-80 10 0 6 -62 10 -165 10 -103 0 -165 -4 -165 -10z"/>
<path d="M19340 7915 l0 -325 249 0 c137 0 251 3 253 8 2 4 35 15 73 25 39 10
72 22 73 27 2 6 12 10 23 10 10 0 19 4 19 10 0 5 10 20 23 34 40 44 47 55 47
76 0 11 5 20 10 20 6 0 10 45 10 115 0 70 -4 115 -10 115 -5 0 -10 16 -10 35
0 24 -5 35 -15 35 -8 0 -15 3 -15 8 0 15 -48 62 -64 62 -9 0 -16 4 -16 8 0 10
-88 42 -117 42 -13 0 -23 5 -23 10 0 6 -92 10 -255 10 l-255 0 0 -325z"/>
<path d="M24854 8143 c-9 -45 -26 -83 -35 -83 -5 0 -9 -11 -9 -25 0 -14 -4
-25 -9 -25 -5 0 -14 -20 -20 -44 -6 -25 -18 -51 -26 -60 -8 -8 -15 -26 -15
-40 0 -14 -4 -26 -9 -26 -5 0 -17 -25 -26 -55 -10 -30 -22 -55 -26 -55 -5 0
-9 -11 -9 -25 0 -14 -4 -25 -8 -25 -4 0 -14 -20 -21 -46 -7 -25 -20 -51 -27
-59 -8 -7 -14 -23 -14 -33 0 -11 -4 -22 -9 -24 -5 -1 -12 -18 -16 -35 l-7 -33
306 0 306 0 0 25 c0 14 -4 25 -9 25 -4 0 -16 20 -25 45 -10 25 -22 45 -27 45
-5 0 -9 16 -9 35 0 19 -4 35 -10 35 -5 0 -10 11 -10 25 0 14 -4 25 -10 25 -5
0 -12 11 -16 25 -3 14 -10 25 -15 25 -5 0 -9 14 -9 30 0 17 -4 30 -10 30 -5 0
-10 11 -10 25 0 14 -4 25 -9 25 -5 0 -12 11 -15 25 -4 14 -11 25 -16 25 -6 0
-10 14 -10 30 0 17 -4 30 -10 30 -5 0 -10 11 -10 25 0 14 -4 25 -9 25 -5 0
-12 11 -15 25 -4 14 -11 25 -16 25 -6 0 -10 14 -10 31 0 27 -19 59 -34 59 -3
0 -8 -12 -12 -27z"/>
<path d="M30870 7915 l0 -325 240 0 c132 0 240 4 240 8 0 4 27 14 60 20 32 7
66 19 74 27 8 8 19 15 25 15 6 0 11 4 11 9 0 5 9 13 20 16 11 3 20 15 20 26 0
10 7 19 15 19 8 0 15 7 15 15 0 8 5 15 10 15 6 0 10 14 10 30 0 17 5 30 10 30
6 0 10 42 10 105 0 63 -4 105 -10 105 -5 0 -10 9 -10 21 0 11 -6 27 -12 34
-28 31 -38 44 -38 50 0 13 -29 35 -45 35 -9 0 -23 6 -31 14 -8 8 -39 20 -69
27 -30 7 -55 16 -55 21 0 4 -110 8 -245 8 l-245 0 0 -325z"/>
<path d="M35720 7915 l0 -325 250 0 c138 0 250 4 250 9 0 5 19 11 43 15 53 9
107 28 107 38 0 4 9 8 20 8 11 0 20 4 20 10 0 5 10 20 23 34 40 43 47 55 47
75 0 11 5 21 12 23 8 3 14 38 16 104 3 83 1 103 -12 116 -9 9 -16 30 -16 47 0
21 -5 31 -15 31 -8 0 -15 3 -15 8 0 15 -48 62 -64 62 -9 0 -16 4 -16 8 0 10
-88 42 -117 42 -13 0 -23 5 -23 10 0 6 -92 10 -255 10 l-255 0 0 -325z"/>
<path d="M37780 8135 c0 -19 -4 -35 -9 -35 -5 0 -17 -20 -27 -45 -9 -25 -21
-45 -25 -45 -5 0 -9 -16 -9 -35 0 -19 -4 -35 -10 -35 -5 0 -17 -22 -27 -50
-10 -27 -21 -50 -25 -50 -5 0 -8 -13 -8 -30 0 -16 -4 -30 -10 -30 -5 0 -10
-11 -10 -25 0 -14 -4 -25 -9 -25 -5 0 -12 -11 -15 -25 -4 -14 -11 -25 -16 -25
-6 0 -10 -13 -10 -30 0 -16 -4 -30 -10 -30 -5 0 -10 -11 -10 -25 0 -14 -4 -25
-9 -25 -5 0 -12 -11 -15 -25 -4 -14 -11 -25 -16 -25 -6 0 -10 -16 -10 -35 l0
-35 300 0 300 0 0 25 c0 14 -4 25 -10 25 -5 0 -10 11 -10 25 0 14 -4 25 -10
25 -5 0 -10 9 -10 20 0 11 -4 20 -9 20 -5 0 -12 16 -15 35 -4 19 -11 35 -16
35 -6 0 -10 11 -10 25 0 14 -4 25 -10 25 -5 0 -10 11 -10 25 0 14 -4 25 -10
25 -5 0 -10 9 -10 19 0 11 -7 26 -15 35 -8 8 -15 24 -15 35 0 12 -4 21 -10 21
-5 0 -10 11 -10 25 0 14 -4 25 -8 25 -4 0 -14 20 -21 46 -7 25 -20 51 -27 59
-8 7 -14 23 -14 34 0 12 -4 21 -9 21 -5 0 -11 14 -15 31 -5 28 -27 59 -40 59
-3 0 -6 -16 -6 -35z"/>
</g>
</svg>
